<?xml version="1.0" encoding="UTF-8"?>
<svg id="Capa_1" data-name="Capa 1" xmlns="http://www.w3.org/2000/svg" viewBox="0 0 48 48">
  <path d="M11.53,3.6h-3.78c-1.96,0-3.55,1.59-3.55,3.55v33.7c0,1.96,1.59,3.55,3.55,3.55h3.78c1.96,0,3.55-1.59,3.55-3.55V7.15c0-1.96-1.59-3.55-3.55-3.55ZM12.04,40.85c0,.28-.23.51-.51.51h-3.78c-.28,0-.51-.23-.51-.51V7.15c0-.28.23-.51.51-.51h3.78c.28,0,.51.23.51.51v33.7Z"/>
  <path d="M25.89,3.6h-3.78c-1.96,0-3.55,1.59-3.55,3.55v33.7c0,1.96,1.59,3.55,3.55,3.55h3.78c1.96,0,3.55-1.59,3.55-3.55V7.15c0-1.96-1.59-3.55-3.55-3.55ZM26.4,40.85c0,.28-.23.51-.51.51h-3.78c-.28,0-.51-.23-.51-.51V7.15c0-.28.23-.51.51-.51h3.78c.28,0,.51.23.51.51v33.7Z"/>
  <path d="M40.25,3.6h-3.78c-1.96,0-3.55,1.59-3.55,3.55v33.7c0,1.96,1.59,3.55,3.55,3.55h3.78c1.96,0,3.55-1.59,3.55-3.55V7.15c0-1.96-1.59-3.55-3.55-3.55ZM40.76,40.85c0,.28-.23.51-.51.51h-3.78c-.28,0-.51-.23-.51-.51V7.15c0-.28.23-.51.51-.51h3.78c.28,0,.51.23.51.51v33.7Z"/>
</svg>