<svg width="28" height="28" viewBox="0 0 28 28" fill="none" xmlns="http://www.w3.org/2000/svg">
<path d="M18.5 6.65039C20.5965 6.65039 22.3496 8.31282 22.3496 11C22.3496 12.0644 21.8656 13.2485 21.0527 14.4678C20.2464 15.6772 19.1595 16.858 18.0537 17.9023C16.9506 18.9441 15.8451 19.8355 15.0137 20.4668C14.5986 20.782 14.2525 21.0311 14.0117 21.2012C14.0024 21.2078 13.9924 21.2134 13.9834 21.2197C13.9783 21.2164 13.973 21.2133 13.9678 21.21C13.7281 21.0543 13.3836 20.8244 12.9697 20.5312C12.1408 19.9441 11.038 19.1064 9.93848 18.1016C8.83644 17.0944 7.75348 15.9345 6.9502 14.7051C6.14418 13.4714 5.65039 12.2142 5.65039 11C5.65041 8.31277 7.40299 6.65039 9.5 6.65039C10.5822 6.65039 11.5868 7.08609 12.3467 7.55371C12.722 7.78469 13.026 8.01603 13.2344 8.18848C13.3381 8.2743 13.4176 8.34473 13.4697 8.39258C13.4956 8.41629 13.5144 8.43482 13.5264 8.44629L13.541 8.46094L14 8.91895L14.459 8.46094L14.4736 8.44629C14.4856 8.43482 14.5044 8.41629 14.5303 8.39258C14.5824 8.34473 14.6619 8.2743 14.7656 8.18848C14.974 8.01603 15.278 7.78469 15.6533 7.55371C16.4132 7.08609 17.4178 6.65039 18.5 6.65039Z" stroke="#3D3D3D" stroke-width="1.3"/>
</svg>
