<svg width="24" height="24" viewBox="0 0 24 24" fill="none" xmlns="http://www.w3.org/2000/svg">
<g clip-path="url(#clip0_6892_12326)">
<path d="M14.0593 11.8799H9.9393C9.7593 11.8799 9.5993 11.9399 9.4693 12.0699C9.3393 12.1999 9.2793 12.3599 9.2793 12.5499C9.2793 12.7299 9.3393 12.8999 9.4693 13.0299C9.5993 13.1599 9.7593 13.2199 9.9393 13.2199H14.0593C14.2393 13.2199 14.4093 13.1599 14.5293 13.0299C14.6593 12.8999 14.7193 12.7399 14.7193 12.5499C14.7193 12.3599 14.6593 12.1999 14.5293 12.0699C14.3993 11.9399 14.2393 11.8799 14.0593 11.8799Z" fill="#3D3D3D"/>
<path d="M20.9591 4.43984C20.8991 4.25984 20.7791 4.12984 20.6191 4.05984C20.4591 3.97984 20.2791 3.97984 20.1091 4.03984C19.9391 4.09984 19.8091 4.21984 19.7291 4.38984L17.9991 8.26984H5.99914L4.26914 4.38984C4.19914 4.21984 4.06914 4.10984 3.88914 4.04984C3.71914 3.98984 3.53914 3.98984 3.37914 4.05984C3.21914 4.12984 3.10914 4.26984 3.03914 4.43984C2.97914 4.60984 2.97914 4.78984 3.03914 4.94984L4.62914 8.48984V18.1798C4.62914 18.6898 4.80914 19.1198 5.15914 19.4798C5.50914 19.8398 5.93914 20.0198 6.43914 20.0198H17.5391C18.0391 20.0198 18.4691 19.8398 18.8191 19.4798C19.1691 19.1198 19.3491 18.6898 19.3491 18.1798V8.49984L20.9291 4.95984C20.9991 4.78984 20.9991 4.61984 20.9291 4.44984L20.9591 4.43984ZM17.5491 18.6898H6.44914C6.29914 18.6898 6.18914 18.6398 6.09914 18.5498C6.00914 18.4598 5.95914 18.3398 5.95914 18.1898V9.60984H18.0291V18.1898C18.0291 18.3398 17.9791 18.4598 17.8891 18.5498C17.7991 18.6398 17.6891 18.6898 17.5391 18.6898H17.5491Z" fill="#3D3D3D"/>
</g>
<defs>
<clipPath id="clip0_6892_12326">
<rect width="18" height="16.03" fill="white" transform="translate(3 4)"/>
</clipPath>
</defs>
</svg>
