<svg width="28" height="28" viewBox="0 0 28 28" fill="none" xmlns="http://www.w3.org/2000/svg">
<g clip-path="url(#clip0_10688_21130)">
<path d="M14.1914 14.1915C15.1004 14.1915 15.9889 13.922 16.7447 13.417C17.5005 12.912 18.0895 12.1942 18.4374 11.3545C18.7852 10.5147 18.8762 9.59065 18.6989 8.69916C18.5216 7.80767 18.0839 6.98879 17.4411 6.34606C16.7984 5.70334 15.9795 5.26564 15.088 5.08831C14.1965 4.91098 13.2725 5.00199 12.4327 5.34983C11.593 5.69767 10.8752 6.28672 10.3702 7.04249C9.86524 7.79825 9.5957 8.68679 9.5957 9.59575C9.59692 10.8142 10.0815 11.9825 10.9431 12.8441C11.8047 13.7057 12.973 14.1903 14.1914 14.1915ZM14.1914 6.53192C14.7974 6.53192 15.3898 6.71161 15.8936 7.04827C16.3975 7.38492 16.7902 7.86343 17.0221 8.42327C17.254 8.98311 17.3146 9.59915 17.1964 10.1935C17.0782 10.7878 16.7864 11.3337 16.3579 11.7622C15.9294 12.1907 15.3835 12.4825 14.7892 12.6007C14.1948 12.7189 13.5788 12.6583 13.019 12.4264C12.4591 12.1945 11.9806 11.8018 11.644 11.2979C11.3073 10.7941 11.1276 10.2017 11.1276 9.59575C11.1276 8.78317 11.4504 8.00387 12.025 7.42929C12.5996 6.85471 13.3789 6.53192 14.1914 6.53192Z" fill="#3D3D3D"/>
<path d="M14.1915 15.7234C12.3638 15.7254 10.6115 16.4524 9.31918 17.7447C8.02682 19.0371 7.29988 20.7893 7.29785 22.617C7.29785 22.8202 7.37855 23.015 7.5222 23.1586C7.66584 23.3023 7.86066 23.383 8.06381 23.383C8.26695 23.383 8.46178 23.3023 8.60542 23.1586C8.74907 23.015 8.82977 22.8202 8.82977 22.617C8.82977 21.195 9.39466 19.8312 10.4002 18.8257C11.4057 17.8202 12.7695 17.2553 14.1915 17.2553C15.6135 17.2553 16.9773 17.8202 17.9828 18.8257C18.9883 19.8312 19.5532 21.195 19.5532 22.617C19.5532 22.8202 19.6339 23.015 19.7775 23.1586C19.9212 23.3023 20.116 23.383 20.3191 23.383C20.5223 23.383 20.7171 23.3023 20.8607 23.1586C21.0044 23.015 21.0851 22.8202 21.0851 22.617C21.0831 20.7893 20.3561 19.0371 19.0638 17.7447C17.7714 16.4524 16.0191 15.7254 14.1915 15.7234Z" fill="#3D3D3D"/>
</g>
<defs>
<clipPath id="clip0_10688_21130">
<rect width="18.383" height="18.383" fill="white" transform="translate(5 5)"/>
</clipPath>
</defs>
</svg>
