<svg width="18" height="18" viewBox="0 0 18 18" fill="none" xmlns="http://www.w3.org/2000/svg">
<path d="M1.35629 3H16.6475C17.3951 3 18.0038 3.58963 18.0038 4.31392V6.00637H0V4.31392C0 3.58963 0.608641 3 1.35629 3Z" fill="#E1A141"/>
<path d="M0 7.00635V13.5978C0 14.3221 0.608641 14.9117 1.35629 14.9117H16.6475C17.3951 14.9117 18.0038 14.3221 18.0038 13.5978V7.00635H0ZM4.08015 11.9381C4.08015 12.2111 3.85097 12.4331 3.56919 12.4331H2.80651C2.52473 12.4331 2.29555 12.2111 2.29555 11.9381V11.1993C2.29555 10.9263 2.52473 10.7043 2.80651 10.7043H3.56919C3.85097 10.7043 4.08015 10.9263 4.08015 11.1993V11.9381Z" fill="#E1A141"/>
</svg>
