<svg width="28" height="28" viewBox="0 0 28 28" fill="none" xmlns="http://www.w3.org/2000/svg">
<path d="M11.1083 4.8916H6.28327C5.51467 4.8916 4.8916 5.51467 4.8916 6.28327V11.1083C4.8916 11.8769 5.51467 12.4999 6.28327 12.4999H11.1083C11.8769 12.4999 12.4999 11.8769 12.4999 11.1083V6.28327C12.4999 5.51467 11.8769 4.8916 11.1083 4.8916Z" fill="#E1A141" stroke="#E1A141" stroke-width="1.3" stroke-linecap="round" stroke-linejoin="round"/>
<path d="M21.7167 4.8916H16.8917C16.1231 4.8916 15.5 5.51467 15.5 6.28327V11.1083C15.5 11.8769 16.1231 12.4999 16.8917 12.4999H21.7167C22.4853 12.4999 23.1083 11.8769 23.1083 11.1083V6.28327C23.1083 5.51467 22.4853 4.8916 21.7167 4.8916Z" fill="#E1A141" stroke="#E1A141" stroke-width="1.3" stroke-linejoin="round"/>
<path d="M11.1083 15.5H6.28327C5.51467 15.5 4.8916 16.1231 4.8916 16.8917V21.7167C4.8916 22.4853 5.51467 23.1083 6.28327 23.1083H11.1083C11.8769 23.1083 12.4999 22.4853 12.4999 21.7167V16.8917C12.4999 16.1231 11.8769 15.5 11.1083 15.5Z" fill="#E1A141" stroke="#E1A141" stroke-width="1.3" stroke-linejoin="round"/>
<path d="M21.7167 15.5H16.8917C16.1231 15.5 15.5 16.1231 15.5 16.8917V21.7167C15.5 22.4853 16.1231 23.1083 16.8917 23.1083H21.7167C22.4853 23.1083 23.1083 22.4853 23.1083 21.7167V16.8917C23.1083 16.1231 22.4853 15.5 21.7167 15.5Z" fill="#E1A141" stroke="#E1A141" stroke-width="1.3" stroke-linejoin="round"/>
</svg>
