<svg width="18" height="18" viewBox="0 0 18 18" fill="none" xmlns="http://www.w3.org/2000/svg">
<path d="M16.8046 3.95233L12.4195 0.151867C12.3054 0.0531533 12.1587 0 12.0038 0H11.7471V4.56739H17.0003V4.36617C17.0003 4.20671 16.931 4.05864 16.8046 3.94853V3.95233Z" fill="#3D3D3D"/>
<path d="M15.7778 5.70639H11.7472C11.0707 5.70639 10.5246 5.19764 10.5246 4.56739V0H4.37482C3.78389 0 3.24593 0.269563 2.8547 0.759333C2.50421 1.19975 2.30859 1.78064 2.30859 2.3919V7.8591H13.2836C14.4573 7.8591 15.4151 8.74752 15.4151 9.84476V14.4235C15.4151 15.517 14.4614 16.4092 13.2836 16.4092H2.42678C2.52051 16.7167 2.65908 16.9977 2.85062 17.2407C3.24186 17.7304 3.78389 18 4.37074 18H14.9301C15.521 18 16.059 17.7304 16.4502 17.2407C16.8007 16.8003 16.9963 16.2194 16.9963 15.6081V5.70639H15.7737H15.7778Z" fill="#3D3D3D"/>
<path d="M4.90872 11.5001C4.90872 11.1964 4.68457 11.0142 4.28519 11.0142C4.12217 11.0142 4.01213 11.0293 3.95508 11.0445V12.0165C4.02436 12.0317 4.10587 12.0355 4.22405 12.0355C4.6479 12.0355 4.9128 11.8342 4.9128 11.4963L4.90872 11.5001Z" fill="#3D3D3D"/>
<path d="M8.48604 12.0733C8.49011 11.3899 8.06219 11.0254 7.37345 11.0254C7.19414 11.0254 7.08002 11.0406 7.01074 11.0558V13.2123C7.08002 13.2275 7.19006 13.2275 7.28787 13.2275C8.01329 13.2313 8.48604 12.8592 8.48604 12.0733Z" fill="#3D3D3D"/>
<path d="M3.52674 15.2665H13.2792C13.7804 15.2665 14.188 14.8868 14.188 14.4198V9.84104C14.188 9.37405 13.7804 8.99438 13.2792 8.99438H1.94142C1.42384 8.99438 1 9.38544 1 9.87141V14.3857C1 14.8678 1.41977 15.2627 1.94142 15.2627H3.52674V15.2665ZM9.86398 10.4789H12.028V11.0901H10.6668V11.8419H11.9384V12.4494H10.6668V13.7744H9.86398V10.4789ZM6.21243 10.5244C6.50586 10.4789 6.88895 10.4561 7.29241 10.4561C7.96485 10.4561 8.40092 10.57 8.73917 10.8092C9.10596 11.0636 9.33826 11.4698 9.33826 12.0507C9.33826 12.6809 9.09373 13.1176 8.7514 13.3871C8.38054 13.6757 7.80999 13.8124 7.12124 13.8124C6.70555 13.8124 6.41212 13.7896 6.21243 13.763V10.5244ZM3.15996 10.5244C3.26184 10.5093 3.38818 10.4941 3.52674 10.4827C3.72236 10.4675 3.95466 10.4561 4.23994 10.4561C4.73306 10.4561 5.08355 10.5434 5.31992 10.7219C5.54407 10.8889 5.69893 11.1623 5.69893 11.485C5.69893 11.8077 5.58482 12.0811 5.3729 12.2671C5.09985 12.5063 4.69638 12.6126 4.22364 12.6126C4.11768 12.6126 4.02394 12.6088 3.95059 12.5974V13.7744H3.15996V10.5244Z" fill="#3D3D3D"/>
</svg>
