<svg width="18" height="18" viewBox="0 0 18 18" fill="none" xmlns="http://www.w3.org/2000/svg">
<mask id="mask0_11178_13690" style="mask-type:luminance" maskUnits="userSpaceOnUse" x="0" y="0" width="18" height="18">
<path d="M18 0H0V18H18V0Z" fill="white"/>
</mask>
<g mask="url(#mask0_11178_13690)">
<path d="M14.7601 7.28863V7.22758C14.7601 3.30093 11.5204 0.148926 7.55938 0.148926C3.59838 0.148926 0.450195 3.2704 0.450195 7.13981C0.450195 8.28079 0.599019 8.97148 0.751658 9.54006C1.05312 10.5017 1.44235 10.952 1.44235 10.952L1.50341 11.013L1.35458 13.6842L4.26618 13.6232C4.26618 13.6232 5.52545 14.4322 7.62806 14.4322C11.5585 14.4322 14.7678 11.2229 14.7678 7.29245L14.7601 7.28863ZM5.67046 4.70903L5.12859 4.16716C5.63993 3.56805 6.35734 3.11776 7.28844 3.11776C8.21954 3.11776 9.3567 3.89622 9.3567 5.12879C9.3567 6.36135 7.34568 7.43746 7.52503 9.17755H6.62446C6.5634 9.17755 6.62446 8.48685 6.62446 8.4258C6.65499 8.21592 6.74275 7.97551 6.83434 7.76563C7.01369 7.3764 7.28462 7.04441 7.55556 6.71624C7.97532 6.20489 8.48666 5.54473 8.24625 4.82732C8.00585 4.1061 7.22738 3.86569 6.56722 4.04886C6.17799 4.14045 5.93758 4.43809 5.66665 4.70903H5.67046ZM6.39168 11.0092C6.39168 10.5284 6.71986 10.2308 7.14343 10.2308C7.56701 10.2308 7.89518 10.5589 7.89518 11.0092C7.89518 11.4595 7.56701 11.7877 7.14343 11.7877C6.71986 11.7877 6.39168 11.4595 6.39168 11.0092Z" fill="#3D3D3D"/>
<path d="M17.5499 11.9097C17.5499 10.078 16.7409 8.49058 15.4816 7.38013C15.4816 11.6998 11.9099 15.18 7.59016 15.18H6.57129H6.60182C7.65121 16.8018 9.48289 17.9084 11.5817 17.9084C13.6805 17.9084 14.3712 17.2483 14.3712 17.2483L16.8019 17.3093L16.6836 15.0884C16.6836 15.0884 17.5537 13.978 17.5537 11.9975V11.9059L17.5499 11.9097Z" fill="#3D3D3D"/>
</g>
</svg>
