<?xml version="1.0" encoding="UTF-8"?>
<svg id="Capa_1" xmlns="http://www.w3.org/2000/svg" version="1.1" viewBox="0 0 48 48">
  <!-- Generator: Adobe Illustrator 29.4.0, SVG Export Plug-In . SVG Version: 2.1.0 Build 152)  -->
  <defs>
    <style>
      .st0 {
        fill: #3d3d3d;
      }
    </style>
  </defs>
  <path class="st0" d="M48,15.5v19.5c0,2-.8,3.9-2.1,5.4-1.4,1.4-3.2,2.3-5.2,2.4h-.4s-32.4,0-32.4,0c-2,0-3.9-.8-5.4-2.1C1,39.4.1,37.5,0,35.5v-.4S0,15.5,0,15.5l23.2,12.1c.3.1.5.2.8.2s.6,0,.8-.2l23.2-12.1ZM7.8,4.5h32.4c1.9,0,3.8.7,5.2,2,1.4,1.3,2.3,3.1,2.5,5l-24,12.6L0,11.5c.2-1.8,1-3.6,2.4-4.9,1.3-1.3,3.1-2,4.9-2.2h.4Z"/>
</svg>