<svg width="24" height="24" viewBox="0 0 24 24" fill="none" xmlns="http://www.w3.org/2000/svg">
<g clip-path="url(#clip0_6892_12325)">
<path d="M20.9601 4.43984C20.9001 4.25984 20.7801 4.12984 20.6201 4.05984C20.4601 3.97984 20.2801 3.97984 20.1101 4.03984C19.9401 4.09984 19.8101 4.21984 19.7301 4.38984L18.0001 8.26984H6.00012L4.27012 4.38984C4.20012 4.21984 4.07012 4.10984 3.89012 4.04984C3.72012 3.98984 3.54012 3.98984 3.38012 4.05984C3.22012 4.12984 3.11012 4.26984 3.04012 4.43984C2.98012 4.60984 2.98012 4.78984 3.04012 4.94984L4.63012 8.48984V18.1798C4.63012 18.6898 4.81012 19.1198 5.16012 19.4798C5.51012 19.8398 5.94012 20.0198 6.44012 20.0198H17.5401C18.0401 20.0198 18.4701 19.8398 18.8201 19.4798C19.1701 19.1198 19.3501 18.6898 19.3501 18.1798V8.49984L20.9301 4.95984C21.0001 4.78984 21.0001 4.61984 20.9301 4.44984L20.9601 4.43984Z" fill="#E1A141"/>
<path d="M14.0603 11.8799H9.94027C9.76027 11.8799 9.60027 11.9399 9.47027 12.0699C9.34027 12.1999 9.28027 12.3599 9.28027 12.5499C9.28027 12.7299 9.34027 12.8999 9.47027 13.0299C9.60027 13.1599 9.76027 13.2199 9.94027 13.2199H14.0603C14.2403 13.2199 14.4103 13.1599 14.5303 13.0299C14.6603 12.8999 14.7203 12.7399 14.7203 12.5499C14.7203 12.3599 14.6603 12.1999 14.5303 12.0699C14.4003 11.9399 14.2403 11.8799 14.0603 11.8799Z" fill="white"/>
</g>
<defs>
<clipPath id="clip0_6892_12325">
<rect width="18" height="16.03" fill="white" transform="translate(3 4)"/>
</clipPath>
</defs>
</svg>
