<svg width="18" height="18" viewBox="0 0 18 18" fill="none" xmlns="http://www.w3.org/2000/svg">
<path d="M8.64058 18H8.35746C8.16479 17.9174 8.02323 17.7641 7.88167 17.6146C6.8829 16.5412 5.80549 15.0509 4.98759 13.824C2.76592 10.5092 0.500988 6.29393 3.30069 2.58196C5.89199 -0.86262 11.11 -0.858687 13.7013 2.58196C16.4577 6.24281 14.3029 10.3677 12.1245 13.6589C11.2791 14.9368 10.1584 16.5018 9.11637 17.6146C8.97481 17.768 8.83326 17.9214 8.64058 18ZM11.7785 6.5102C11.7785 4.69747 10.3118 3.23077 8.49902 3.23077C6.68629 3.23077 5.21959 4.69747 5.21959 6.5102C5.21959 8.32293 6.68629 9.78963 8.49902 9.78963C10.3118 9.78963 11.7785 8.32293 11.7785 6.5102Z" fill="#E1A141"/>
</svg>
