<svg width="170" height="44" viewBox="0 0 170 44" fill="none" xmlns="http://www.w3.org/2000/svg">
<path d="M22.4615 22.8074C21.8714 22.2122 21.0729 22.0021 20.2397 21.5819C20.2397 21.3718 20.448 21.3718 20.448 21.3718C22.2532 20.3563 23.4683 18.9557 24.0585 16.7147C24.4751 14.8939 24.4751 13.2832 23.8502 11.4624C23.4336 9.8517 22.4615 8.41607 21.0382 7.61071C19.8231 6.80536 18.4344 6.38517 17.0458 6.21009C16.8375 6 16.4556 6.21009 16.2473 6H1.42337V18.3254C1.42337 18.5355 1.42337 18.7456 1.21508 18.9207C0.416597 20.5314 0 22.3522 0 23.9629C0.208299 23.7528 0.208299 23.5427 0.208299 23.3677C0.624896 21.1267 2.01355 19.1308 3.61051 17.5201C5.41576 15.9094 7.42932 14.6838 9.40815 13.8785C12.0119 12.863 14.8239 12.0577 17.636 11.2523C18.2261 11.2523 19.0246 11.0422 19.6495 11.2523C20.0661 11.2523 20.0661 11.4624 19.8578 11.6725C19.0593 12.4779 18.4691 13.4933 18.0525 14.5088C17.2541 16.5396 17.0458 18.7456 16.8375 20.9866C16.6292 22.3872 16.6292 23.8229 16.2473 25.0134C15.8307 26.8342 15.0322 28.4449 13.4353 29.6704C11.8383 30.896 9.61645 31.4912 7.63762 31.7013C6.83914 31.9114 6.24896 31.9114 5.41576 31.9114C4.82558 33.7322 4.40899 35.553 4.20069 37.5839C4.20069 38.0041 3.99239 38.3893 3.61051 38.3893H2.81203C2.22185 38.3893 2.01355 37.9691 2.01355 37.5839C2.22185 36.7786 2.22185 35.7631 2.43015 34.9578C3.02033 32.3316 4.02711 29.9156 5.45048 27.4645C7.84592 23.6128 10.6579 20.1813 13.8866 17.1349C14.0254 17.1349 14.0949 17.0649 14.0949 16.9248H13.8866C12.0813 17.7302 10.4844 18.5355 9.06099 19.7611C5.45048 22.3872 3.05505 25.8187 1.24979 29.8805V40H16.4903C17.879 39.7899 19.3023 39.5798 20.691 38.9846C23.0864 37.9691 24.6834 36.3584 25.5166 33.9423C25.9332 32.3316 26.1068 30.7209 25.9332 28.9001C25.7249 26.2739 24.5445 24.243 22.531 22.8424L22.4615 22.8074Z" fill="#232323"/>
<path d="M45.7191 12.8182L44.918 17.5909H29.8839L30.668 12.8182H45.7191ZM35.4066 6.54545H41.5771L37.4862 31.125C37.3612 31.9545 37.3839 32.5909 37.5543 33.0341C37.7362 33.4659 38.0259 33.7614 38.4237 33.9205C38.8327 34.0795 39.293 34.1591 39.8043 34.1591C40.1793 34.1591 40.5316 34.1307 40.8612 34.0739C41.1907 34.0057 41.4521 33.9545 41.6452 33.9205L41.918 38.7443C41.543 38.858 41.0373 38.983 40.4009 39.1193C39.7759 39.2557 39.0259 39.3352 38.1509 39.358C36.5827 39.392 35.2191 39.1534 34.06 38.642C32.9123 38.1193 32.0714 37.3182 31.5373 36.2386C31.0146 35.1477 30.8952 33.7841 31.1793 32.1477L35.4066 6.54545ZM54.8434 39.5114C52.2638 39.5114 50.1161 38.9432 48.4002 37.8068C46.6956 36.6705 45.4968 35.0739 44.8036 33.017C44.1104 30.9602 43.9854 28.5739 44.4286 25.858C44.8718 23.1761 45.7581 20.8295 47.0877 18.8182C48.4286 16.8068 50.1161 15.25 52.1502 14.1477C54.1956 13.0341 56.4854 12.4773 59.0195 12.4773C61.599 12.4773 63.7411 13.0511 65.4456 14.1989C67.1502 15.3352 68.349 16.9318 69.0422 18.9886C69.7468 21.0455 69.8775 23.4432 69.4343 26.1818C69.0025 28.8523 68.1104 31.1875 66.7581 33.1875C65.4172 35.1875 63.7297 36.7443 61.6956 37.858C59.6615 38.9602 57.3775 39.5114 54.8434 39.5114ZM55.3547 34.5682C56.7865 34.5682 58.0422 34.1818 59.1218 33.4091C60.2127 32.625 61.1047 31.5739 61.7979 30.2557C62.5025 28.9261 62.9911 27.4489 63.2638 25.8239C63.5138 24.2557 63.5195 22.8352 63.2809 21.5625C63.0422 20.2784 62.5309 19.2614 61.7468 18.5114C60.974 17.75 59.9002 17.3693 58.5252 17.3693C57.0934 17.3693 55.8263 17.767 54.724 18.5625C53.6331 19.3466 52.7411 20.4034 52.0479 21.733C51.3547 23.0511 50.8775 24.5227 50.6161 26.1477C50.3547 27.7159 50.3434 29.1364 50.582 30.4091C50.8206 31.6818 51.332 32.6932 52.1161 33.4432C52.9002 34.1932 53.9797 34.5682 55.3547 34.5682ZM81.1665 39.5114C78.5869 39.5114 76.4392 38.9432 74.7233 37.8068C73.0188 36.6705 71.8199 35.0739 71.1267 33.017C70.4335 30.9602 70.3085 28.5739 70.7517 25.858C71.1949 23.1761 72.0813 20.8295 73.4108 18.8182C74.7517 16.8068 76.4392 15.25 78.4733 14.1477C80.5188 13.0341 82.8085 12.4773 85.3426 12.4773C87.9222 12.4773 90.0642 13.0511 91.7688 14.1989C93.4733 15.3352 94.6722 16.9318 95.3654 18.9886C96.0699 21.0455 96.2006 23.4432 95.7574 26.1818C95.3256 28.8523 94.4335 31.1875 93.0813 33.1875C91.7404 35.1875 90.0529 36.7443 88.0188 37.858C85.9847 38.9602 83.7006 39.5114 81.1665 39.5114ZM81.6779 34.5682C83.1097 34.5682 84.3654 34.1818 85.4449 33.4091C86.5358 32.625 87.4279 31.5739 88.121 30.2557C88.8256 28.9261 89.3142 27.4489 89.5869 25.8239C89.8369 24.2557 89.8426 22.8352 89.604 21.5625C89.3654 20.2784 88.854 19.2614 88.0699 18.5114C87.2972 17.75 86.2233 17.3693 84.8483 17.3693C83.4165 17.3693 82.1494 17.767 81.0472 18.5625C79.9563 19.3466 79.0642 20.4034 78.371 21.733C77.6779 23.0511 77.2006 24.5227 76.9392 26.1477C76.6779 27.7159 76.6665 29.1364 76.9051 30.4091C77.1438 31.6818 77.6551 32.6932 78.4392 33.4432C79.2233 34.1932 80.3029 34.5682 81.6779 34.5682ZM107.967 4.09091L102.171 39H96.001L101.796 4.09091H107.967ZM112.608 30.7841L113.818 23.3352H114.807L126.006 12.8182H133.216L119.512 25.7045H118.25L112.608 30.7841ZM105.637 39L111.432 4.09091H117.603L111.807 39H105.637ZM122.068 39L115.523 27.0852L120.415 22.7386L129.449 39H122.068ZM130.085 39L134.448 12.8182H140.619L136.255 39H130.085ZM138.437 9.06818C137.448 9.06818 136.63 8.73864 135.982 8.07954C135.335 7.42045 135.051 6.63068 135.13 5.71023C135.21 4.78977 135.625 4 136.375 3.34091C137.136 2.68182 138.005 2.35227 138.982 2.35227C139.971 2.35227 140.784 2.68182 141.42 3.34091C142.068 4 142.352 4.78977 142.272 5.71023C142.204 6.63068 141.789 7.42045 141.028 8.07954C140.278 8.73864 139.414 9.06818 138.437 9.06818ZM157.158 12.8182L156.357 17.5909H141.323L142.107 12.8182H157.158ZM146.845 6.54545H153.016L148.925 31.125C148.8 31.9545 148.823 32.5909 148.993 33.0341C149.175 33.4659 149.465 33.7614 149.862 33.9205C150.271 34.0795 150.732 34.1591 151.243 34.1591C151.618 34.1591 151.97 34.1307 152.3 34.0739C152.629 34.0057 152.891 33.9545 153.084 33.9205L153.357 38.7443C152.982 38.858 152.476 38.983 151.84 39.1193C151.215 39.2557 150.465 39.3352 149.59 39.358C148.021 39.392 146.658 39.1534 145.499 38.642C144.351 38.1193 143.51 37.3182 142.976 36.2386C142.453 35.1477 142.334 33.7841 142.618 32.1477L146.845 6.54545Z" fill="#232323"/>
<path d="M169.354 9.88391H166.252L166.675 7.12027C166.781 6.44708 166.181 5.88018 165.547 6.0219L165.194 6.09277C164.806 6.16363 164.524 6.51794 164.453 6.90769L164.03 9.88391H160.998C160.716 9.88391 160.469 10.0611 160.364 10.3091L160.046 11.1949C159.87 11.62 160.223 12.1161 160.681 12.1161H163.713L163.29 14.8797C163.184 15.5529 163.784 16.1198 164.418 15.9781L164.771 15.9072C165.159 15.8364 165.441 15.4821 165.511 15.0923L165.934 12.1161H169.002C169.284 12.1161 169.531 11.9389 169.636 11.6909L169.954 10.8051C170.13 10.38 169.777 9.88391 169.319 9.88391H169.354Z" fill="#232323"/>
</svg>
