<svg width="28" height="28" viewBox="0 0 28 28" fill="none" xmlns="http://www.w3.org/2000/svg">
<g clip-path="url(#clip0_10688_21111)">
<path d="M16.8225 13.8867C16.4593 13.5366 15.9679 13.413 15.4552 13.1658C15.4552 13.0422 15.5834 13.0422 15.5834 13.0422C16.6943 12.4449 17.442 11.621 17.8052 10.3028C18.0616 9.23172 18.0616 8.28424 17.677 7.21318C17.4207 6.26571 16.8225 5.42122 15.9466 4.94748C15.1988 4.47374 14.3546 4.10299 13.5 4C13 3.99999 12.9983 4 12.9983 4H3.87592V11.2503C3.87592 11.3738 3.87592 11.4974 3.74774 11.6004C3.25637 12.5479 3 13.6189 3 14.5664C3.12818 14.4428 3.12818 14.3193 3.12818 14.2163C3.38455 12.898 4.23911 11.724 5.22185 10.7765C6.33278 9.82904 7.57189 9.10814 8.78963 8.6344C10.3919 8.03708 12.1224 7.56334 13.8529 7.0896C14.2161 7.0896 14.7074 6.96601 15.092 7.0896C15.3484 7.0896 15.3484 7.21318 15.2202 7.33677C14.7288 7.81051 14.3656 8.40783 14.1093 9.00515C13.6179 10.1998 13.4897 11.4974 13.3615 12.8157C13.2333 13.6395 13.2333 14.484 12.9983 15.1843C12.742 16.2554 12.2506 17.2029 11.2679 17.9238C10.2851 18.6447 8.91782 18.9949 7.70007 19.1184C7.2087 19.242 6.84551 19.242 6.33278 19.242C5.96959 20.3131 5.71322 21.3841 5.58504 22.5788C5.58504 22.826 5.45686 23.0525 5.22185 23.0525H4.73048C4.36729 23.0525 4.23911 22.8054 4.23911 22.5788C4.36729 22.105 4.36729 21.5077 4.49548 21.034C4.85866 19.4892 5.47822 18.068 6.35414 16.6262C7.82826 14.3605 9.55874 12.3419 11.5456 10.5499C11.631 10.5499 11.6738 10.5088 11.6738 10.4264H11.5456C10.4347 10.9001 9.45192 11.3738 8.57599 12.0947C6.35414 13.6395 4.88003 15.6581 3.7691 18.0474V24H13.1479C14.0024 23.8764 14.8784 23.7528 15.7329 23.4027C17.207 22.8054 18.1898 21.8579 18.7025 20.4367C18.9589 19.4892 19.0657 18.5417 18.9589 17.4706C18.8307 15.9258 18.1043 14.7312 16.8652 13.9073L16.8225 13.8867Z" fill="#232323"/>
<path d="M24 6.58461H23.2438L23.4971 4.93382C23.5605 4.5317 23.2016 4.19308 22.8215 4.27773L22.6104 4.32006C22.3781 4.36239 22.2092 4.57403 22.167 4.80683L21.9136 6.58461H20.0978C19.9289 6.58461 19.7811 6.69043 19.7177 6.83858L19.5277 7.36768C19.4221 7.62165 19.6333 7.91794 19.9078 7.91794H21.7236L21.4702 9.56874C21.4069 9.97085 21.7658 10.3095 22.1458 10.2248L22.357 10.1825C22.5892 10.1402 22.7581 9.92853 22.8004 9.69572L23.0537 7.91794H24.8907C25.0596 7.91794 25.2074 7.81212 25.2707 7.66398L25.4608 7.13487C25.5663 6.88091 25.4608 6.58461 25.1863 6.58461H24Z" fill="#E1A141"/>
</g>
<defs>
<clipPath id="clip0_10688_21111">
<rect width="23" height="21" fill="white" transform="translate(2.5 3.5)"/>
</clipPath>
</defs>
</svg>
