<?xml version="1.0" encoding="UTF-8"?>
<svg id="Capa_1" xmlns="http://www.w3.org/2000/svg" version="1.1" viewBox="0 0 170 44">
  <!-- Generator: Adobe Illustrator 29.7.1, SVG Export Plug-In . SVG Version: 2.1.1 Build 8)  -->
  <defs>
    <style>
      .st0 {
        fill: #232323;
      }
    </style>
  </defs>
  <path class="st0" d="M22.5,22.8h0c-.6-.6-1.4-.8-2.2-1.3,0-.2.2-.2.2-.2,1.8-1,3-2.4,3.6-4.7.4-1.8.4-3.4-.2-5.3-.4-1.6-1.4-3-2.8-3.9-1.2-.8-2.6-1.2-4-1.4-.2-.2-.6,0-.8-.2H1.4v12.3c0,.2,0,.4-.2.6-.8,1.6-1.2,3.4-1.2,5,.2-.2.2-.4.2-.6.4-2.2,1.8-4.2,3.4-5.8,1.8-1.6,3.8-2.8,5.8-3.6,2.6-1,5.4-1.8,8.2-2.6.6,0,1.4-.2,2,0,.4,0,.4.2.2.4-.8.8-1.4,1.8-1.8,2.8-.8,2-1,4.2-1.2,6.5-.2,1.4-.2,2.8-.6,4-.4,1.8-1.2,3.4-2.8,4.7-1.6,1.2-3.8,1.8-5.8,2-.8.2-1.4.2-2.2.2-.6,1.8-1,3.6-1.2,5.7,0,.4-.2.8-.6.8h-.8c-.6,0-.8-.4-.8-.8.2-.8.2-1.8.4-2.6.6-2.6,1.6-5,3-7.5,2.4-3.9,5.2-7.3,8.4-10.3.1,0,.2,0,.2-.2h-.2c-1.8.8-3.4,1.6-4.8,2.8-3.6,2.6-6,6.1-7.8,10.1v10.1h15.2c1.4-.2,2.8-.4,4.2-1,2.4-1,4-2.6,4.8-5,.4-1.6.6-3.2.4-5-.2-2.6-1.4-4.7-3.4-6.1Z"/>
  <path class="st0" d="M91.8,14.2c-1.7-1.1-3.8-1.7-6.4-1.7s-4.8.6-6.9,1.7c-2,1.1-3.7,2.7-5.1,4.7-1.3,2-2.2,4.4-2.7,7-.4,2.7-.3,5.1.4,7.2.7,2.1,1.9,3.7,3.6,4.8,1.7,1.1,3.9,1.7,6.4,1.7s4.8-.6,6.9-1.7c2-1.1,3.7-2.7,5.1-4.7,1.4-2,2.2-4.3,2.7-7,.4-2.7.3-5.1-.4-7.2-.7-2.1-1.9-3.7-3.6-4.8ZM89.6,25.8c-.3,1.6-.8,3.1-1.5,4.4-.7,1.3-1.6,2.4-2.7,3.2-1.1.8-2.3,1.2-3.8,1.2s-2.5-.4-3.2-1.1-1.3-1.8-1.5-3c-.2-1.3-.2-2.7,0-4.3.3-1.6.7-3.1,1.4-4.4.7-1.3,1.6-2.4,2.7-3.2,1.1-.8,2.4-1.2,3.8-1.2s2.4.4,3.2,1.1c.8.8,1.3,1.8,1.5,3.1.2,1.3.2,2.7,0,4.3Z"/>
  <path class="st0" d="M65.4,14.2c-1.7-1.1-3.8-1.7-6.4-1.7s-4.8.6-6.9,1.7c-2,1.1-3.7,2.7-5.1,4.7-1.3,2-2.2,4.4-2.7,7-.4,2.7-.3,5.1.4,7.2.7,2.1,1.9,3.7,3.6,4.8,1.7,1.1,3.9,1.7,6.4,1.7s4.8-.6,6.9-1.7c2-1.1,3.7-2.7,5.1-4.7,1.4-2,2.2-4.3,2.7-7,.4-2.7.3-5.1-.4-7.2-.7-2.1-1.9-3.7-3.6-4.8ZM63.3,25.8c-.3,1.6-.8,3.1-1.5,4.4-.7,1.3-1.6,2.4-2.7,3.2-1.1.8-2.3,1.2-3.8,1.2s-2.5-.4-3.2-1.1c-.8-.8-1.3-1.8-1.5-3-.2-1.3-.2-2.7,0-4.3.3-1.6.7-3.1,1.4-4.4.7-1.3,1.6-2.4,2.7-3.2,1.1-.8,2.4-1.2,3.8-1.2s2.4.4,3.2,1.1c.8.8,1.3,1.8,1.5,3.1.2,1.3.2,2.7,0,4.3Z"/>
  <path class="st0" d="M153,6.5h-6.2l-1,6.3h-3.7l-.8,4.8h3.7l-2.4,14.6c-.3,1.6-.2,3,.4,4.1.5,1.1,1.4,1.9,2.5,2.4,1.2.5,2.5.8,4.1.7.9,0,1.6-.1,2.2-.2.6-.1,1.1-.3,1.5-.4l-.3-4.8c-.2,0-.5,0-.8.2-.3,0-.7,0-1.1,0s-1,0-1.4-.2c-.4-.2-.7-.5-.9-.9-.2-.4-.2-1.1,0-1.9l2.3-13.5h5.2l.8-4.8h-5.2l1-6.3Z"/>
  <path class="st0" d="M40.9,34.1c-.3,0-.7,0-1.1,0s-1,0-1.4-.2c-.4-.2-.7-.5-.9-.9-.2-.4-.2-1.1,0-1.9l2.3-13.5h5.2l.8-4.8h-5.2l1-6.3h-6.2l-1,6.3h-3.7l-.8,4.8h3.7l-2.4,14.6c-.3,1.6-.2,3,.4,4.1.5,1.1,1.4,1.9,2.5,2.4,1.2.5,2.5.8,4.1.7.9,0,1.6-.1,2.2-.2.6-.1,1.1-.3,1.5-.4l-.3-4.8c-.2,0-.5,0-.8.2Z"/>
  <polygon class="st0" points="133.2 12.8 126 12.8 114.8 23.3 114.4 23.3 117.6 4.1 111.4 4.1 105.6 39 111.8 39 113.3 30.2 115.9 27.8 122.1 39 129.4 39 121.2 24.1 133.2 12.8"/>
  <path class="st0" d="M141.4,3.3c-.6-.7-1.4-1-2.4-1s-1.8.3-2.6,1c-.8.7-1.2,1.4-1.2,2.4,0,.9.2,1.7.9,2.4.6.7,1.5,1,2.5,1s1.8-.3,2.6-1c.8-.7,1.2-1.4,1.2-2.4,0-.9-.2-1.7-.9-2.4Z"/>
  <polygon class="st0" points="130.1 39 136.3 39 140.6 12.8 134.4 12.8 130.1 39"/>
  <polygon class="st0" points="101.8 4.1 96 39 102.2 39 108 4.1 101.8 4.1"/>
  <path class="st0" d="M169.3,9.9h-3.1l.4-2.8c.1-.7-.5-1.2-1.1-1.1h-.4c-.4.1-.7.5-.7.9l-.4,3h-3c-.3,0-.5.2-.6.4l-.3.9c-.2.4.2.9.6.9h3l-.4,2.8c-.1.7.5,1.2,1.1,1.1h.4c.4-.1.7-.5.7-.9l.4-3h3.1c.3,0,.5-.2.6-.4l.3-.9c.2-.4-.2-.9-.6-.9Z"/>
</svg>