<?xml version="1.0" encoding="UTF-8"?>
<svg id="Capa_1" xmlns="http://www.w3.org/2000/svg" version="1.1" viewBox="0 0 48 48">
  <!-- Generator: Adobe Illustrator 29.7.1, SVG Export Plug-In . SVG Version: 2.1.1 Build 8)  -->
  <path d="M24.9,45.5c-.2,0-.3,0-.5,0h-.4c-11.9,0-21.5-9.6-21.5-21.5S12.1,2.5,24,2.5s21.5,9.6,21.5,21.5-.7,7.7-6.3,8.5c-2.4.3-4.6.3-6.2.3-3.5,0-4.7,0-5.6,1.8-.7,1.4-.3,2,.6,3.4.7,1,1.5,2.3,1.5,3.9s-.5,2-.9,2.4c-1,1-2.4,1.1-3.7,1.1ZM24,5.5C13.8,5.5,5.5,13.8,5.5,24s8.3,18.5,18.5,18.5h.5c.5,0,1.8,0,2-.2h0s0,0,0-.3c0-.7-.4-1.3-1-2.2-1-1.5-2.3-3.4-.8-6.4s4.8-3.5,8.3-3.5,3.6,0,5.8-.3c2.9-.4,3.7-1.6,3.7-5.5,0-10.2-8.3-18.5-18.5-18.5Z"/>
  <path d="M14,31.5c-.7,0-1.3-.4-1.5-1.1-.2-.8.2-1.6,1-1.8h0c.8-.2,1.6.2,1.8,1,.2.8-.2,1.6-1,1.8-.1,0-.3,0-.4,0Z"/>
  <path d="M19,21.5c-2.5,0-4.5-2-4.5-4.5s2-4.5,4.5-4.5,4.5,2,4.5,4.5-2,4.5-4.5,4.5ZM19,15.5c-.8,0-1.5.7-1.5,1.5s.7,1.5,1.5,1.5,1.5-.7,1.5-1.5-.7-1.5-1.5-1.5Z"/>
  <path d="M33,23.5c-2.5,0-4.5-2-4.5-4.5s2-4.5,4.5-4.5,4.5,2,4.5,4.5-2,4.5-4.5,4.5ZM33,17.5c-.8,0-1.5.7-1.5,1.5s.7,1.5,1.5,1.5,1.5-.7,1.5-1.5-.7-1.5-1.5-1.5Z"/>
</svg>