<svg width="124" height="28" viewBox="0 0 124 28" fill="none" xmlns="http://www.w3.org/2000/svg">
<path d="M80.8461 10.1165C80.4661 8.9736 79.7904 8.06354 78.8403 7.42862C77.8902 6.7937 76.6867 6.45508 75.2509 6.45508C73.8151 6.45508 72.5483 6.77254 71.4082 7.3863C70.268 8.00005 69.3179 8.86778 68.5789 10.0106C67.8399 11.1323 67.3331 12.4445 67.1009 13.9471C66.8475 15.471 66.932 16.8043 67.312 17.9471C67.6921 19.09 68.3677 20.0001 69.3179 20.635C70.268 21.2699 71.4715 21.5874 72.9284 21.5874C74.3852 21.5874 75.631 21.2699 76.75 20.6561C77.8902 20.0424 78.8192 19.1535 79.5793 18.0318C80.3394 16.9101 80.825 15.5979 81.0784 14.1165C81.3317 12.5926 81.2473 11.2381 80.8672 10.0953L80.8461 10.1165ZM77.6157 13.9471C77.4679 14.8572 77.1934 15.6826 76.7922 16.4233C76.4122 17.1641 75.9054 17.7567 75.2931 18.1799C74.6808 18.6032 73.9841 18.836 73.1817 18.836C72.3794 18.836 71.8093 18.6244 71.3659 18.2011C70.9225 17.7778 70.648 17.2064 70.5002 16.508C70.3736 15.7884 70.3736 15.0053 70.5002 14.1165C70.648 13.2064 70.9225 12.381 71.3026 11.6403C71.6826 10.8995 72.1894 10.3069 72.8017 9.86249C73.414 9.41804 74.1319 9.18524 74.9342 9.18524C75.7365 9.18524 76.3066 9.39688 76.7289 9.82016C77.1723 10.2434 77.4468 10.8149 77.5946 11.5344C77.7212 12.254 77.7212 13.0371 77.5946 13.926L77.6157 13.9471Z" fill="#232323"/>
<path d="M90.5369 9.60835C90.8537 9.65068 91.0859 9.69301 91.2126 9.73533L91.7404 6.56073C91.5715 6.5184 91.3815 6.49724 91.1493 6.49724C90.917 6.49724 90.7059 6.47607 90.5158 6.47607C89.6713 6.47607 88.8901 6.70888 88.1511 7.17449C87.4121 7.6401 86.8631 8.27502 86.4619 9.12158H86.3141L86.7153 6.68771H83.3793L80.9512 21.3544H84.3928L85.8074 12.7406C85.913 12.1269 86.1452 11.5766 86.5253 11.0898C86.8842 10.6031 87.3487 10.2433 87.8766 9.96814C88.4255 9.69301 88.9956 9.56602 89.629 9.56602C90.2625 9.56602 90.2202 9.58719 90.5369 9.62951V9.60835Z" fill="#232323"/>
<path d="M39.7791 7.76716C39.0612 6.92059 38.0478 6.49731 36.7176 6.49731C35.3874 6.49731 34.6906 6.73012 33.825 7.21689C32.9804 7.70366 32.3259 8.35975 31.8613 9.16398H31.7136C31.5658 8.33858 31.2068 7.6825 30.5945 7.21689C29.9822 6.73012 29.201 6.49731 28.2086 6.49731C27.2163 6.49731 26.3506 6.73012 25.5694 7.21689C24.7881 7.6825 24.1758 8.33858 23.7324 9.18515H23.5424L23.9647 6.68779H20.6498L18.2217 21.3545H21.6844L23.1624 12.4444C23.2679 11.8518 23.458 11.3227 23.7747 10.8783C24.0914 10.4127 24.4714 10.0529 24.9359 9.7989C25.3793 9.54493 25.865 9.41795 26.3506 9.41795C27.0896 9.41795 27.6385 9.65075 28.0186 10.0952C28.3986 10.5396 28.5253 11.1534 28.4198 11.9153L26.8362 21.3756H30.2145L31.7558 12.2328C31.8825 11.4074 32.2203 10.7301 32.7693 10.201C33.3182 9.69308 34.015 9.41795 34.8384 9.41795C35.6619 9.41795 36.0842 9.62959 36.5064 10.0529C36.9287 10.4762 37.0554 11.1322 36.9287 12.0423L35.3663 21.3545H38.8079L40.4548 11.5132C40.7292 9.88356 40.5181 8.63488 39.8002 7.78832L39.7791 7.76716Z" fill="#232323"/>
<path d="M65.1157 6.66667L59.8794 17.7566H59.7316L58.2114 6.66667H54.6854L57.4935 21.5873L57.0501 22.3704C56.7334 22.9206 56.4167 23.3228 56.0789 23.5556C55.7622 23.8095 55.4032 23.9365 55.0021 23.9577C54.622 23.9577 54.1997 23.9153 53.7141 23.7672L52.4473 26.455C52.6795 26.5609 52.9751 26.6243 53.3552 26.709C53.7352 26.7937 54.1786 26.8148 54.6431 26.8148C55.5299 26.8148 56.3323 26.6667 57.029 26.3704C57.7258 26.0741 58.3592 25.6508 58.9082 25.1005C59.4571 24.5503 59.9427 23.873 60.3439 23.0688L68.9162 6.64551H65.1157V6.66667Z" fill="#232323"/>
<path d="M53.8614 9.07942C53.6292 8.42333 53.2491 7.9154 52.7213 7.53444C52.2145 7.15349 51.6234 6.87836 50.9477 6.70905C50.2721 6.53973 49.5964 6.45508 48.8996 6.45508C47.8862 6.45508 46.9149 6.60323 46.007 6.92069C45.1202 7.21698 44.3179 7.66143 43.6422 8.27518C42.9666 8.86778 42.4176 9.60852 42.0165 10.5186L45.1413 10.9842C45.3947 10.4762 45.817 10.053 46.3871 9.67201C46.9571 9.31222 47.6539 9.12174 48.4985 9.12174C49.343 9.12174 49.8709 9.31222 50.2087 9.71434C50.5465 10.1165 50.6732 10.6667 50.5465 11.3863V11.4498C50.4832 11.7672 50.3143 12.0212 50.0609 12.1694C49.7864 12.3175 49.3853 12.4445 48.8363 12.508C48.2873 12.5926 47.5906 12.6773 46.7038 12.762C45.9859 12.8466 45.2891 12.9524 44.5924 13.1217C43.9167 13.2911 43.2622 13.545 42.6921 13.8625C42.122 14.1799 41.6153 14.6244 41.2352 15.1535C40.8341 15.7038 40.5807 16.381 40.4329 17.2064C40.264 18.1588 40.3485 18.9842 40.6652 19.6403C40.9819 20.2963 41.4886 20.7831 42.1854 21.1217C42.861 21.4604 43.6845 21.6085 44.6135 21.6085C45.5425 21.6085 46.0492 21.5027 46.6616 21.2911C47.2739 21.0794 47.7806 20.7831 48.224 20.4445C48.6674 20.0847 49.0263 19.7038 49.3008 19.3016H49.4064L49.0686 21.3122H52.3835L54.0092 11.4921C54.1782 10.5186 54.1359 9.71434 53.8826 9.05825L53.8614 9.07942ZM49.7864 16.0635C49.702 16.6138 49.4697 17.1006 49.1108 17.5662C48.7518 18.0318 48.3085 18.3916 47.7384 18.6667C47.1894 18.9418 46.556 19.0688 45.8803 19.0688C45.2047 19.0688 44.5924 18.8995 44.1912 18.5821C43.79 18.2434 43.6422 17.7778 43.7478 17.1429C43.8112 16.6985 44.0012 16.3387 44.2757 16.0635C44.5713 15.7672 44.9302 15.5556 45.3525 15.3863C45.7959 15.217 46.2815 15.1112 46.8094 15.0477C47.0416 15.0053 47.3161 14.9842 47.6328 14.9418C47.9495 14.8995 48.2662 14.836 48.604 14.7937C48.9419 14.7302 49.2375 14.6667 49.4908 14.6032C49.7653 14.5186 49.9553 14.4339 50.082 14.3493L49.7864 16.0847V16.0635Z" fill="#232323"/>
<path d="M115.515 7.44962C114.565 6.8147 113.361 6.47607 111.926 6.47607C110.49 6.47607 109.223 6.79353 108.083 7.40729C106.943 8.02105 106.014 8.88877 105.254 10.0316C104.515 11.1533 104.008 12.4655 103.776 13.9681C103.522 15.4919 103.607 16.8253 103.987 17.9681C104.367 19.111 105.043 20.021 105.993 20.656C106.943 21.2909 108.146 21.6083 109.603 21.6083C111.06 21.6083 112.306 21.2909 113.425 20.6771C114.565 20.0634 115.494 19.1745 116.254 18.0528C117.014 16.9311 117.5 15.6189 117.753 14.1375C118.007 12.6136 117.922 11.2591 117.542 10.1163C117.162 8.97343 116.486 8.06338 115.536 7.42845L115.515 7.44962ZM114.29 13.947C114.143 14.857 113.868 15.6824 113.467 16.4232C113.087 17.1639 112.58 17.7565 111.968 18.1798C111.356 18.6031 110.659 18.8359 109.857 18.8359C109.054 18.8359 108.484 18.6242 108.041 18.2009C107.597 17.7777 107.323 17.2062 107.175 16.5078C107.048 15.7882 107.048 15.0052 107.175 14.1163C107.323 13.2062 107.597 12.3808 107.977 11.6401C108.357 10.8994 108.864 10.3068 109.476 9.86232C110.089 9.41787 110.807 9.18507 111.609 9.18507C112.411 9.18507 112.981 9.39671 113.404 9.81999C113.847 10.2433 114.122 10.8147 114.269 11.5343C114.396 12.2539 114.396 13.0369 114.269 13.9258L114.29 13.947Z" fill="#232323"/>
<path d="M102.298 8.25385C101.77 7.6401 101.136 7.19565 100.376 6.92052C99.616 6.62422 98.7926 6.47607 97.8847 6.47607C96.4912 6.47607 95.2243 6.79353 94.0842 7.44962C92.944 8.08454 91.9939 8.97343 91.2338 10.1163C90.4737 11.2591 89.9669 12.5713 89.7135 14.0951C89.4602 15.6189 89.5235 16.9523 89.9036 18.0951C90.2836 19.2168 90.9593 20.0845 91.9305 20.7195C92.8807 21.3332 94.1053 21.6295 95.5621 21.6295C97.019 21.6295 97.7369 21.4602 98.687 21.1216C99.6371 20.7618 100.439 20.275 101.115 19.6613C101.791 19.0263 102.298 18.2856 102.656 17.4179L99.5105 17.0581C99.2782 17.4814 99.0037 17.82 98.6448 18.1163C98.307 18.3914 97.9269 18.6031 97.4835 18.7512C97.0612 18.8994 96.5756 18.9628 96.0689 18.9628C95.2877 18.9628 94.6542 18.8359 94.1475 18.5607C93.6408 18.2856 93.2818 17.8623 93.0707 17.2909C92.8595 16.7195 92.8384 15.9576 92.9651 15.0475V15.0052H103.184L103.353 13.947C103.564 12.656 103.585 11.5554 103.374 10.6242C103.184 9.69301 102.825 8.90994 102.298 8.31734V8.25385ZM100.228 12.6136H93.3874C93.5141 12.0634 93.7463 11.5343 94.1053 11.0263C94.5064 10.4761 94.9921 10.0316 95.5833 9.693C96.1744 9.33322 96.8079 9.1639 97.4835 9.1639C98.1592 9.1639 98.7081 9.31205 99.1515 9.60835C99.5949 9.90465 99.9116 10.3279 100.102 10.8359C100.292 11.3438 100.334 11.9364 100.207 12.5925L100.228 12.6136Z" fill="#232323"/>
<path d="M14.8639 11.3228C14.505 10.963 14.0193 10.836 13.5126 10.5821C13.5126 10.4551 13.6393 10.4551 13.6393 10.4551C14.7372 9.84131 15.4762 8.99475 15.8352 7.64025C16.0885 6.53972 16.0885 5.56618 15.7085 4.46565C15.4551 3.4921 14.8639 2.62438 13.9982 2.13761C13.2592 1.65084 12.4147 1.39687 11.5701 1.29105C11.4434 1.16406 11.2112 1.29105 11.0845 1.16406H2.0688V8.6138C2.0688 8.74078 2.0688 8.86777 1.94212 8.97359C1.45649 9.94713 1.20312 11.0477 1.20312 12.0212C1.32981 11.8942 1.32981 11.7672 1.32981 11.6614C1.58318 10.3069 2.42774 9.10057 3.39899 8.12703C4.49692 7.15348 5.72153 6.41274 6.92503 5.92597C8.50858 5.31221 10.2188 4.82544 11.9291 4.33867C12.288 4.33867 12.7736 4.21168 13.1537 4.33867C13.407 4.33867 13.407 4.46565 13.2804 4.59263C12.7947 5.07941 12.4358 5.69316 12.1824 6.30692C11.6968 7.53443 11.5701 8.86777 11.4434 10.2223C11.3168 11.0688 11.3168 11.9365 11.0845 12.6561C10.8311 13.7567 10.3455 14.7302 9.37426 15.4709C8.40301 16.2117 7.05171 16.5715 5.84821 16.6985C5.36259 16.8254 5.00365 16.8254 4.49692 16.8254C4.13798 17.926 3.88461 19.0265 3.75792 20.254C3.75792 20.508 3.63124 20.7408 3.39899 20.7408H2.91336C2.55442 20.7408 2.42774 20.4868 2.42774 20.254C2.55442 19.7672 2.55442 19.1535 2.68111 18.6667C3.04005 17.0794 3.65235 15.6191 4.51803 14.1376C5.9749 11.8096 7.68514 9.73549 9.64874 7.89422C9.7332 7.89422 9.77543 7.85189 9.77543 7.76724H9.64874C8.55081 8.25401 7.57957 8.74078 6.71389 9.48152C4.51803 11.0688 3.06116 13.1429 1.96323 15.5979V21.7143H11.2323C12.0769 21.5873 12.9425 21.4604 13.7871 21.1006C15.244 20.4868 16.2152 19.5133 16.7219 18.0529C16.9753 17.0794 17.0809 16.1059 16.9753 15.0053C16.8486 13.418 16.1308 12.1905 14.9061 11.344L14.8639 11.3228Z" fill="#232323"/>
<path d="M121.448 4.08461H119.589L119.843 2.43382C119.906 2.0317 119.547 1.69308 119.167 1.77773L118.956 1.82006C118.724 1.86239 118.555 2.07403 118.513 2.30683L118.259 4.08461H116.443C116.275 4.08461 116.127 4.19043 116.063 4.33858L115.873 4.86768C115.768 5.12165 115.979 5.41794 116.253 5.41794H118.069L117.816 7.06874C117.753 7.47085 118.111 7.80948 118.492 7.72482L118.703 7.68249C118.935 7.64017 119.104 7.42853 119.146 7.19572L119.399 5.41794H121.236C121.405 5.41794 121.553 5.31212 121.616 5.16398L121.806 4.63487C121.912 4.38091 121.701 4.08461 121.426 4.08461H121.448Z" fill="#232323"/>
</svg>
