<?xml version="1.0" encoding="UTF-8"?>
<svg id="Capa_1" xmlns="http://www.w3.org/2000/svg" xmlns:xlink="http://www.w3.org/1999/xlink" version="1.1" viewBox="0 0 54 54">
  <!-- Generator: Adobe Illustrator 29.5.1, SVG Export Plug-In . SVG Version: 2.1.0 Build 141)  -->
  <defs>
    <style>
      .st0, .st1, .st2, .st3, .st4, .st5, .st6, .st7, .st8, .st9, .st10 {
        fill: none;
      }

      .st11, .st12, .st13 {
        fill: #e1a141;
      }

      .st14 {
        fill: #c79022;
      }

      .st1 {
        stroke-width: 1px;
      }

      .st1, .st2, .st3, .st4, .st5, .st6, .st15, .st16, .st17, .st18, .st19, .st20, .st21, .st22 {
        stroke: #c79022;
      }

      .st1, .st2, .st3, .st5, .st6, .st15, .st16, .st7, .st8, .st18, .st19, .st20, .st10, .st13 {
        stroke-linecap: round;
      }

      .st1, .st2, .st5, .st6, .st15, .st16, .st7, .st8, .st18, .st19, .st20, .st10, .st13 {
        stroke-linejoin: round;
      }

      .st2 {
        stroke-width: .9px;
      }

      .st3, .st4, .st5, .st16, .st7, .st8, .st9, .st19, .st12, .st10, .st13 {
        stroke-width: .5px;
      }

      .st3, .st4, .st9, .st17, .st12, .st21, .st22 {
        stroke-miterlimit: 10;
      }

      .st23, .st15, .st16, .st17 {
        fill: #e5e6c8;
      }

      .st6 {
        stroke-width: .4px;
      }

      .st24 {
        fill: #f1f0ec;
      }

      .st15, .st20 {
        stroke-width: .5px;
      }

      .st7 {
        stroke-dasharray: 1.9 1.9;
      }

      .st7, .st8, .st9, .st12, .st13 {
        stroke: #fff;
      }

      .st25, .st18, .st19, .st20, .st21, .st22 {
        fill: #fff;
      }

      .st17, .st22 {
        stroke-width: .5px;
      }

      .st18 {
        stroke-width: 1.2px;
      }

      .st21 {
        stroke-width: .5px;
      }

      .st10 {
        stroke: #e1a141;
      }

      .st26 {
        clip-path: url(#clippath);
      }
    </style>
    <clipPath id="clippath">
      <rect class="st0" x="50" y="71.5" width="40" height="40"/>
    </clipPath>
  </defs>
  <rect class="st11" x="-164.3" y="67.9" width="81.8" height="88"/>
  <rect class="st24" x="-74.4" y="68.4" width="58.6" height="51.7" rx="4" ry="4"/>
  <rect class="st24" x="-74.4" y="183.5" width="249.6" height="51.7" rx="4" ry="4"/>
  <g>
    <path class="st25" d="M13,21.2l12-1c.3,0,.7-.3.6-.8l-.2-.9c0-.3-.3-.6-.7-.5l-12.6.9c-.5,0-.8.6-.5,1l.8,1c.2.2.3.3.6.3Z"/>
    <path class="st19" d="M27.9,38.5l7.7,2.7c.6.3.5,1,0,1.2l-4.9,1.7c-.5.2-1,0-1.5,0l-15.2-4.6c-.5-.2-.9-.8-.6-1.3l.9-2c.3-.5.8-.9,1.4-.8l14.1,1.8h.3l7.2-1.9c.3,0,.4-.3.5-.5l1.7-7.4c0-.4,0-.9-.5-1.1l-11.3-5.9c-.3-.2-.6-.5-.7-.9l-.2-1.1c0-.7-.7-1.1-1.4-1.1l-12.8.9c-.8,0-1.2.9-.8,1.5l.8,1c.2.2.3.3.6.4l16.1,6.8c.4.2.9.3,1.5.2l6.8-1.2"/>
    <path class="st16" d="M29.7,11.2l1.6-.5c.6-.2,1.2.1,1.4.7l.7,1.5c.2.5.6.8,1.1,1l1.6.6c.6.2.9.8.8,1.4l-.3,1.6c0,.5,0,1.1.3,1.5l.9,1.4c.3.5.3,1.2-.2,1.6l-1.2,1.1c-.4.4-.6.9-.6,1.4v1.7c0,.6-.5,1.1-1.1,1.2l-1.7.2c-.5,0-1,.3-1.3.7l-1,1.3c-.4.5-1,.6-1.6.3l-1.5-.8c-.5-.3-1-.3-1.5-.2l-1.6.5c-.6.2-1.2-.1-1.4-.7l-.7-1.5c-.2-.5-.6-.8-1.1-1l-1.6-.6c-.6-.2-.9-.8-.8-1.4l.3-1.6c.1-.5,0-1.1-.3-1.5l-.9-1.4c-.3-.5-.3-1.2.2-1.6l1.2-1.1c.4-.4.6-.9.6-1.4v-1.7c0-.6.5-1.1,1.1-1.2l1.7-.2c.5,0,1-.3,1.3-.7l1-1.3c.4-.5,1-.6,1.6-.3l1.5.8c.5.3,1,.3,1.5.2Z"/>
    <path class="st19" d="M28.6,10.6l1.8-.5c.5-.2,1.1,0,1.3.6l.8,1.7c.2.4.6.8,1,.9l1.8.6c.5.2.8.7.7,1.2l-.4,1.8c0,.5,0,.9.3,1.3l1.1,1.5c.3.4.2,1-.2,1.4l-1.4,1.3c-.3.3-.5.8-.6,1.2v1.9c0,.5-.5,1-1,1l-1.9.2c-.5,0-.9.3-1.2.7l-1.1,1.5c-.3.4-.9.5-1.4.3l-1.6-.9c-.4-.2-.9-.3-1.3-.2l-1.8.5c-.5.2-1.1,0-1.3-.6l-.8-1.7c-.2-.4-.6-.8-1-.9l-1.8-.6c-.5-.2-.8-.7-.7-1.2l.4-1.8c0-.5,0-.9-.3-1.3l-1.1-1.5c-.3-.4-.2-1,.2-1.4l1.4-1.3c.3-.3.5-.8.6-1.2v-1.9c0-.5.5-1,1-1l1.9-.2c.5,0,.9-.3,1.2-.7l1.1-1.5c.3-.4.9-.5,1.4-.3l1.6.9c.4.2.9.3,1.3.2Z"/>
    <polygon class="st25" points="15.8 22.2 29.3 27.9 29.8 28.1 30.7 28 33.2 27.6 33.2 30.6 26.8 30.6 22.2 30.6 16.7 30.6 15.8 22.2"/>
    <g>
      <circle class="st19" cx="23.9" cy="17.1" r="2.2"/>
      <circle class="st19" cx="29.7" cy="23" r="2.2"/>
      <line class="st5" x1="23.1" y1="25.2" x2="30.6" y2="14.7"/>
    </g>
    <path class="st19" d="M31.3,17.5"/>
    <path class="st19" d="M13,23l2.9,12.4"/>
    <path class="st19" d="M20.8,26.4l.8,8.2"/>
    <path class="st5" d="M16.7,24.6l1.8,9.8M33.2,29.6l-.8,5.2M25,28.1l.5,6.6M36.1,29.1l-.9,5.2M36.8,30.2l-6.6,1.5h-1.5l-14.8-5M36.3,33.5l-6.2,1.4h-1.1c-4.7-1.2-9.3-2.4-14-3.6"/>
    <path class="st19" d="M30.7,46.7c0,.3,0,.6-.3.9-.2.2-.3.3-.6.3s-.4,0-.6-.3c-.2-.2-.3-.5-.3-.9s0-.6.3-.9c.2-.2.3-.3.6-.3s.4,0,.6.3c.2.2.3.5.3.9Z"/>
    <path class="st19" d="M36.5,44.8c0,.3,0,.6-.3.9-.2.2-.3.3-.6.3s-.4,0-.6-.3c-.2-.2-.3-.5-.3-.9s0-.6.3-.9c.2-.2.3-.3.6-.3s.4,0,.6.3c.2.2.3.5.3.9Z"/>
    <path class="st19" d="M26.6,39.8c0,.3,0,.6-.3.9-.2.2-.3.3-.6.3s-.4,0-.6-.3c-.2-.2-.3-.5-.3-.9s0-.6.3-.9c.2-.2.3-.3.6-.3s.4,0,.6.3c.2.2.3.5.3.9Z"/>
    <path class="st19" d="M15.4,42.1c0,.3,0,.6-.3.9-.2.2-.3.3-.6.3s-.4,0-.6-.3c-.2-.2-.3-.5-.3-.9s0-.6.3-.9c.2-.2.3-.3.6-.3s.4,0,.6.3c.2.2.3.5.3.9Z"/>
    <path class="st5" d="M16,17.9l-3.4.2c-.8,0-1.2.9-.8,1.5l.8,1c.2.2.3.3.6.4l16.1,6.8c.4.2.9.3,1.5.2l6.8-1.2"/>
    <path class="st19" d="M18,20.6l-4.8.5"/>
  </g>
  <g>
    <path class="st25" d="M65.3,21.9l12-1c.3,0,.7-.3.6-.8l-.2-.9c0-.3-.3-.6-.7-.5l-12.6.9c-.5,0-.8.6-.5,1l.8,1c.2.2.3.3.6.3Z"/>
    <path class="st5" d="M80,39.3l7.7,2.7c.6.3.5,1,0,1.2l-4.9,1.7c-.5.2-1,0-1.5,0l-15.2-4.6c-.5-.2-.9-.8-.6-1.3l.9-2c.3-.5.8-.9,1.4-.8l14.1,1.8h.3l7.2-1.9c.3,0,.4-.3.5-.5l1.7-7.4c0-.4,0-.9-.5-1.1l-11.3-5.9c-.3-.2-.6-.5-.7-.9l-.2-1.1c0-.7-.7-1.1-1.4-1.1l-12.8.9c-.8,0-1.2.9-.8,1.5l.8,1c.2.2.3.3.6.4l16.1,6.8c.4.2.9.3,1.5.2l6.8-1.2"/>
    <path class="st16" d="M81.8,12l1.6-.5c.6-.2,1.2.1,1.4.7l.7,1.5c.2.5.6.8,1.1,1l1.6.6c.6.2.9.8.8,1.4l-.3,1.6c0,.5,0,1.1.3,1.5l.9,1.4c.3.5.3,1.2-.2,1.6l-1.2,1.1c-.4.4-.6.9-.6,1.4v1.7c0,.6-.5,1.1-1.1,1.2l-1.7.2c-.5,0-1,.3-1.3.7l-1,1.3c-.4.5-1,.6-1.6.3l-1.5-.8c-.5-.3-1-.3-1.5-.2l-1.6.5c-.6.2-1.2-.1-1.4-.7l-.7-1.5c-.2-.5-.6-.8-1.1-1l-1.6-.6c-.6-.2-.9-.8-.8-1.4l.3-1.6c0-.5,0-1.1-.3-1.5l-.9-1.4c-.3-.5-.3-1.2.2-1.6l1.2-1.1c.4-.4.6-.9.6-1.4v-1.7c0-.6.5-1.1,1.1-1.2l1.7-.2c.5,0,1-.3,1.3-.7l1-1.3c.4-.5,1-.6,1.6-.3l1.5.8c.5.3,1,.3,1.5.2Z"/>
    <path class="st19" d="M80.6,11.4l1.8-.5c.5-.2,1.1,0,1.3.6l.8,1.7c.2.4.6.8,1,.9l1.8.6c.5.2.8.7.7,1.2l-.4,1.8c0,.5,0,.9.3,1.3l1.1,1.5c.3.4.2,1-.2,1.4l-1.4,1.3c-.3.3-.5.8-.6,1.2v1.9c0,.5-.5,1-1,1l-1.9.2c-.5,0-.9.3-1.2.7l-1.1,1.5c-.3.4-.9.5-1.4.3l-1.6-.9c-.4-.2-.9-.3-1.3-.2l-1.8.5c-.5.2-1.1,0-1.3-.6l-.8-1.7c-.2-.4-.6-.8-1-.9l-1.8-.6c-.5-.2-.8-.7-.7-1.2l.4-1.8c0-.5,0-.9-.3-1.3l-1.1-1.5c-.3-.4-.2-1,.2-1.4l1.4-1.3c.3-.3.5-.8.6-1.2v-1.9c0-.5.5-1,1-1l1.9-.2c.5,0,.9-.3,1.2-.7l1.1-1.5c.3-.4.9-.5,1.4-.3l1.6.9c.4.2.9.3,1.3.2Z"/>
    <polygon class="st25" points="67.9 22.9 81.4 28.7 81.9 28.9 82.8 28.8 85.3 28.4 85.3 31.4 78.9 31.4 74.3 31.4 68.8 31.4 67.9 22.9"/>
    <g>
      <circle class="st19" cx="76" cy="17.9" r="2.2"/>
      <circle class="st19" cx="81.7" cy="23.8" r="2.2"/>
      <line class="st5" x1="75.2" y1="26" x2="82.7" y2="15.5"/>
    </g>
    <path class="st19" d="M83.4,18.3"/>
    <path class="st19" d="M65.1,23.8l2.9,12.4"/>
    <path class="st19" d="M72.9,27.2l.8,8.2"/>
    <path class="st5" d="M68.8,25.4l1.8,9.8M85.3,30.4l-.8,5.2M77.1,28.9l.5,6.6M88.2,29.9l-.9,5.2M88.9,31l-6.6,1.5h-1.5l-14.8-5M88.4,34.3l-6.2,1.4h-1.1c-4.7-1.2-9.3-2.4-14-3.6"/>
    <path class="st5" d="M82.8,47.5c0,.3,0,.6-.3.9-.2.2-.3.3-.6.3s-.4,0-.6-.3c-.2-.2-.3-.5-.3-.9s0-.6.3-.9c.2-.2.3-.3.6-.3s.4,0,.6.3c.2.2.3.5.3.9Z"/>
    <path class="st5" d="M88.6,45.6c0,.3,0,.6-.3.9-.2.2-.3.3-.6.3s-.4,0-.6-.3c-.2-.2-.3-.5-.3-.9s0-.6.3-.9c.2-.2.3-.3.6-.3s.4,0,.6.3c.2.2.3.5.3.9Z"/>
    <path class="st5" d="M78.7,40.6c0,.3,0,.6-.3.9-.2.2-.3.3-.6.3s-.4,0-.6-.3c-.2-.2-.3-.5-.3-.9s0-.6.3-.9c.2-.2.3-.3.6-.3s.4,0,.6.3c.2.2.3.5.3.9Z"/>
    <path class="st5" d="M67.5,42.9c0,.3,0,.6-.3.9-.2.2-.3.3-.6.3s-.4,0-.6-.3c-.2-.2-.3-.5-.3-.9s0-.6.3-.9c.2-.2.3-.3.6-.3s.4,0,.6.3c.2.2.3.5.3.9Z"/>
    <path class="st5" d="M68.1,18.7l-3.4.2c-.8,0-1.2.9-.8,1.5l.8,1c.2.2.3.3.6.4l16.1,6.8c.4.2.9.3,1.5.2l6.8-1.2"/>
    <path class="st19" d="M70.1,21.4l-4.8.5"/>
  </g>
  <g>
    <path class="st19" d="M117.1,18.3"/>
    <g>
      <path class="st0" d="M100,22l3.7,1.5.2-.9c0-.3,0-.7-.2-1l-3.7.4Z"/>
      <path class="st0" d="M102.5,20c-.2-.3-.3-.7-.2-1h-.5l-3.4.2c-.3,0-.5.1-.6.4,0,.2,0,.5,0,.7l.8,1q.2.2.4.3l4.3-.4s-.8-1.2-.8-1.2Z"/>
      <path class="st0" d="M121.4,44.6q-.2,0-.4.2c-.2.2-.2.3-.2.7s0,.6.2.7c.1.1.3.2.4.2q.2,0,.4-.2c.2-.2.2-.4.2-.7s0-.6-.2-.7c-.1-.1-.3-.2-.4-.2Z"/>
      <polygon class="st0" points="109.2 25.9 109.2 25.9 112.8 20.9 109.2 25.9"/>
      <polygon class="st0" points="121.3 31.5 119 32 118.5 34.8 120.8 34.3 121.3 31.5"/>
      <path class="st0" d="M115.6,46.5q-.2,0-.4.2c-.2.2-.2.3-.2.7s0,.6.2.7c.1.1.3.2.4.2q.2,0,.4-.2c.2-.2.2-.4.2-.7s0-.6-.2-.7c-.1-.1-.3-.2-.4-.2Z"/>
      <path class="st0" d="M100.3,41.9q-.2,0-.4.2c-.2.2-.2.3-.2.7s0,.6.2.7c.1.1.3.2.4.2q.2,0,.4-.2c.2-.2.2-.4.2-.7s0-.6-.2-.7c-.1-.1-.3-.2-.4-.2Z"/>
      <path class="st0" d="M106.9,33.4l-.3-3.3-3.2-1.1.7,3.7c1,.2,1.9.5,2.9.7h0Z"/>
      <path class="st0" d="M102.8,28.8l-2.9-1,.9,4c.9.2,1.7.4,2.6.7l-.7-3.7h0Z"/>
      <path class="st0" d="M107.7,33.6c1.1.3,2.2.6,3.2.8l-.2-3-3.6-1.2.3,3.3h.3,0Z"/>
      <path class="st0" d="M111.5,39.6q-.2,0-.4.2c-.2.2-.2.3-.2.7s0,.6.2.7c.1.1.3.2.4.2q.2,0,.4-.2c.2-.2.2-.4.2-.7s0-.6-.2-.7c-.1-.1-.3-.2-.4-.2Z"/>
      <path class="st0" d="M114.8,35.4h1l2.1-.5.4-2.8-2.4.5h-1.6l-3.2-1.1.2,2.9c1.1.3,2.2.6,3.4.9h0Z"/>
      <path class="st25" d="M124.9,26.8l-3-1.6h0c0-.5.2-.9.5-1.2l1.2-1.1c.5-.5.6-1.3.2-1.9l-.9-1.4c-.3-.4-.4-.8-.3-1.3l.3-1.6c0-.7-.3-1.4-.9-1.7h-.4c0-.3-.3-.5-.6-.6l-1.3-.5c0-.1-.2-.3-.3-.4l-.7-1.5c-.2-.5-.7-.8-1.2-.8-.3-.5-.9-.7-1.5-.6l-1.8.5c-.4.1-.8,0-1.1-.1l-.5-.3h0l-1.1-.6c-.6-.3-1.3-.2-1.7.4l-1.1,1.5c-.2.3-.6.5-1,.6l-1.9.2c-.7,0-1.2.6-1.2,1.3v1.9c0,.4-.2.8-.5,1.1l-1.4,1.3s0,.1,0,.2h-.8l-3.4.2c-.5,0-.8.2-1.1.6-.2.4-.2.9,0,1.3l.8,1c.2.2.3.3.7.5l16.1,6.8c.2,0,.3.1.5.2h1l6.8-1.2c0,0,.2-.2.2-.3s0-.2-.3-.2l-1.8.3c.2-.2.3-.5.3-.8v-1.1l2.9,1.5c.3.1.3.4.3.8l-1.7,7.3h0c0,.3,0,.4-.2.4s0,0,0,0l-7.2,1.9h-.2l-13.7-1.8-.8-3.6c.9.2,1.7.4,2.6.7l.4,2.2c0,0,.2.2.3.2s.2-.2.2-.3l-.4-1.9c.9.2,1.9.5,2.8.7v1.5c.2,0,.3.2.4.2s0,0,0,0c0,0,.2,0,.2-.3v-1.3h0c1.1.3,2.3.6,3.4.9v.5c0,0,.2.3.3.2,0,0,.2,0,.2-.3v-.4c1.1.3,2.1.6,3.3.8h1.2l2-.5h0c0,.2,0,.3.2.4,0,0,.3,0,.3-.2v-.3l2.3-.5v.2c0,0,0,.3.2.3s.3,0,.3-.2v-.4l.9-.2c0,0,.2-.2.2-.3s-.2-.2-.3-.2h-.6c0,0,.5-2.6.5-2.6l.8-.2c0,0,.2-.2.2-.3s-.2-.2-.3-.2h-.6c0,.1.2-.8.2-.8,0-.1,0-.3-.2-.3s-.3,0-.3.2l-.2,1.1-2.4.5.2-1.1c0-.1,0-.3-.2-.3s-.3,0-.3.2l-.2,1.3-2.6.6h-1.4l-3.4-1.1-.2-2.2c0-.1,0-.2-.3-.2s-.2.1-.2.3l.2,2-3.6-1.2-.2-2.6c0-.1,0-.2-.3-.2s-.2.1-.2.3l.2,2.3-3.3-1.1-.6-3.1c0-.1-.2-.2-.3-.2s-.2.2-.2.3l.5,2.8-2.9-1-.8-3.5c0-.1-.2-.2-.3-.2s-.2.2-.2.3l2.8,12.1c-.6,0-1.1.3-1.5.9l-.9,2c0,.2-.2.5,0,.8,0,.4.4.7.8.8l15.2,4.6h1c0,0,.4,0,.6,0l4.9-1.7c.3,0,.6-.4.6-.8s-.2-.7-.6-.9l-7.7-2.7c0,0-.3,0-.3.2s0,.3.2.3l7.7,2.7c.2,0,.3.2.3.4s0,.3-.2.3l-4.9,1.7c-.3,0-.6,0-.9,0h-.5l-15.1-4.6c-.2,0-.4-.3-.5-.5v-.4l.9-2c0-.2.5-.8,1.2-.7l14.1,1.8h.3l7.2-1.9c.4,0,.6-.4.7-.6l1.8-7.6c0-.4,0-1.1-.6-1.3l-.2.3ZM118.3,12.3l.6,1.4c-.2-.1-.4-.3-.5-.6l-.6-1.3c.2,0,.4.3.5.5ZM98.6,21.3l-.8-1c0-.2-.2-.5,0-.7,0-.2.4-.4.6-.4l3.4-.2h.5c0,.3,0,.7.2,1l.8,1.2-4.3.4c-.2,0-.3-.1-.4-.3ZM103.8,22.7l-.2.9-3.7-1.5,3.7-.4c.2.3.2.7.2,1ZM116.3,28.2l-.3.4c-.3,0-.6,0-.8-.2l-5.9-2.5h0l3.6-5,.3-.4,3.5-4.8v-.3h-.3l-7.4,10.4-4.7-2,.2-1c0-.5,0-1.1-.3-1.5l-1.1-1.5c-.2-.3-.2-.8,0-1.1l1.4-1.3c.4-.4.6-.9.6-1.4v-1.9c0-.4.4-.8.8-.8l1.9-.2c.5,0,1-.3,1.3-.8l1.1-1.5c.2-.3.7-.4,1.1-.2l1.6.9c.5.3,1,.3,1.5.2l1.8-.5c.4-.1.8,0,1,.4l.8,1.7c.2.5.6.9,1.1,1l1.8.6c.4.1.6.5.5.9l-.4,1.8c0,.5,0,1.1.3,1.5l1.1,1.5c.2.3.2.8,0,1.1l-1.4,1.3c-.4.4-.6.9-.6,1.4v1.9c0,.4-.4.8-.8.8l-1.9.2c-.5,0-1,.3-1.3.8h0ZM121.4,25.2v1.7c0,.5-.4.9-.9.9l-1.7.2c-.3,0-.7.2-.9.4l-1.2.2h0c.2-.4.6-.6,1-.7l1.9-.2c.7,0,1.2-.6,1.2-1.3v-1.9c0-.4.2-.8.5-1l1.4-1.3c.5-.4.6-1.2.2-1.7l-1.1-1.5c-.2-.3-.3-.7-.2-1.1l.4-1.8v-.4c.4.2.6.6.5,1.1l-.3,1.6c0,.6,0,1.2.3,1.7l.9,1.4c.3.4.2.9,0,1.3l-1.2,1.1c-.4.4-.7,1-.7,1.6v-.3ZM119,32l2.4-.5-.5,2.8-2.3.5.4-2.8ZM114.4,32.7h1.6l2.4-.5-.4,2.8-2.1.5h-1c-1.1-.3-2.3-.6-3.4-.9l-.2-2.9,3.2,1.1h0ZM110.7,31.5l.2,3c-1.1-.3-2.2-.6-3.2-.8h-.3l-.3-3.3,3.6,1.2h0ZM106.6,30.1l.3,3.3c-1-.2-1.9-.5-2.9-.7l-.7-3.7,3.2,1.1h0ZM100,27.8l2.9,1,.7,3.7c-.9-.2-1.7-.4-2.6-.7l-.9-4h0Z"/>
      <path class="st23" d="M119.5,27.2c.4,0,.7-.4.7-.8v-1.9c0-.5.3-1,.7-1.4l1.4-1.3c.3-.3.4-.7,0-1.1l-1.1-1.5c-.3-.4-.4-1-.3-1.5l.4-1.8c0-.4,0-.8-.5-.9l-1.8-.6c-.5-.2-.9-.6-1.1-1l-.8-1.7c-.2-.4-.6-.6-1-.4l-1.8.5c-.5.2-1.1,0-1.5-.2l-1.6-.9c-.4-.2-.8-.1-1.1.2l-1.1,1.5c-.3.4-.8.7-1.3.8l-1.9.2c-.4,0-.7.4-.7.8v1.9c0,.5-.3,1-.7,1.4l-1.4,1.3c-.3.3-.4.7,0,1.1l1.1,1.5c.3.4.4,1,.3,1.5l-.2,1,4.7,2,7.4-10.4c0-.1.2-.1.3,0,0,0,0,.2,0,.3l-3.5,4.8-.3.4-3.6,5,5.9,2.5c.3.1.5.2.8.2l.3-.4c.3-.4.8-.7,1.3-.8l1.9-.2h0ZM109.7,20.4c-1.4,0-2.5-1.1-2.5-2.5s1.1-2.5,2.5-2.5,2.5,1.1,2.5,2.5-1.1,2.5-2.5,2.5ZM115.4,26.3c-1.4,0-2.5-1.1-2.5-2.5s1.1-2.5,2.5-2.5,2.5,1.1,2.5,2.5-1.1,2.5-2.5,2.5Z"/>
      <path class="st23" d="M109.7,16c-1.1,0-2,.9-2,2s.9,2,2,2,2-.9,2-2-.9-2-2-2Z"/>
      <path class="st25" d="M109.7,15.5c-1.4,0-2.5,1.1-2.5,2.5s1.1,2.5,2.5,2.5,2.5-1.1,2.5-2.5-1.1-2.5-2.5-2.5ZM109.7,19.9c-1.1,0-2-.9-2-2s.9-2,2-2,2,.9,2,2-.9,2-2,2Z"/>
      <circle class="st23" cx="115.4" cy="23.8" r="2"/>
      <path class="st25" d="M115.4,21.4c-1.4,0-2.5,1.1-2.5,2.5s1.1,2.5,2.5,2.5,2.5-1.1,2.5-2.5-1.1-2.5-2.5-2.5ZM115.4,25.8c-1.1,0-2-.9-2-2s.9-2,2-2,2,.9,2,2-.9,2-2,2Z"/>
      <path class="st25" d="M115.6,46c-.4,0-.6.2-.8.4-.4.4-.4.7-.4,1.1s0,.8.3,1c.3.4.5.4.8.4s.6-.2.8-.4c.4-.4.4-.8.4-1.1,0-.5,0-.8-.3-1-.3-.4-.5-.4-.8-.4ZM116,48.2q-.2.2-.4.2c-.2,0-.3,0-.4-.2-.2-.2-.2-.4-.2-.7s0-.5.2-.7.2-.2.4-.2.3,0,.4.2c.2.2.2.4.2.7s0,.5-.2.7Z"/>
      <path class="st25" d="M121.4,44.1c-.4,0-.6.2-.8.4-.4.4-.4.7-.4,1.1s0,.8.3,1c.3.4.5.4.8.4s.6-.2.8-.4c.4-.4.4-.8.4-1.1,0-.5,0-.8-.3-1-.3-.4-.5-.4-.8-.4ZM121.8,46.3q-.2.2-.4.2c-.2,0-.3,0-.4-.2-.2-.2-.2-.4-.2-.7s0-.5.2-.7.2-.2.4-.2.3,0,.4.2c.2.2.2.4.2.7s0,.5-.2.7Z"/>
      <path class="st25" d="M111.5,39.1c-.4,0-.6.2-.8.4-.4.4-.4.7-.4,1.1s0,.8.3,1c.3.4.5.4.8.4s.6-.2.8-.4c.4-.4.4-.8.4-1.1,0-.5,0-.8-.3-1-.3-.4-.5-.4-.8-.4ZM111.9,41.3q-.2.2-.4.2c-.2,0-.3,0-.4-.2-.2-.2-.2-.4-.2-.7s0-.5.2-.7.2-.2.4-.2.3,0,.4.2c.2.2.2.4.2.7s0,.5-.2.7Z"/>
      <path class="st25" d="M100.3,41.4c-.4,0-.6.2-.8.4-.4.4-.4.7-.4,1.1s0,.8.3,1c.3.4.5.4.8.4s.6-.2.8-.4c.4-.4.4-.8.4-1.1,0-.5,0-.8-.3-1-.3-.4-.5-.4-.8-.4ZM100.7,43.6q-.2.2-.4.2c-.2,0-.3,0-.4-.2-.2-.2-.2-.4-.2-.7s0-.5.2-.7.2-.2.4-.2.3,0,.4.2c.2.2.2.4.2.7s0,.5-.2.7Z"/>
    </g>
  </g>
  <g>
    <path class="st23" d="M-19.1-17.9c-.2.9,0,1.9.5,2.7l2.5,3.6c.9,1.3.7,3-.5,4.1l-3.3,3c-.7.6-1.1,1.5-1.1,2.5v.3l1.4.7c.2-1.2.7-2.3,1.6-3.2l2.9-2.7c.8-.8,1-2,.3-3l-2.2-3.2c-.8-1.1-1.1-2.6-.8-4l.8-3.9c.2-1-.4-2-1.3-2.5v1l-.9,4.3v.3Z"/>
    <path class="st23" d="M-21,2.4c0,1.5-1.2,2.8-2.8,3l-4.4.5c-.9,0-1.8.6-2.4,1.3l-.2.2,2.9-.5c.7-.4,1.4-.8,2.2-.8l3.9-.5c1.1,0,2-1.1,2-2.2V.3l-1.3-.7v2.8h.1Z"/>
    <path class="st23" d="M-25.3-27.8l-1.5-3.2c-.2-.5-.6-.9-1.1-1.1l1.4,3c.3.6.7,1,1.2,1.3Z"/>
    <path class="st23" d="M-20.9-.4l1.4.7v-1.3l-1.4-.7V-.4Z"/>
    <g>
      <path class="st25" d="M-11.2,3.4L-18.3-.3h0c0-1.1.5-2.2,1.3-2.9l2.9-2.7c1.3-1.2,1.5-3.1.5-4.5l-2.2-3.2c-.6-.9-.8-2-.6-3.1l.8-3.9c.3-1.7-.6-3.4-2.2-3.9l-.9-.3c-.4-.4-.8-.8-1.3-1l-3.1-1.1c-.3-.3-.5-.6-.7-1l-1.6-3.6c-.5-1.2-1.7-1.9-2.9-2-.7-1.2-2.2-1.8-3.5-1.4l-4.2,1.3c-.9.3-1.8.2-2.6-.3l-1.2-.7h0l-2.7-1.5c-1.3-.8-3.1-.4-4,.8l-2.7,3.5c-.6.7-1.4,1.2-2.4,1.3l-4.4.5c-1.5.2-2.7,1.5-2.8,3v4.4c-.1.9-.5,1.8-1.2,2.5l-3.3,3c-.1.1-.2.3-.3.4h-1.9c0,.1-8,.7-8,.7-1.1,0-2,.6-2.5,1.5-.4.8-.4,1.8,0,2.6,0,.1.1.3.2.4l1.9,2.4c.3.3.5.5.7.7s.5.3.9.4l6.5,2.8,4.4,1.9.6.2.6.2,1.5.6.6.2.6.2,23.3,9.8c.4.2.8.3,1.2.4h1.5c0,0,0,0,0,0h1.1l1.4-.3.9-.2,1.1-.2,2.3-.4,10.4-1.8c.3,0,.5-.4.5-.7s-.4-.5-.7-.5l-4.3.8c.4-.6.7-1.2.7-1.9V.9l6.7,3.5c.8.3.8,1,.8,1.9l-4,17.3v.2c-.3.5-.4.7-.7.7s0,0-.2,0l-16.9,4.5h-.6l-32.4-4.1-2-8.4c2,.5,4.1,1,6.1,1.6l.9,5.1c0,.3.4.5.7.5s.5-.4.5-.7l-.8-4.5c2.2.6,4.4,1.1,6.6,1.7l.3,3.5c0,.3.3.5.6.5s0,0,0,0c.3,0,.6-.3.5-.6l-.3-3h.2c2.7.7,5.4,1.4,8.1,2.1v1.3c.1.3.4.6.7.5.3,0,.6-.3.5-.6v-.9c2.5.7,5.1,1.3,7.7,2h2.7l4.7-1.1v.2c0,.3,0,.6.5.7.3,0,.6-.2.7-.5v-.6l5.5-1.2v.5c0,.3,0,.6.4.7.3,0,.6-.2.7-.5l.2-1,2-.4c.3,0,.5-.4.4-.7,0-.3-.4-.5-.7-.4l-1.5.3,1.1-6.6,1.8-.4c.3,0,.5-.4.4-.7,0-.3-.4-.5-.7-.4l-1.3.3.4-2.2c0-.3-.2-.6-.5-.7-.3,0-.6.2-.7.5l-.5,2.7-5.6,1.3.4-2.6c0-.3-.2-.6-.5-.7h0c-.3,0-.6.2-.7.5l-.4,2.4v.7c0,0-6.1,1.4-6.1,1.4h-1c-.8,0-1.7.1-2.3,0l-6.1-2.1-1.8-.6-.2-2.1v-2.7c-.1,0-.1-.5-.1-.5h0c0-.3-.3-.5-.6-.5s-.6.3-.5.6h0v2.2c.1,0,.1.6.1.6v1.9c.1,0-8.4-2.9-8.4-2.9l-.6-5.6v-.4h0c0-.3-.3-.5-.6-.5h0c-.1,0-.2,0-.3,0-.2,0-.3.3-.2.5l.5,5.5-7.7-2.6L-63.5,0c0-.3-.4-.5-.7-.5s-.5.4-.5.7l1.2,6.6-1.4-.5-5.4-1.8-1.9-8.3c0-.3-.4-.5-.7-.4-.3,0-.5.4-.4.7l6.7,28.5c-1.3,0-2.7.7-3.6,2.2l-2.1,4.7c-.4.6-.4,1.3-.2,2,.3.9,1,1.6,1.9,2l35.8,10.8h1.3c.4,0,.8,0,1.3,0s.9,0,1.4-.2l11.6-4c.8-.3,1.3-1,1.3-1.9s-.5-1.6-1.4-2.1l-18.2-6.4c-.3,0-.6,0-.8.4,0,.3,0,.6.4.8l18.1,6.3c.4.2.7.6.6.9,0,.4-.2.7-.6.8l-11.6,4c-.6.3-1.3.2-2.1,0-.4,0-.8,0-1.2,0l-35.7-10.8c-.6-.2-1-.7-1.2-1.2-.1-.4,0-.7.1-1l2.1-4.7c.3-.4,1.2-1.9,2.7-1.6l33.3,4.3h.9l16.9-4.5c.9,0,1.3-.8,1.5-1.3L-9.9,6.7c0-1,0-2.5-1.5-3.1l.2-.2ZM-19.5-.4v3.9c0,1.1-.9,2.1-2,2.2l-3.9.5c-.8,0-1.6.4-2.2.8l-2.9.5.2-.2c.6-.7,1.4-1.2,2.4-1.3l4.4-.5c1.5-.2,2.7-1.5,2.8-3V-2c0-.9.4-1.8,1.1-2.5l3.3-3c1.1-1,1.3-2.8.5-4.1l-2.5-3.6c-.5-.8-.7-1.7-.5-2.7l.9-4.3v-1c.9.4,1.5,1.4,1.3,2.5l-.8,3.9c-.3,1.4,0,2.8.8,4l2.2,3.2c.6.9.5,2.2-.3,3l-2.9,2.7c-.9.8-1.5,2-1.6,3.2V-.2l-.3-.2ZM-60.2-9.2c0-.2-.2-.4-.3-.6h0l-2.5-3.6c-.2-.3-.3-.6-.3-.9s0-.7.1-1c.1-.2.2-.5.5-.7l.6-.6,2.6-2.4c.9-.8,1.5-2.1,1.5-3.3v-4.4c.1-1,.9-1.8,1.8-1.9l4.4-.5c1.2-.1,2.4-.8,3.2-1.8l2.7-3.5c.6-.8,1.7-1,2.5-.5l.5.3.7.4,1.4.8,1.2.7h0c.7.4,1.4.5,2.1.5s.7,0,1.1,0h.3l4.2-1.3c.6-.2,1.3,0,1.8.4.2,0,.3.3.4.5h0c0,0,.2.5.2.5l1.7,3.6c.5,1.1,1.5,2,2.7,2.5l.8.3,3.3,1.2c.5.2.8.5,1,.9s.3.9.2,1.3l-.9,4.3c-.2,1.2,0,2.5.7,3.6l2.5,3.6c.5.8.4,1.9-.3,2.5l-3.3,3c-.9.8-1.4,1.9-1.5,3.1V2.4c0,1-.9,1.8-1.8,1.9l-4.4.5c-1.2,0-2.4.8-3.2,1.8l-.8,1c-.7,0-1.3-.2-1.9-.5L-58-2.8l-.6-.2-.6-.2-1.5-.6.5-2.4c.2-1,0-2-.4-2.9h.4ZM-26.7-31l1.5,3.2c-.5-.4-.9-.8-1.2-1.3l-1.4-3c.5.2.8.6,1.1,1.1ZM-75.2-12c-.3-.4-.3-1-.1-1.5v-.3c.3-.6.8-.9,1.5-.9l8.1-.6h1.2v.9c0,.5.2,1,.5,1.5l1.9,2.8-10.2,1c-.5-.2-.7-.3-1-.7l-1.9-2.3h0ZM-61.3-8.9c.4.7.6,1.6.4,2.4l-.4,2.1-8.6-3.6,8.7-.9h0ZM-25.2,15.6l5.6-1.3-1.1,6.6-5.5,1.2,1-6.5ZM-35.9,17.2c.9.2,1.9.1,2.7,0h1.1l5.7-1.3-1,6.5-5.1,1.1h-2.4c-2.7-.7-5.3-1.3-8-2l-.5-6.9,7.5,2.5h0ZM-45.4,14l.7.2.5,7c-2.6-.7-5.1-1.3-7.7-2-.2,0-.4,0-.6-.1l-.5-5.1-.3-2.6,7.8,2.6h.1ZM-54.4,10.9l.3,3.1.5,4.8c-2.2-.6-4.5-1.2-6.8-1.7l-.6-3.1-1-5.6,7.6,2.6h0ZM-64.7,7.4l1.5.5,1.1,6.1.5,2.7c-2-.5-4.1-1.1-6.2-1.6l-2.2-9.5,5.2,1.8h0Z"/>
      <path class="st25" d="M-50-16.3c.1.3.3.6.5.9,1,1.6,2.8,2.6,4.8,2.6s1,0,1.4-.2c.9-.2,1.8-.7,2.4-1.3.4-.3.7-.7,1-1.2.6-.9.9-2,.9-3.1,0-3.2-2.6-5.8-5.8-5.8s-5.8,2.6-5.8,5.8,0,.8.1,1.1c0,.4.2.8.4,1.2h.1ZM-44.6-23.2c2.5,0,4.6,2.1,4.6,4.6s-.2,1.3-.4,1.9c-.2.4-.4.7-.7,1.1-.6.7-1.4,1.2-2.3,1.5-.4,0-.8.2-1.1.2-1.3,0-2.6-.6-3.4-1.5-.2-.3-.5-.6-.6-.9-.2-.4-.4-.7-.5-1.1,0-.3-.1-.7-.1-1,0-2.5,2.1-4.6,4.6-4.6v-.2Z"/>
      <path class="st25" d="M-34.9-9c-.3.3-.6.6-.8.9-.7,1-1.2,2.1-1.2,3.4,0,3.2,2.6,5.8,5.8,5.8s4.7-1.7,5.5-4c0-.4.2-.8.3-1.2v-.6c0-3.2-2.6-5.8-5.8-5.8s-2.8.6-3.8,1.5ZM-26.5-4.6c0,.4,0,.8-.2,1.2-.6,1.9-2.3,3.3-4.4,3.3s-4.6-2.1-4.6-4.6.4-2.1,1-2.9c.3-.3.6-.6.9-.9.8-.5,1.7-.9,2.7-.9,2.5,0,4.6,2.1,4.6,4.6s0,0,0,0v.2Z"/>
      <path class="st25" d="M-47.4.5c-.2.3-.1.6.1.8.1,0,.2.1.3.1.2,0,.4,0,.5-.2l7.8-10.9.7-1,9.6-13.4c.2-.3,0-.6,0-.8-.3-.2-.6-.1-.8.1l-9.5,13.2-.7,1L-47.4.4h0Z"/>
      <path class="st25" d="M-33.2,48.6c-1,0-1.3.4-1.8.9-.9.9-.9,1.5-.9,2.5s.3,2,.8,2.4c.6.9,1.1,1,1.9,1s1.3-.4,1.8-.9c.9-.9.9-1.8.9-2.5,0-1.1-.3-2-.8-2.5-.6-.9-1.1-1-1.9-1h0ZM-32.2,53.7c-.4.4-.5.5-1,.5s-.6,0-1-.5c-.4-.4-.5-.9-.5-1.7s0-1.2.5-1.7.5-.5,1-.5.6,0,1,.5c.4.4.5.9.5,1.7s0,1.2-.5,1.7Z"/>
      <path class="st25" d="M-19.5,44.1c-1,0-1.3.4-1.8.9-.9.9-.9,1.5-.9,2.5s.3,2,.8,2.5c.6.9,1.1,1,1.9,1s1.3-.4,1.8-.9c.9-.9.9-1.8.9-2.5,0-1.1-.3-2-.8-2.5-.6-.9-1.1-1-1.9-1ZM-18.5,49.2c-.4.4-.5.5-1,.5s-.6,0-1-.5c-.4-.4-.5-.9-.5-1.7s0-1.2.5-1.7.5-.5,1-.5.6,0,1,.5c.4.4.5.9.5,1.7s0,1.2-.5,1.7Z"/>
      <path class="st25" d="M-42.9,32.3c-.9,0-1.3.4-1.8.9-.9.9-.9,1.5-.9,2.5s.3,2,.8,2.5c.6.9,1.1,1,1.9,1s1.3-.4,1.8-.9c.9-.9.9-1.8.9-2.5,0-1.1-.3-2-.8-2.5-.6-.9-1.1-1-1.9-1h0ZM-41.9,37.4c-.4.4-.5.5-1,.5s-.6,0-1-.5c-.4-.4-.5-.9-.5-1.7s0-1.2.5-1.7c.4-.4.5-.5,1-.5s.6,0,1,.5c.4.4.5.9.5,1.7s0,1.2-.5,1.7Z"/>
      <path class="st25" d="M-69.3,37.7c-1,0-1.3.4-1.8.9-.9.9-.9,1.6-.9,2.5s.3,2,.8,2.5c.6.9,1.1,1,1.9,1s1.3-.4,1.8-.9c.9-.9.9-1.8.9-2.5,0-1.1-.3-2-.8-2.4-.6-.9-1.1-1-1.9-1h0ZM-68.3,42.8c-.4.4-.5.5-1,.5s-.6,0-1-.5c-.4-.4-.5-.9-.5-1.7s0-1.2.5-1.7.5-.5,1-.5.6,0,1,.5c.4.4.5.9.5,1.7s0,1.2-.5,1.7Z"/>
    </g>
  </g>
  <g>
    <line class="st5" x1="195.7" y1="-46" x2="185.2" y2="-40"/>
    <path class="st12" d="M211.2-19.8h-51.9c-.9,0-1.7-.8-1.7-1.7v-3.5h55.3v3.5c0,.9-.8,1.7-1.7,1.7h0Z"/>
    <path class="st12" d="M211.1-23.3h-51.6c-1.4,0-2.2-1.4-1.6-2.6l5.3-10.6c.3-.6.9-1,1.6-1h41.1c.7,0,1.3.4,1.6,1l5.3,10.6c.6,1.2-.3,2.6-1.6,2.6h0Z"/>
    <path class="st25" d="M204.3-36h-38.1c-.1,0-.3,0-.3.2l-4.8,9.7c-.1.3,0,.6.3.6h47.5c.3,0,.5-.3.3-.5l-4.7-9.7c0-.1-.2-.2-.3-.2h.1Z"/>
    <path class="st25" d="M206.7-33.2h.7c.2,0,.4,0,.5.3l1.4,2.8v.3c0,0,0,0-.2,0h-.6c-.2,0-.4,0-.5-.3l-1.5-3h0c0,0,.2,0,.2,0Z"/>
    <path class="st11" d="M164.4-33.4c0-.2,0-.3.2-.3,0,0,.7,0,.8.2s0,.6,0,.6l-1.6,3.5c-.2.3-.5.3-.7.3h-.7l2-4.2h0Z"/>
    <path class="st23" d="M209.3-26.1l-4.7-9.7c0-.1-.2-.2-.3-.2h-3l-38.3,10.5h45.9c.3,0,.5-.3.3-.5h.1Z"/>
    <g>
      <path class="st9" d="M180.1-67c0-2.9,2.3-5.2,5.2-5.2s5.2,2.3,5.2,5.2-4.8,10.7-5.2,10.7-5.2-6.8-5.2-10.7Z"/>
      <circle class="st9" cx="185.3" cy="-66.9" r="2.5"/>
    </g>
    <g>
      <polygon class="st13" points="185.2 -27.6 174.7 -33.6 174.7 -46 185.2 -40 185.2 -27.6"/>
      <polygon class="st13" points="185.2 -27.6 195.7 -33.6 195.7 -46 185.2 -40 185.2 -27.6"/>
      <polygon class="st13" points="185.2 -40 174.7 -46 185.2 -51.9 195.7 -46 185.2 -40"/>
      <path class="st25" d="M189.4-35.7v-6.7l-10-5.7-.3-.2,2-1.1,9.7,5.5c.3.2.5.5.5.9v6.2l-2,1.1h0Z"/>
    </g>
    <g>
      <line class="st10" x1="189.5" y1="-27.2" x2="199.5" y2="-27.2"/>
      <line class="st10" x1="170.9" y1="-27.2" x2="180.9" y2="-27.2"/>
    </g>
  </g>
  <g>
    <g>
      <path class="st8" d="M179.6,69.6c-.3.1-.6.2-.9.4"/>
      <path class="st7" d="M177,70.8c-4.8,2.8-8,8-8,13.9,0,8.9,7.2,16.1,16.1,16.1s16.1-7.2,16.1-16.1-3.5-11.6-8.6-14.3"/>
      <path class="st8" d="M191.9,70.1c-.3-.1-.6-.3-.9-.4"/>
    </g>
    <line class="st5" x1="195.7" y1="90.1" x2="185.2" y2="96"/>
    <path class="st12" d="M211.2,116.3h-51.9c-.9,0-1.7-.8-1.7-1.7v-3.5h55.3v3.5c0,.9-.8,1.7-1.7,1.7h0Z"/>
    <path class="st12" d="M211.1,112.8h-51.6c-1.4,0-2.2-1.4-1.6-2.6l5.3-10.6c.3-.6.9-1,1.6-1h41.1c.7,0,1.3.4,1.6,1l5.3,10.6c.6,1.2-.3,2.6-1.6,2.6h0Z"/>
    <path class="st25" d="M204.3,100.1h-38.1c-.1,0-.3,0-.3.2l-4.8,9.7c-.1.3,0,.6.3.6h47.5c.3,0,.5-.3.3-.5l-4.7-9.7c0-.1-.2-.2-.3-.2h.1Z"/>
    <path class="st25" d="M206.7,102.8h.7c.2,0,.4.1.5.3l1.4,2.8v.3c0,.1,0,0-.2,0h-.6c-.2,0-.4-.1-.5-.3l-1.5-3h0c0-.1.2-.1.2-.1Z"/>
    <path class="st11" d="M164.4,102.6c0-.2,0-.3.2-.3,0,0,.7,0,.8.2s0,.6,0,.6l-1.6,3.5c-.2.3-.5.3-.7.3h-.7l2-4.2h0Z"/>
    <path class="st23" d="M209.3,110l-4.7-9.7c0-.1-.2-.2-.3-.2h-3l-38.3,10.5h45.9c.3,0,.5-.3.3-.5h.1Z"/>
    <g>
      <line class="st10" x1="189.5" y1="108.9" x2="199.5" y2="108.9"/>
      <line class="st10" x1="170.9" y1="108.9" x2="180.9" y2="108.9"/>
    </g>
    <g>
      <path class="st9" d="M180.1,69.1c0-2.9,2.3-5.2,5.2-5.2s5.2,2.3,5.2,5.2-4.8,10.7-5.2,10.7-5.2-6.8-5.2-10.7Z"/>
      <circle class="st9" cx="185.3" cy="69.2" r="2.5"/>
    </g>
    <g>
      <polygon class="st13" points="185.2 108.4 174.7 102.5 174.7 90.1 185.2 96 185.2 108.4"/>
      <polygon class="st13" points="185.2 108.4 195.7 102.5 195.7 90.1 185.2 96 185.2 108.4"/>
      <polygon class="st13" points="185.2 96 174.7 90.1 185.2 84.1 195.7 90.1 185.2 96"/>
      <path class="st25" d="M189.4,100.4v-6.7l-10-5.7-.3-.2,2-1.1,9.7,5.5c.3.2.5.5.5.9v6.2l-2,1.1h0Z"/>
    </g>
  </g>
  <g>
    <path class="st0" d="M190.2.5c0-2.7-2.2-5-5-5s-5,2.2-5,5,4.2,9.8,5,10.4c.8-.7,5-6.8,5-10.4ZM182.5.6c0-1.5,1.2-2.8,2.8-2.8s2.8,1.2,2.8,2.8-1.2,2.8-2.8,2.8-2.8-1.2-2.8-2.8Z"/>
    <path class="st0" d="M187.5.6c0-1.2-1-2.3-2.3-2.3s-2.3,1-2.3,2.3,1,2.3,2.3,2.3,2.3-1,2.3-2.3Z"/>
    <path class="st25" d="M178.7,1.7h0c.3,0,.6-.2.9-.3.1,0,.2-.2.1-.3,0,0-.2-.2-.3,0-.3,0-.6.2-.9.4-.1,0-.2.2-.1.3,0,0,.1,0,.2,0h0Z"/>
    <path class="st25" d="M199.5,9.4s.1,0,.2,0h.1c.1,0,.2-.2.1-.3-.3-.6-.6-1.1-.9-1.7,0,0-.2,0-.3,0-.1,0-.1.2,0,.3.3.5.6,1.1.9,1.6h-.1Z"/>
    <path class="st25" d="M201,13h0c.1,0,.2-.2.2-.3-.1-.6-.3-1.2-.5-1.8,0,0-.2-.2-.3,0-.1,0-.2.2-.1.3.2.6.4,1.2.5,1.8,0,0,.1.2.2.2h0Z"/>
    <path class="st25" d="M197.3,26.9h.4c.4-.5.8-1,1.2-1.5v-.3h-.3c-.3.5-.7,1-1.1,1.5v.3h-.2Z"/>
    <path class="st25" d="M201,18.3c0,.6-.2,1.2-.3,1.8,0,0,0,.3.2.3h0c.1,0,.2,0,.2-.2.2-.6.3-1.2.4-1.9,0,0,0-.2-.2-.3-.1,0-.2,0-.3.2h0Z"/>
    <path class="st25" d="M201,14.7v1.9c0,0,0,.2.2.2h0c.1,0,.2,0,.2-.2v-1.9c0,0-.1-.2-.3-.2s-.2,0-.2.3h0Z"/>
    <path class="st25" d="M199.4,23.9h.1s.2,0,.2,0c.3-.6.6-1.1.8-1.7,0,0,0-.3-.1-.3s-.3,0-.3,0c-.2.6-.5,1.1-.8,1.7,0,0,0,.3.1.3h0Z"/>
    <path class="st25" d="M170.2,21.6c0,0-.2-.2-.3,0-.1,0-.2.2-.1.3.2.6.5,1.2.7,1.7,0,0,.1,0,.2,0h.1c.1,0,.2-.2.1-.3-.3-.5-.5-1.1-.7-1.7h0Z"/>
    <path class="st25" d="M170.7,9.2s.2,0,.2,0c.3-.5.6-1.1.9-1.6v-.3h-.3c-.3.5-.7,1.1-.9,1.6s0,.3.1.3h.1-.1Z"/>
    <path class="st25" d="M169.4,12.7h0c.1,0,.2,0,.2-.2.1-.6.3-1.2.5-1.8,0,0,0-.3-.1-.3s-.3,0-.3,0c-.2.6-.4,1.2-.5,1.8,0,0,0,.3.2.3h0Z"/>
    <path class="st25" d="M169.1,17.8c-.1,0-.2,0-.2.3,0,.6.2,1.3.3,1.9,0,0,.1.2.2.2s0,0,0,0c.1,0,.2-.2.2-.3-.1-.6-.2-1.2-.3-1.8,0,0-.1-.2-.3-.2h0Z"/>
    <path class="st25" d="M169,16.4c.1,0,.2,0,.2-.2,0-.6,0-1.2.1-1.8,0,0,0-.2-.2-.3-.1,0-.2,0-.3.2,0,.6-.1,1.3-.1,1.9s.1.2.2.2h0Z"/>
    <path class="st25" d="M172.8,6.1h.2c.4-.5.8-.9,1.3-1.3v-.3h-.3c-.5.4-.9.9-1.3,1.4v.3h.2-.1Z"/>
    <path class="st25" d="M175.5,3.6h.1c.5-.4,1-.7,1.5-1,.1,0,.1-.2,0-.3,0,0-.2-.2-.3,0-.5.3-1.1.7-1.6,1-.1,0-.1.2,0,.3h.3Z"/>
    <path class="st25" d="M195,3.7h.3v-.3c-.5-.4-1-.7-1.6-1.1h-.3v.3c.5.3,1,.7,1.5,1h0Z"/>
    <path class="st25" d="M197.6,6.3h.3c.1,0,.1-.2,0-.3-.4-.5-.8-1-1.3-1.4h-.3v.3c.4.4.9.9,1.2,1.4h0Z"/>
    <path class="st25" d="M171.9,24.9c0,0-.2,0-.3,0-.1,0-.1.2,0,.3.3.5.7,1,1.1,1.5h.4c.1,0,.1-.2,0-.3-.4-.5-.8-1-1.1-1.5h-.1Z"/>
    <path class="st25" d="M190.9,1.4c.3,0,.6.2.9.4h0s.2,0,.2,0,0-.3-.1-.3c-.3,0-.6-.3-.9-.4-.1,0-.3,0-.3,0s0,.3.1.3h0Z"/>
    <polygon class="st14" points="195.9 21.4 195.9 21.4 195.9 21.4 195.9 21.4"/>
    <path class="st11" d="M212.6,43.8c-.4.5-1,.8-1.6.8h-51.6c-.6,0-1.2-.3-1.6-.8v2.3c0,.8.6,1.4,1.4,1.4h51.9c.8,0,1.4-.6,1.4-1.4v-2.3h.1Z"/>
    <path class="st25" d="M213.1,42.3c0-.3,0-.5-.2-.8l-5.3-10.6c-.4-.7-1.1-1.2-1.9-1.2h-9.9v-1.1c.1,0,.2-.2.4-.3,0,0,.1-.2,0-.3,0,0-.2,0-.3,0h0v-6.4h0c0,0-10.5-6-10.5-6h-.2l-10.5,5.9h0s-.1,0-.1.2v6.4s-.2,0-.2-.2h-.3v.3c.2.2.4.3.6.5v1.1h-9.7c-.8,0-1.5.4-1.9,1.2l-5.3,10.6c-.1.2-.2.5-.2.8h0v3.7c0,1.1.9,1.9,1.9,1.9h51.9c1.1,0,1.9-.9,1.9-1.9v-3.7h-.2ZM211.2,47.5h-51.9c-.8,0-1.4-.6-1.4-1.4v-2.3c.4.5,1,.8,1.6.8h51.6c.6,0,1.2-.3,1.6-.8v2.3c0,.8-.6,1.4-1.4,1.4h-.1ZM158,41.7l5.3-10.6c.3-.5.8-.9,1.4-.9h9.7v1.3h-8.3c-.1,0-.3,0-.3.2l-1,2c.2,0,.5,0,.6.2.2.2,0,.6,0,.6l-1.6,3.5c-.2.3-.5.3-.7.3h-.6l-1.5,3.1c-.1.3,0,.6.3.6h1.6l17.1-4.7,4.9,2.8h.2l10.5-5.9s.1,0,.1-.2v-.9l5.4-1.5h-5.4v-1.3h9.9c.6,0,1.1.3,1.4.9l5.3,10.6c.2.5.2,1.1,0,1.5-.3.5-.8.7-1.3.7h-51.6c-.5,0-1-.3-1.3-.7-.3-.5-.3-1,0-1.5h-.1ZM179.2,19.3s.2,0,.3.2l9.7,5.5-4,2.2-10-5.7,4-2.2ZM195.4,33.8l-10,5.7v-11.8l1.7-1,2.3-1.3v6.5l2-1.1v-6.5l4-2.3v11.8ZM195.2,21.6l-4,2.3-.2-.2-9.7-5.5,4-2.3,10,5.7h0ZM184.9,27.6v11.8l-10-5.7v-11.8l10,5.7Z"/>
    <path class="st11" d="M158.1,43.3c.3.5.8.7,1.3.7h51.6c.5,0,1-.3,1.3-.7.3-.5.3-1,0-1.5l-5.3-10.6c-.3-.5-.8-.9-1.4-.9h-9.9v1.3h8.4c.1,0,.3,0,.3.2l4.7,9.7v.2c0,.2-.2.4-.4.4h-47.5c-.3,0-.5-.3-.3-.6l1.5-3.1h.6c.2,0,.6,0,.7-.3l1.6-3.5s.1-.4,0-.6-.4,0-.6-.2l1-2c0,0,.2-.2.3-.2h8.3v-1.3h-9.7c-.6,0-1.1.3-1.4.9l-5.3,10.6c-.2.5-.2,1.1,0,1.5h.2ZM209.3,37.7h-.6c-.2,0-.4,0-.5-.3l-1.5-3h0c0,0,.1,0,.1,0h.6c.2,0,.4,0,.5.3l1.4,2.8v.3h-.2.2Z"/>
    <path class="st25" d="M209.4,37.6v-.3l-1.4-2.8c0-.2-.3-.3-.5-.3h-.7c0,0,1.5,3.1,1.5,3.1,0,.2.3.3.5.3h.8-.2Z"/>
    <path class="st23" d="M209.3,41.6v-.2l-4.7-9.7c0,0-.2-.2-.3-.2h-3l-5.4,1.5v.9s0,.2-.1.2l-10.5,5.9h-.2l-4.9-2.8-17.1,4.7h45.9c.2,0,.4-.2.4-.4h0ZM180.9,40.6h-10c-.1,0-.2,0-.2-.2s.1-.2.2-.2h10c.1,0,.2,0,.2.2s-.1.2-.2.2ZM199.5,40.6h-10c-.1,0-.2,0-.2-.2s.1-.2.2-.2h10c.1,0,.2,0,.2.2s-.1.2-.2.2Z"/>
    <path class="st11" d="M199.5,40.1h-10c-.1,0-.2,0-.2.2s.1.2.2.2h10c.1,0,.2,0,.2-.2s-.1-.2-.2-.2Z"/>
    <path class="st11" d="M180.9,40.1h-10c-.1,0-.2,0-.2.2s.1.2.2.2h10c.1,0,.2,0,.2-.2s-.1-.2-.2-.2Z"/>
    <path class="st25" d="M185.3,11.5c.7,0,5.5-7.1,5.5-11s-2.5-5.5-5.5-5.5-5.5,2.5-5.5,5.5,4.6,11,5.5,11ZM185.3-4.4c2.7,0,5,2.2,5,5s-4.2,9.7-5,10.4c-.8-.7-5-6.8-5-10.4s2.2-5,5-5Z"/>
    <path class="st25" d="M188,.6c0-1.5-1.2-2.8-2.8-2.8s-2.8,1.2-2.8,2.8,1.2,2.8,2.8,2.8,2.8-1.2,2.8-2.8ZM183,.6c0-1.2,1-2.3,2.3-2.3s2.3,1,2.3,2.3-1,2.3-2.3,2.3-2.3-1-2.3-2.3Z"/>
    <polygon class="st11" points="175 33.8 184.9 39.5 184.9 27.6 175 22 175 33.8"/>
    <path class="st11" d="M195.4,22l-4,2.3v6.5l-2,1.1v-6.5l-2.3,1.3-1.7,1v11.8l10-5.7v-11.8Z"/>
    <path class="st11" d="M181.2,18.2l9.7,5.5s.2,0,.2.2l4-2.3-10-5.7-4,2.3h0Z"/>
    <path class="st11" d="M185.2,27.2l4-2.2-9.7-5.5s-.2,0-.3-.2l-4,2.2,10,5.7Z"/>
  </g>
  <g>
    <rect class="st15" x="-58" y="77.5" width="25.9" height="34.6" rx="-3.1" ry="-3.1"/>
    <rect class="st20" x="-60" y="77.5" width="25.9" height="34.6" rx="-4.1" ry="-4.1"/>
    <rect class="st16" x="-54.8" y="75.8" width="15.2" height="3.5" rx="-12.2" ry="-12.2"/>
    <g>
      <path class="st18" d="M-39.3,88.8h-9.3"/>
      <polyline class="st2" points="-55 88.7 -53.9 89.5 -51.8 87"/>
    </g>
    <g>
      <path class="st18" d="M-42.4,95.5h-6.2"/>
      <polyline class="st2" points="-55 95.3 -53.9 96.2 -51.8 93.6"/>
    </g>
    <g>
      <path class="st18" d="M-45.1,102.1h-3.5"/>
      <polyline class="st2" points="-55 101.9 -53.9 102.9 -51.8 100.2"/>
    </g>
    <circle class="st19" cx="-34.1" cy="103.5" r="8.7"/>
    <polyline class="st1" points="-34.2 99.7 -34.1 103.5 -27.6 103.5"/>
  </g>
  <g>
    <g>
      <path class="st18" d="M-84.5,203.7h-9.3"/>
      <polyline class="st2" points="-100.2 203.6 -99.1 204.4 -97 201.9"/>
    </g>
    <g>
      <path class="st18" d="M-87.6,210.4h-6.2"/>
      <polyline class="st2" points="-100.2 210.2 -99.1 211.2 -97 208.5"/>
    </g>
    <g>
      <path class="st18" d="M-90.3,217.1h-3.5"/>
      <polyline class="st2" points="-100.2 216.9 -99.1 217.8 -97 215.1"/>
    </g>
  </g>
  <g>
    <path class="st23" d="M25.5,77.8h-.4c.8.5,1.4,1.4,1.4,2.5v14.3c.5,0,1,0,1.5.2v-14.4c0-1.4-1.1-2.5-2.5-2.5Z"/>
    <path class="st25" d="M17.2,103.5c0-4.9,3.9-8.8,8.7-8.9v-14.3c0-1.4-1.1-2.5-2.5-2.5h-2.5c-.1,1-1,1.8-2,1.8H7.3c-1,0-1.9-.8-2-1.8h-2.2c-1.4,0-2.5,1.1-2.5,2.5v29.2c0,1.4,1.1,2.5,2.5,2.5h20.3c-3.5-1.2-6.1-4.5-6.1-8.5ZM11.7,88.2h9.3c.3,0,.6.3.6.6s-.3.6-.6.6h-9.3c-.3,0-.6-.3-.6-.6s.3-.6.6-.6ZM11.7,94.9h6.2c.3,0,.6.3.6.6s-.3.6-.6.6h-6.2c-.3,0-.6-.3-.6-.6s.3-.6.6-.6ZM8.9,100.5l-2.1,2.7c0,0-.2.1-.3.2s0,0,0,0c-.1,0-.2,0-.3-.1l-1.1-1c-.2-.2-.2-.4,0-.6.2-.2.4-.2.6,0l.7.7,1.9-2.3c.1-.2.4-.2.6,0,.2.1.2.4,0,.6ZM8.9,93.8l-2.1,2.7c0,0-.2.1-.3.2s0,0,0,0c-.1,0-.2,0-.3-.1l-1.1-1c-.2-.2-.2-.4,0-.6.2-.2.4-.2.6,0l.7.7,1.9-2.3c.1-.2.4-.2.6,0,.2.1.2.4,0,.6ZM8.9,87.2l-2.1,2.6c0,.1-.2.2-.3.2s-.2,0-.3,0l-1.1-.9c-.2-.1-.2-.4,0-.6.1-.2.4-.2.6,0l.7.6,1.9-2.2c.2-.2.4-.2.6,0,.2.2.2.4,0,.6ZM15.2,102.7h-3.5c-.3,0-.6-.3-.6-.6s.3-.6.6-.6h3.5c.3,0,.6.3.6.6s-.3.6-.6.6Z"/>
    <path class="st23" d="M7.3,79.1h11.7c.8,0,1.5-.7,1.5-1.5s-.7-1.5-1.5-1.5H7.3c-.8,0-1.5.7-1.5,1.5s.7,1.5,1.5,1.5Z"/>
    <path class="st14" d="M11.7,89.3h9.3c.3,0,.6-.3.6-.6s-.3-.6-.6-.6h-9.3c-.3,0-.6.3-.6.6s.3.6.6.6Z"/>
    <path class="st14" d="M8.2,86.7l-1.9,2.2-.7-.6c-.2-.1-.5-.1-.6,0-.1.2-.1.5,0,.6l1.1.9c0,0,.2,0,.3,0s.2,0,.3-.2l2.1-2.6c.2-.2.1-.5,0-.6-.2-.2-.5-.1-.6,0Z"/>
    <path class="st14" d="M11.7,96.1h6.2c.3,0,.6-.3.6-.6s-.3-.6-.6-.6h-6.2c-.3,0-.6.3-.6.6s.3.6.6.6Z"/>
    <path class="st14" d="M8.2,93.3l-1.9,2.3-.7-.7c-.2-.2-.4-.1-.6,0-.2.2-.1.4,0,.6l1.1,1c0,0,.2.1.3.1s0,0,0,0c.1,0,.2,0,.3-.2l2.1-2.7c.1-.2.1-.5,0-.6-.2-.1-.5-.1-.6,0Z"/>
    <path class="st14" d="M15.2,101.6h-3.5c-.3,0-.6.3-.6.6s.3.6.6.6h3.5c.3,0,.6-.3.6-.6s-.3-.6-.6-.6Z"/>
    <path class="st14" d="M8.2,100l-1.9,2.3-.7-.7c-.2-.2-.4-.1-.6,0-.2.2-.1.4,0,.6l1.1,1c0,0,.2.1.3.1s0,0,0,0c.1,0,.2,0,.3-.2l2.1-2.7c.1-.2.1-.5,0-.6-.2-.1-.5-.1-.6,0Z"/>
    <path class="st25" d="M34.6,103.5c0-4.7-3.8-8.5-8.5-8.5s-8.5,3.8-8.5,8.5,3.8,8.5,8.5,8.5,8.5-3.8,8.5-8.5ZM26.2,99.2h0c.3,0,.5.2.5.5v3.2h6.1c.3,0,.5.2.5.5s-.2.5-.5.5h-6.6c-.3,0-.5-.2-.5-.5v-3.7c0-.3.2-.5.5-.5Z"/>
    <path class="st14" d="M28.4,94.8v-14.6c0-1.6-1.3-2.9-2.9-2.9h-4.5c-.1-1-1-1.8-2-1.8H7.3c-1,0-1.9.8-2,1.8h-2.2c-1.6,0-2.9,1.3-2.9,2.9v29.2c0,1.6,1.3,2.9,2.9,2.9h22.4c0,0,.1,0,.2,0,.2,0,.4,0,.6,0,4.9,0,9-4,9-9s-2.9-7.7-6.7-8.7ZM3,111.9c-1.4,0-2.5-1.1-2.5-2.5v-29.2c0-1.4,1.1-2.5,2.5-2.5h2.2c.1,1,1,1.8,2,1.8h11.7c1,0,1.9-.8,2-1.8h2.5c1.4,0,2.5,1.1,2.5,2.5v14.3c-4.8.1-8.7,4.1-8.7,8.9s2.5,7.3,6.1,8.5H3ZM5.7,77.5c0-.8.7-1.5,1.5-1.5h11.7c.8,0,1.5.7,1.5,1.5s-.7,1.5-1.5,1.5H7.3c-.8,0-1.5-.7-1.5-1.5ZM27.9,94.7c-.5,0-1-.1-1.5-.2v-14.3c0-1-.5-1.9-1.4-2.5h.4c1.4,0,2.5,1.1,2.5,2.5v14.4ZM26.2,111.9c-4.7,0-8.5-3.8-8.5-8.5s3.8-8.5,8.5-8.5,8.5,3.8,8.5,8.5-3.8,8.5-8.5,8.5Z"/>
    <path class="st14" d="M26.2,104h6.6c.3,0,.5-.2.5-.5s-.2-.5-.5-.5h-6.1v-3.2c0-.3-.2-.5-.5-.5h0c-.3,0-.5.2-.5.5v3.7c0,.3.2.5.5.5Z"/>
  </g>
  <g class="st26">
    <g>
      <path class="st5" d="M54.6,91.9h0c-1.1,0-2,.9-2,2v9.1c0,1.1.9,2,2,2h0c1.1,0,2-.9,2-2v-9.1c0-1.1-.9-2-2-2Z"/>
      <path class="st5" d="M72,111.1c.7,0,1.3-.6,1.3-1.3s-.6-1.3-1.3-1.3h-4.4c-.7,0-1.3.6-1.3,1.3s.6,1.3,1.3,1.3h4.4Z"/>
      <path class="st16" d="M52.6,93.7v9.5c-1.3,0-2.3-1-2.3-2.3v-5c0-1.2,1.1-2.2,2.3-2.2Z"/>
      <path class="st5" d="M85.4,105h0c1.1,0,2-.9,2-2v-9.1c0-1.1-.9-2-2-2h0c-1.1,0-2,.9-2,2v9.1c0,1.1.9,2,2,2Z"/>
      <path class="st16" d="M87.4,103.2v-9.5c1.3,0,2.3,1,2.3,2.3v5c-.1,1.2-1.1,2.2-2.3,2.2Z"/>
      <path class="st16" d="M84,84.8c-.7,0-1.4-.4-1.7-1.1-2.2-4.9-7-8-12.3-8s-10.1,3.1-12.3,8c-.4,1-1.5,1.4-2.5.9-.9-.4-1.4-1.6-.9-2.5,2.8-6.2,9-10.2,15.7-10.2s12.9,4,15.7,10.2c.4,1,0,2.1-.9,2.5-.3.1-.5.2-.8.2Z"/>
      <path class="st5" d="M85.4,91.9v-2.7c0-1.6-.2-3.2-.7-4.6"/>
      <path class="st5" d="M55.3,84.6c-.5,1.5-.7,3-.7,4.6v2.7"/>
      <path class="st5" d="M73.3,109.8h7.3c2.6,0,4.8-2.2,4.8-4.8"/>
      <path class="st5" d="M60.6,94.6c0-5.2,4.2-9.5,9.4-9.5s9.4,4.2,9.4,9.5-4.2,9.5-9.4,9.5-2.6-.3-3.8-.8l-5,1.8,1.2-5c-1.2-1.6-1.8-3.5-1.8-5.5Z"/>
      <path class="st5" d="M65,91.9h10"/>
      <path class="st5" d="M65,94.9h10"/>
      <path class="st5" d="M65,97.7h6.3"/>
    </g>
  </g>
  <g>
    <g>
      <path class="st0" d="M52.9,138.8v9.1c0,1,.8,1.8,1.8,1.8s1.8-.8,1.8-1.8v-9.1c0-1-.8-1.8-1.8-1.8s-1.8.8-1.8,1.8Z"/>
      <path class="st0" d="M72,153.7h-4.4c-.6,0-1,.5-1,1s.5,1,1,1h4.4c.6,0,1.1-.5,1.1-1s-.5-1-1.1-1Z"/>
      <path class="st0" d="M87.2,138.8c0-1-.8-1.8-1.8-1.8s-1.8.8-1.8,1.8v9.1c0,1,.8,1.8,1.8,1.8s1.8-.8,1.8-1.8v-9.1Z"/>
      <path class="st23" d="M52.4,147.9v-9c-.9.1-1.7,1-1.8,2v5c0,1.1.8,1.9,1.8,2Z"/>
      <path class="st23" d="M89.5,140.9c0-1.1-.8-1.9-1.8-2v9c.9-.1,1.7-1,1.8-2v-5Z"/>
      <path class="st14" d="M87.6,138.4c-.2-1-1-1.7-2-1.8v-2.5c0-1.7-.2-3.2-.6-4.4.9-.5,1.4-1.7.9-2.8-2.8-6.3-9.1-10.3-15.9-10.3s-13.1,4.1-15.9,10.3c-.3.5-.3,1-.1,1.6.2.5.6,1,1,1.2-.4,1.4-.6,2.8-.6,4.4v2.5c-1,.1-1.8.8-2,1.8-1.2.1-2.2,1.1-2.3,2.4v5c0,1.4,1,2.4,2.3,2.5.2,1,1.1,1.8,2.2,1.8s2.2-1,2.2-2.2v-9.1c0-1.2-.9-2.1-2-2.2v-2.5c0-1.6.2-2.9.6-4.2.2,0,.4.1.6.1s.5,0,.7-.1c.5-.2.9-.6,1.1-1.1,2.1-4.8,6.9-7.9,12.1-7.9s9.9,3.1,12.1,7.8c.3.8,1.1,1.3,1.9,1.3s.4,0,.5-.1c.4,1.2.6,2.6.6,4.3v2.5c-1.1.1-2,1.1-2,2.2v9.1c0,1.1.9,2.1,2,2.2-.1,2.4-2.1,4.3-4.5,4.3h-7.1c-.1-.7-.8-1.3-1.5-1.3h-4.4c-.8,0-1.5.7-1.5,1.5s.7,1.5,1.5,1.5h4.4c.8,0,1.4-.6,1.5-1.3h7.1c2.7,0,4.9-2.2,5-4.8,1-.1,1.8-.8,2-1.8,1.2-.1,2.2-1.1,2.3-2.4v-5c0-1.4-1-2.4-2.3-2.5ZM50.6,140.9c0-1,.9-1.8,1.8-2v9c-1-.1-1.8-1-1.8-2v-5ZM56.4,138.8v9.1c0,1-.8,1.8-1.8,1.8s-1.8-.8-1.8-1.8v-9.1c0-1,.8-1.8,1.8-1.8s1.8.8,1.8,1.8ZM82.6,128.5c-2.2-4.9-7.1-8.1-12.5-8.1s-10.3,3.2-12.5,8.2c-.2.4-.5.7-.9.9-.4.2-.9.1-1.3,0-.4-.2-.7-.5-.9-1-.1-.4-.1-.8,0-1.2,2.8-6.1,8.8-10.1,15.5-10.1s12.7,3.9,15.5,10c.4.9,0,1.8-.7,2.2h-.2c-.2.1-.3.2-.5.2-.6,0-1.2-.4-1.5-1ZM72,155.8h-4.4c-.6,0-1-.5-1-1s.5-1,1-1h4.4c.6,0,1.1.5,1.1,1s-.5,1-1.1,1ZM87.7,147.9v-9c1,.1,1.8,1,1.8,2v5c0,1-.9,1.8-1.8,2ZM85.4,149.7c-1,0-1.8-.8-1.8-1.8v-9.1c0-1,.8-1.8,1.8-1.8s1.8.8,1.8,1.8v9.1c0,1-.8,1.8-1.8,1.8Z"/>
      <path class="st23" d="M84.8,129.3c.8-.3,1.1-1.3.7-2.2-2.8-6.1-8.8-10-15.5-10s-12.7,3.9-15.5,10.1c-.2.4-.2.8,0,1.2.1.4.5.8.9,1,.4.2.9.3,1.3,0,.4-.1.7-.5.9-.9,2.2-5,7.1-8.2,12.5-8.2s10.3,3.2,12.5,8.1c.2.6.8,1,1.5,1s.3,0,.5-.1h.2Z"/>
    </g>
    <g>
      <path class="st25" d="M70,130.3c-5,0-9.1,4.1-9.1,9.2s.6,3.8,1.8,5.3c0,0,0,.1,0,.2l-1.1,4.5,4.6-1.6c0,0,.1,0,.2,0,1.3.5,2.5.8,3.7.8,5,0,9.2-4.1,9.2-9.2s-4.1-9.2-9.2-9.2ZM71.3,142.9h-6.3c-.1,0-.2-.1-.2-.2s.1-.2.2-.2h6.3c.1,0,.2.1.2.2s-.1.2-.2.2ZM75,140.1h-10c-.1,0-.2-.1-.2-.2s.1-.2.2-.2h10c.1,0,.2.1.2.2s-.1.2-.2.2ZM75,137.1h-10c-.1,0-.2-.1-.2-.2s.1-.2.2-.2h10c.1,0,.2.1.2.2s-.1.2-.2.2Z"/>
      <path class="st14" d="M70,129.8c-5.3,0-9.6,4.4-9.6,9.8s.6,4,1.8,5.6l-1.2,4.9c0,0,0,.2,0,.2,0,0,.1,0,.2,0s0,0,0,0l4.9-1.8c1.3.5,2.5.8,3.8.8,5.3,0,9.7-4.4,9.7-9.8s-4.3-9.8-9.7-9.8ZM70,148.8c-1.2,0-2.4-.2-3.7-.8,0,0-.1,0-.2,0l-4.6,1.6,1.1-4.5c0,0,0-.1,0-.2-1.1-1.5-1.8-3.4-1.8-5.3,0-5.1,4.1-9.2,9.1-9.2s9.2,4.1,9.2,9.2-4.1,9.2-9.2,9.2Z"/>
      <path class="st14" d="M75,136.6h-10c-.1,0-.2.1-.2.2s.1.2.2.2h10c.1,0,.2-.1.2-.2s-.1-.2-.2-.2Z"/>
      <path class="st14" d="M75,139.6h-10c-.1,0-.2.1-.2.2s.1.2.2.2h10c.1,0,.2-.1.2-.2s-.1-.2-.2-.2Z"/>
      <path class="st14" d="M71.3,142.4h-6.3c-.1,0-.2.1-.2.2s.1.2.2.2h6.3c.1,0,.2-.1.2-.2s-.1-.2-.2-.2Z"/>
    </g>
  </g>
  <g>
    <rect class="st19" x="-66.8" y="192.5" width="19.2" height="34.6" rx="-14.2" ry="-14.2"/>
    <path class="st16" d="M-66.8,192.5h19.2v1.2c0,1.5-1.2,2.7-2.7,2.7h-13.8c-1.5,0-2.7-1.2-2.7-2.7v-1.2h0Z" transform="translate(-114.4 388.9) rotate(-180)"/>
    <path class="st16" d="M-66.8,223.2h19.2v1.2c0,1.5-1.2,2.7-2.7,2.7h-13.8c-1.5,0-2.7-1.2-2.7-2.7v-1.2h0Z"/>
    <circle class="st25" cx="-57.2" cy="225.1" r="1.1"/>
    <g>
      <circle class="st14" cx="-59.7" cy="194.4" r=".4"/>
      <rect class="st14" x="-58.5" y="194" width="4.3" height=".9" rx="-24.9" ry="-24.9"/>
    </g>
    <g>
      <circle class="st23" cx="-57.2" cy="218.2" r="3.7"/>
      <path class="st14" d="M-55.1,219.1c-.2-.1-.6-.3-.8-.4,0,0-.2,0-.3,0,0,0-.2.3-.3.4-.1.1-.2.1-.3,0-.1,0-.3-.1-.4-.2-.4-.2-.8-.6-1-1,0,0,0,0,0-.2,0-.2.2-.2.3-.4,0-.1,0-.2,0-.3,0-.2-.2-.7-.4-.9,0,0,0-.1-.2-.1-.3,0-.4,0-.6.2-.7.8,0,1.8.5,2.5.6.7,1.5,1.3,2.4,1.4.6,0,1.2-.2,1.2-.8,0-.1,0-.2-.1-.3Z"/>
    </g>
    <g>
      <path class="st19" d="M-34.8,214.1c0-3.9-3.6-7.1-8.1-7.1-4.5,0-8.1,3.2-8.1,7.1s3.6,7.1,8.1,7.1c1.3,0,2.5-.3,3.5-.7l2.8.7-.5-2.2c1.4-1.3,2.3-3,2.3-4.9Z"/>
      <g>
        <circle class="st14" cx="-47.1" cy="214.6" r="1.1"/>
        <circle class="st14" cx="-43" cy="214.6" r="1.1"/>
        <circle class="st14" cx="-38.8" cy="214.6" r="1.1"/>
      </g>
    </g>
    <g>
      <path class="st19" d="M-57.4,205.5c0-3.9,3.6-7.1,8.1-7.1s8.1,3.2,8.1,7.1-3.6,7.1-8.1,7.1-2.5-.3-3.5-.7l-2.8.7.5-2.2c-1.4-1.3-2.3-3-2.3-4.9Z"/>
      <path class="st14" d="M-49.9,207.3v-.2c0-.5,0-.8.1-1.1s.2-.5.4-.7c.2-.2.4-.4.7-.6.2-.1.4-.3.5-.4.1-.2.3-.3.3-.5s.1-.4.1-.6c0-.3,0-.6-.2-.8-.1-.2-.3-.4-.6-.5-.2-.1-.5-.2-.8-.2s-.6,0-.8.2c-.2.1-.4.3-.6.5s-.2.5-.3.9h-.8c0-.5.1-.9.4-1.2.2-.3.5-.6.9-.8.4-.2.8-.3,1.2-.3s.9,0,1.3.3.6.5.8.8.3.7.3,1.2,0,.6-.1.8c0,.2-.2.5-.4.7-.2.2-.4.4-.7.6-.3.2-.5.3-.6.5-.2.2-.3.4-.3.6,0,.2-.1.5-.1.8v.2h-.8ZM-49.5,209.9c-.2,0-.3,0-.4-.2-.1-.1-.2-.3-.2-.4s0-.3.2-.4c.1-.1.3-.2.4-.2s.3,0,.4.2.2.3.2.4,0,.2,0,.3-.1.2-.2.2c0,0-.2,0-.3,0Z"/>
    </g>
  </g>
  <g>
    <path class="st25" d="M-145.4,214.1c0-.5,0-.9.1-1.4-.6-.1-1.2-.3-1.8-.5l-2.7.7s0,0,0,0c0,0-.1,0-.2,0,0,0,0-.2,0-.2l.5-2c-1.4-1.4-2.2-3.1-2.2-5,0-4.1,3.7-7.4,8.3-7.4s1,0,1.5.1v-1.6h-18.7v26.3h18.7v-2.9c-2-1.3-3.4-3.5-3.4-5.9ZM-151.3,221.9c-2,0-3.7-1.6-3.7-3.7s1.6-3.7,3.7-3.7,3.7,1.6,3.7,3.7-1.6,3.7-3.7,3.7Z"/>
    <path class="st23" d="M-158.3,192.7c-1.4,0-2.5,1.1-2.5,2.5v1h18.7v-1c0-1.4-1.1-2.5-2.5-2.5h-13.8ZM-152.2,194h3.4c.2,0,.4.2.4.4s-.2.4-.4.4h-3.4c-.2,0-.4-.2-.4-.4s.2-.4.4-.4ZM-153.9,194c.2,0,.4.2.4.4s-.2.4-.4.4-.4-.2-.4-.4.2-.4.4-.4Z"/>
    <path class="st23" d="M-160.7,224.4c0,1.4,1.1,2.5,2.5,2.5h13.8c1.4,0,2.5-1.1,2.5-2.5v-1h-18.7v1ZM-151.3,224.1c.6,0,1.1.5,1.1,1.1s-.5,1.1-1.1,1.1-1.1-.5-1.1-1.1.5-1.1,1.1-1.1Z"/>
    <path class="st25" d="M-151.3,226.2c.6,0,1.1-.5,1.1-1.1s-.5-1.1-1.1-1.1-1.1.5-1.1,1.1.5,1.1,1.1,1.1Z"/>
    <circle class="st14" cx="-153.9" cy="194.4" r=".4"/>
    <path class="st14" d="M-152.2,194.9h3.4c.2,0,.4-.2.4-.4s-.2-.4-.4-.4h-3.4c-.2,0-.4.2-.4.4s.2.4.4.4Z"/>
    <path class="st23" d="M-151.3,214.5c-2,0-3.7,1.6-3.7,3.7s1.6,3.7,3.7,3.7,3.7-1.6,3.7-3.7-1.6-3.7-3.7-3.7ZM-149.1,219.4c0,.6-.6.9-1.2.8-.9-.1-1.8-.7-2.4-1.4-.6-.7-1.2-1.7-.5-2.5.2-.2.3-.2.6-.2,0,0,.1,0,.2.1.1.2.3.6.4.9,0,.1,0,.2,0,.3,0,.1-.3.2-.3.4,0,0,0,.1,0,.2.2.4.6.8,1,1,.1,0,.3.2.4.2.1,0,.2,0,.3,0,.1-.1.2-.3.3-.4,0,0,.2,0,.3,0,.2,0,.6.3.8.4.1,0,.1.1.1.3Z"/>
    <path class="st14" d="M-150.1,218.7c0,0-.2,0-.3,0,0,0-.2.3-.3.4-.1.1-.2.1-.3,0-.1,0-.3-.1-.4-.2-.4-.2-.8-.6-1-1,0,0,0,0,0-.2,0-.2.2-.2.3-.4,0-.1,0-.2,0-.3,0-.2-.2-.7-.4-.9,0,0,0-.1-.2-.1-.3,0-.4,0-.6.2-.7.8,0,1.8.5,2.5.6.7,1.5,1.3,2.4,1.4.6,0,1.2-.2,1.2-.8,0-.1,0-.2-.1-.3-.2-.1-.6-.3-.8-.4Z"/>
    <path class="st25" d="M-131.4,218.8c1.4-1.3,2.2-3,2.2-4.8,0-3.3-2.7-6.1-6.2-6.7-.9,3.2-4.2,5.5-8,5.5s-.8,0-1.2,0c0,.4-.1.8-.1,1.3,0,3.8,3.5,6.9,7.8,6.9s2.4-.2,3.4-.7c0,0,.1,0,.2,0l2.4.6-.4-1.8c0,0,0-.2,0-.2ZM-141.3,215.6c-.6,0-1.1-.5-1.1-1.1s.5-1.1,1.1-1.1,1.1.5,1.1,1.1-.5,1.1-1.1,1.1ZM-137.1,215.6c-.6,0-1.1-.5-1.1-1.1s.5-1.1,1.1-1.1,1.1.5,1.1,1.1-.5,1.1-1.1,1.1ZM-133,215.6c-.6,0-1.1-.5-1.1-1.1s.5-1.1,1.1-1.1,1.1.5,1.1,1.1-.5,1.1-1.1,1.1Z"/>
    <path class="st14" d="M-128.8,214.1c0-3.5-2.8-6.5-6.6-7.2,0-.4.1-.9.1-1.4,0-3.4-2.7-6.3-6.3-7.1v-3.2c0-1.6-1.3-3-3-3h-13.8c-1.6,0-3,1.3-3,3v1.2s0,0,0,0v28c0,1.6,1.3,3,3,3h13.8c1.6,0,3-1.3,3-3v-4.1c1.3.7,2.8,1.2,4.4,1.2s2.4-.2,3.5-.7l2.7.7s0,0,0,0c0,0,.1,0,.2,0,0,0,0-.2,0-.2l-.5-2c1.4-1.4,2.2-3.1,2.2-5ZM-133.5,220.2c0,0-.1,0-.2,0-1.1.5-2.2.7-3.4.7-4.3,0-7.8-3.1-7.8-6.9s0-.9.1-1.3c.4,0,.8,0,1.2,0,3.9,0,7.1-2.4,8-5.5,3.5.6,6.2,3.4,6.2,6.7s-.8,3.5-2.2,4.8c0,0,0,.2,0,.2l.4,1.8-2.4-.6ZM-142,224.4c0,1.4-1.1,2.5-2.5,2.5h-13.8c-1.4,0-2.5-1.1-2.5-2.5v-1h18.7v1ZM-142,195.2v1h-18.7v-1c0-1.4,1.1-2.5,2.5-2.5h13.8c1.4,0,2.5,1.1,2.5,2.5ZM-160.7,222.9v-26.3h18.7v1.6c-.5,0-1-.1-1.5-.1-4.6,0-8.3,3.3-8.3,7.4s.8,3.7,2.2,5l-.5,2c0,0,0,.2,0,.2,0,0,.1,0,.2,0s0,0,0,0l2.7-.7c.6.2,1.2.4,1.8.5,0,.4-.1.9-.1,1.4,0,2.4,1.3,4.6,3.4,5.9v2.9h-18.7ZM-143.5,212.4c-1.2,0-2.4-.2-3.4-.7,0,0,0,0,0,0s0,0,0,0l-2.4.6.4-1.8c0,0,0-.2,0-.2-1.4-1.3-2.2-3-2.2-4.8,0-3.8,3.5-6.9,7.8-6.9s7.8,3.1,7.8,6.9-3.5,6.9-7.8,6.9Z"/>
    <path class="st14" d="M-141.3,213.5c-.6,0-1.1.5-1.1,1.1s.5,1.1,1.1,1.1,1.1-.5,1.1-1.1-.5-1.1-1.1-1.1Z"/>
    <circle class="st14" cx="-137.1" cy="214.6" r="1.1"/>
    <circle class="st14" cx="-133" cy="214.6" r="1.1"/>
    <path class="st25" d="M-143.5,198.6c-4.3,0-7.8,3.1-7.8,6.9s.8,3.5,2.2,4.8c0,0,0,.2,0,.2l-.4,1.8,2.4-.6s0,0,0,0c0,0,0,0,0,0,1.1.5,2.2.7,3.4.7,4.3,0,7.8-3.1,7.8-6.9s-3.5-6.9-7.8-6.9ZM-145.9,203.3c0-.5.1-.9.4-1.2.2-.3.5-.6.9-.8.4-.2.8-.3,1.2-.3s.9,0,1.3.3.6.5.8.8.3.7.3,1.2,0,.6-.1.8c0,.2-.2.5-.4.7-.2.2-.4.4-.7.6-.3.2-.5.3-.6.5-.2.2-.3.4-.3.6,0,.2-.1.5-.1.8v.2h-.8v-.2c0-.5,0-.8.1-1.1,0-.3.2-.5.4-.7.2-.2.4-.4.7-.6.2-.1.4-.3.5-.4.1-.2.3-.3.3-.5,0-.2.1-.4.1-.6,0-.3,0-.6-.2-.8-.1-.2-.3-.4-.6-.5-.2-.1-.5-.2-.8-.2s-.6,0-.8.2c-.2.1-.4.3-.6.5-.2.2-.2.5-.3.9h-.8ZM-143.7,209.9c-.2,0-.3,0-.4-.2-.1-.1-.2-.3-.2-.4s0-.3.2-.4c.1-.1.3-.2.4-.2s.3,0,.4.2.2.3.2.4,0,.2,0,.3c0,0-.1.2-.2.2,0,0-.2,0-.3,0Z"/>
    <path class="st14" d="M-144.3,201.8c.2-.1.5-.2.8-.2s.6,0,.8.2c.2.1.4.3.6.5.1.2.2.5.2.8s0,.4-.1.6c0,.2-.2.4-.3.5-.1.2-.3.3-.5.4-.3.2-.5.4-.7.6-.2.2-.3.4-.4.7,0,.3-.1.7-.1,1.1v.2h.8v-.2c0-.3,0-.6.1-.8,0-.2.2-.4.3-.6.2-.2.4-.3.6-.5.3-.2.5-.4.7-.6.2-.2.3-.4.4-.7,0-.2.1-.5.1-.8,0-.4-.1-.8-.3-1.2s-.5-.6-.8-.8-.8-.3-1.3-.3-.9,0-1.2.3c-.4.2-.7.5-.9.8-.2.3-.3.8-.4,1.2h.8c0-.4,0-.7.3-.9.2-.2.4-.4.6-.5Z"/>
    <path class="st14" d="M-143.2,209.6c0,0,0-.2,0-.3,0-.2,0-.3-.2-.4s-.3-.2-.4-.2-.3,0-.4.2c-.1.1-.2.3-.2.4s0,.3.2.4c.1.1.3.2.4.2s.2,0,.3,0c0,0,.2-.1.2-.2Z"/>
  </g>
  <g>
    <g>
      <g>
        <polygon class="st22" points="-23.8 208.5 -16.2 208.5 -13.2 212 -20.7 212 -23.8 208.5"/>
        <polygon class="st17" points="-1.9 208.5 4.2 208.5 0 211.2 -6.6 212 -1.9 208.5"/>
        <polyline class="st17" points="-20.7 212 -23.8 216.3 -20.7 216.3"/>
        <polyline class="st17" points="0 211.2 2.6 213.7 0 213.7"/>
        <rect class="st22" x="-20.7" y="212" width="14.1" height="15.2"/>
        <polygon class="st17" points="0 211.2 -6.6 212 -6.6 227.2 0 226.1 0 211.2"/>
      </g>
      <rect class="st23" x="-12.4" y="225" width="4.3" height="1.1"/>
      <rect class="st23" x="-12.4" y="223.3" width="4.3" height="1.1"/>
      <polygon class="st14" points="0 208.5 -4.3 211.7 -1.4 211.3 2.2 208.5 0 208.5"/>
      <path class="st14" d="M1.8,205.7c-.3.2-.6.6-1,1-.5.7-.7,1.4-.8,1.8h2.2c0-.4.3-.9.7-1.5.5-.7,1.1-1.2,1.5-1.4H1.8Z"/>
      <path class="st14" d="M-20.4,205.7c.3.2.6.6,1,1,.5.7.7,1.4.8,1.8h-2.2c0-.4-.3-.9-.7-1.5-.5-.7-1.1-1.2-1.5-1.4h2.6Z"/>
      <polygon class="st25" points="-3.3 215.7 -5.6 216 -5.6 213.2 -3.3 212.8 -3.3 215.7"/>
    </g>
    <g>
      <rect class="st25" x="-9.6" y="200.7" width="6" height="10.4" rx="1.2" ry="1.2" transform="translate(128.2 50.2) rotate(39)"/>
      <rect class="st4" x="-10.6" y="200.3" width="7.1" height="10.4" rx="1.8" ry="1.8" transform="translate(127.9 50.4) rotate(39)"/>
      <path class="st6" d="M-8.7,204.9c.1-.2.3-.5.7-.8.9-.6,1.8-.4,2.2-.3,1,.3,1.7.8,2,1.1-.1,0-.3,0-.5.1-1.3.5-1.4,1.4-2.4,1.6-.5,0-1,0-1.1-.1-.4-.2-.6-.4-.8-.6"/>
      <path class="st6" d="M-5.9,204.8c-.3,0-.6,0-1.1.2-.7.2-1.3.5-1.6.7-.3.2-.5.4-.9.7"/>
      <path class="st4" d="M-3.7,198.4l2.9,2.3c.3.2.3.6,0,.9l-.5.6c0,0-.2.1-.3,0l-3.5-2.8c0,0-.1-.2,0-.3l.5-.6c.2-.3.6-.3.9,0Z"/>
      <path class="st4" d="M-1.6,202.2l-3.4-2.8-.5.7,3.4,2.8.5-.7Z"/>
    </g>
    <g>
      <rect class="st25" x="-17.8" y="193.9" width="6" height="10.4" rx="-2.9" ry="-2.9" transform="translate(-66.6 6.3) rotate(-19.3)"/>
      <rect class="st4" x="-18.9" y="194.1" width="7.1" height="10.4" rx="-2.4" ry="-2.4" transform="translate(-66.7 6.1) rotate(-19.3)"/>
      <path class="st6" d="M-16.5,200.1c0-.2-.2-.5-.2-.8,0-.8.5-1.4.7-1.7.6-.6,1.3-.8,1.6-.9,0,0,0,.2-.1.4-.2,1.1.3,1.6,0,2.3-.2.4-.5.6-.5.7-.3.2-.6.3-.7.3"/>
      <path class="st6" d="M-15.3,198.2c-.1.2-.2.5-.3.8-.2.6-.2,1.1-.2,1.4,0,.3,0,.5.1.9"/>
      <path class="st4" d="M-19.6,192.7l3.5-1.2c.3-.1.7,0,.8.4l.3.8c0,.1,0,.2-.1.3l-4.2,1.5c-.1,0-.2,0-.3-.1l-.3-.8c-.1-.3,0-.7.4-.8Z"/>
      <path class="st4" d="M-15.3,192.9l-4.2,1.5.3.8,4.2-1.5-.3-.8Z"/>
    </g>
  </g>
  <g>
    <polygon class="st0" points="-183.1 193.2 -186.8 194.5 -186.7 194.8 -186.2 194.6 -183.3 193.6 -183.3 193.6 -183 193.5 -183.1 193.2"/>
    <path class="st0" d="M-184.2,203.5l-2.4-6.7c-.2-.5,0-1.1.2-1.5-.4.2-.7.4-.9.8-.2.4-.2.9,0,1.3l2.1,6.1c.3.8,1.2,1.3,2,1.1-.5-.1-1-.5-1.1-1Z"/>
    <polygon class="st0" points="-170.8 201.7 -169.9 202.5 -169.6 202.2 -172.2 200.1 -172.7 199.8 -172.9 200.1 -172.6 200.3 -172.6 200.3 -170.8 201.7"/>
    <path class="st0" d="M-179.1,208.3h0c-.2-.5-.1-1.2.3-1.7l4.2-5.2c.4-.5,1.1-.7,1.7-.6h0c-.3-.3-.7-.4-1.1-.4s-.1,0-.2,0c-.4,0-.9.3-1.1.6l-4.1,5c-.6.7-.5,1.8.2,2.4Z"/>
    <path class="st0" d="M-169.1,202h0s.5-.6.5-.6c0,0,0-.2,0-.3,0,0,0-.2-.1-.2l-2.9-2.3c0,0-.1,0-.2,0s-.2,0-.3.1l-.5.6,3.4,2.8Z"/>
    <path class="st0" d="M-183.3,192.7h.2c0,0-.3-.8-.3-.8,0,0,0-.2-.2-.2,0,0-.1,0-.2,0s0,0-.1,0l-3.5,1.2c0,0-.2,0-.2.2,0,0,0,.2,0,.3l.3.7,4-1.4Z"/>
    <polygon class="st25" points="-191 208.8 -188.4 211.8 -181.4 211.8 -184.1 208.8 -191 208.8"/>
    <polygon class="st23" points="-173.5 211.7 -171.7 211.4 -168 208.8 -169.6 208.8 -173.5 211.7"/>
    <polygon class="st23" points="-168.8 211.1 -167.8 210.9 -164.3 208.8 -165.8 208.8 -168.8 211.1"/>
    <polygon class="st23" points="-188.7 212.7 -191.1 216.1 -188.7 216.1 -188.7 212.7"/>
    <polygon class="st23" points="-167.5 211.7 -167.5 213.5 -165.7 213.5 -167.5 211.7"/>
    <path class="st14" d="M-167.3,211.2l4.7-2.9h-2.8c.1-.3.3-.8.6-1.3.5-.7,1.1-1.2,1.5-1.4h-2.6c-.3.2-.6.6-1,1-.4.6-.6,1.1-.8,1.6h-2.1l-4.7,3.5h-6.4l-3-3.5h-2.5c-.1-.4-.3-1-.8-1.6-.3-.5-.7-.8-1-1h-2.6c.4.2,1,.6,1.5,1.4.3.5.5.9.6,1.3h-3.4l3.2,3.7-3.2,4.5h3.3v10.9h14.1s.3,0,.3,0h.2s6.7-1.2,6.7-1.2v-12.3h2.9l-2.7-2.7ZM-167.9,211.4v14.5l-6.2,1v-14.7l6.2-.8ZM-188.4,211.8l-2.6-3h6.9l2.6,3h-6.9ZM-188.7,212.7v3.4h-2.4l2.4-3.4ZM-188.2,212.2h13.6v14.7h-13.6v-14.7ZM-167.8,210.9h-1c0,.1,3-2.2,3-2.2h1.5l-3.5,2.2ZM-171.7,211.4l-1.8.2,3.9-2.9h1.6l-3.7,2.7ZM-167.5,211.7l1.7,1.7h-1.7v-1.7Z"/>
    <path class="st25" d="M-174.6,212.2h-13.6v14.7h13.6v-14.7ZM-175.8,226.1h-4.3v-1.1h4.3v1.1ZM-175.8,224.4h-4.3v-1.1h4.3v1.1Z"/>
    <path class="st23" d="M-174.1,226.9l6.2-1v-14.5l-6.2.8v14.7ZM-171,215.7l-2.3.3v-2.8l2.3-.3v2.8Z"/>
    <rect class="st23" x="-180.1" y="225" width="4.3" height="1.1"/>
    <rect class="st23" x="-180.1" y="223.3" width="4.3" height="1.1"/>
    <polygon class="st25" points="-173.3 216 -171 215.7 -171 212.8 -173.3 213.2 -173.3 216"/>
    <path class="st25" d="M-174.6,201.3l-4.2,5.2c-.4.5-.5,1.2-.3,1.8l2.4,2c.7.6,1.8.5,2.4-.2l4.1-5c.3-.4.4-.8.4-1.2,0-.4-.3-.9-.6-1.1l-1.8-1.4-.7-.6c-.6,0-1.3.1-1.7.6ZM-171.3,204.9c0,0,0,.1-.1.1-.2,0-.3,0-.5.1-.6.2-.9.5-1.3.9-.3.3-.6.6-1.2.7-.1,0-.2,0-.4,0-.3,0-.6,0-.8-.2-.3-.1-.5-.3-.8-.6-.2.2-.4.3-.7.6,0,0,0,0-.1,0s0,0-.1,0c0,0,0-.2,0-.2.3-.3.6-.5.9-.7.5-.3,1.1-.6,1.7-.8.4,0,.7-.2,1.1-.2.1,0,.2,0,.2.2,0,0,0,.2-.2.2-.3,0-.7,0-1,.2-.5.1-1,.4-1.4.6.2.2.4.3.6.4.3.1.7.2,1,.1.4,0,.7-.3,1-.6.3-.3.7-.7,1.4-.9,0,0,.1,0,.2,0-.3-.2-.9-.6-1.7-.8-.4,0-1.3-.2-2.1.3-.3.2-.5.4-.7.7,0,0-.2.1-.2,0,0,0-.1-.2,0-.2.2-.4.5-.6.8-.9.9-.6,2-.5,2.4-.4.9.2,1.7.8,2.1,1.1,0,0,0,.1,0,.2Z"/>
    <path class="st14" d="M-179.5,208.7l2.5,2c.4.3.9.5,1.4.5s.2,0,.2,0c.6,0,1.1-.3,1.5-.8l4.1-5c.4-.5.5-1,.5-1.6,0-.3-.1-.6-.3-.8l.4-.5s0,0,0,0c.1,0,.3,0,.4-.2l.5-.6c.1-.2.2-.4.2-.6s-.1-.4-.3-.6l-2.9-2.3h0c-.4-.3-.9-.2-1.2.1l-.5.6c-.1.1-.1.3,0,.5l-.4.5c-.3,0-.6-.1-.8,0-.6,0-1.1.3-1.5.8l-4.1,5c-.8.9-.6,2.3.3,3.1ZM-172.1,198.6c0,0,.2-.1.3-.1s.2,0,.2,0l2.9,2.3c0,0,.1.1.1.2,0,0,0,.2,0,.3l-.5.6h0s-3.4-2.8-3.4-2.8l.5-.6ZM-172.9,200.1l.2-.3.4.4,2.6,2.1-.2.3-1-.8-1.8-1.4s0,0,0,0l-.3-.2ZM-179.4,205.9l4.1-5c.3-.4.7-.6,1.1-.6,0,0,.1,0,.2,0,.4,0,.8.1,1.1.4h0s.7.6.7.6l1.8,1.4c.4.3.6.7.6,1.1,0,.4,0,.9-.4,1.2l-4.1,5c-.6.7-1.7.8-2.4.2l-2.4-2h0c-.7-.6-.8-1.7-.2-2.4Z"/>
    <path class="st14" d="M-175.8,203.9c-.3.2-.6.5-.8.9,0,0,0,.2,0,.2,0,0,.2,0,.2,0,.2-.3.4-.6.7-.7.8-.5,1.7-.4,2.1-.3.8.2,1.4.6,1.7.8,0,0-.1,0-.2,0-.7.2-1,.6-1.4.9-.3.3-.6.6-1,.6-.3,0-.6,0-1-.1-.2,0-.4-.2-.6-.4.4-.3.9-.5,1.4-.6.3,0,.7-.2,1-.2,0,0,.2,0,.2-.2,0,0,0-.2-.2-.2-.4,0-.7,0-1.1.2-.6.2-1.2.4-1.7.8-.3.2-.6.4-.9.7,0,0,0,.2,0,.2,0,0,0,0,.1,0s0,0,.1,0c.3-.2.5-.4.7-.6.2.2.5.4.8.6.3.1.6.2.8.2s.2,0,.4,0c.5-.1.9-.4,1.2-.7.3-.3.7-.6,1.3-.9.2,0,.3,0,.5-.1,0,0,.1,0,.1-.1,0,0,0-.1,0-.2-.4-.4-1.1-.9-2.1-1.1-.4-.1-1.5-.3-2.4.4Z"/>
    <path class="st25" d="M-186.6,196.7l2.4,6.7c.2.5.6.9,1.1,1,0,0,0,0,.1,0l3-1.1c.9-.3,1.3-1.3,1-2.2l-2.1-6.1c-.1-.4-.5-.8-.9-1-.2-.1-.5-.2-.7-.2s-.4,0-.6,0l-3,1.1s0,0-.1,0c-.3.4-.4,1-.2,1.5ZM-183.8,197.5c.6-.6,1.3-.9,1.7-.9,0,0,.1,0,.2,0,0,0,0,.1,0,.2,0,0,0,.2-.1.4-.1.5,0,.9,0,1.2,0,.4.2.7,0,1.1-.1.3-.3.6-.6.8-.2.1-.4.2-.7.3,0,.2,0,.4,0,.7,0,0,0,.2-.1.2,0,0,0,0,0,0,0,0-.2,0-.2-.1,0-.4-.1-.6-.1-.9,0-.5,0-1,.2-1.5,0-.3.2-.6.3-.8,0,0,.2-.1.2,0,0,0,.1.2,0,.2-.1.2-.2.5-.3.8-.1.4-.2.8-.2,1.2.2,0,.3-.1.5-.2.2-.2.4-.4.5-.6.1-.3,0-.6,0-.9,0-.4-.2-.8,0-1.4,0,0,0,0,0-.1-.3.1-.8.3-1.2.8-.3.3-.7.8-.7,1.5,0,.3,0,.5.2.8,0,0,0,.2,0,.2,0,0-.2,0-.2,0-.2-.3-.2-.6-.3-.9,0-.9.5-1.5.8-1.8Z"/>
    <path class="st14" d="M-184.1,200.3c0,0,.1-.2,0-.2-.1-.2-.2-.5-.2-.8,0-.7.4-1.3.7-1.5.4-.4.9-.6,1.2-.8,0,0,0,0,0,.1-.1.6,0,1,0,1.4,0,.3.1.6,0,.9,0,.2-.3.4-.5.6-.1.1-.3.2-.5.2,0-.4,0-.8.2-1.2,0-.3.2-.5.3-.8,0,0,0-.2,0-.2,0,0-.2,0-.2,0-.1.3-.3.5-.3.8-.1.5-.2,1-.2,1.5,0,.3,0,.6.1.9,0,0,0,.1.2.1s0,0,0,0c0,0,.2-.1.1-.2,0-.3,0-.5,0-.7.3,0,.5-.1.7-.3.3-.2.5-.5.6-.8.2-.4,0-.8,0-1.1,0-.4-.2-.7,0-1.2,0-.2,0-.3.1-.4,0,0,0-.1,0-.2,0,0-.1,0-.2,0-.4,0-1.1.4-1.7.9-.3.3-.8.9-.8,1.8,0,.3.1.6.3.9,0,0,.2.1.2,0Z"/>
    <path class="st14" d="M-187.7,194.3c0,.2.2.3.4.3l.2.6c-.2.2-.4.4-.5.7-.3.5-.3,1.1,0,1.7l2.1,6.1c.3.9,1.2,1.5,2.1,1.5s.5,0,.7-.1l3-1.1c1.1-.4,1.7-1.7,1.3-2.8l-2.1-6.1c-.2-.6-.6-1-1.1-1.3-.3-.1-.5-.2-.8-.2l-.2-.5s0,0,0-.1c0-.1,0-.2,0-.4l-.3-.8c0-.2-.2-.4-.4-.5-.2-.1-.4-.1-.7,0l-3.5,1.2c-.2,0-.4.2-.5.4-.1.2-.1.4,0,.7l.3.8ZM-183.3,193.6l-2.8,1-.5.2v-.3c-.1,0,3.6-1.3,3.6-1.3v.3c.1,0-.2.1-.2.1,0,0,0,0,0,0ZM-185.1,203.5l-2.1-6.1c-.1-.4-.1-.9,0-1.3.2-.4.5-.7.9-.8,0,0,0,0,.1,0l3-1.1c.2,0,.4,0,.6,0s.5,0,.7.2c.4.2.7.5.9,1l2.1,6.1c.3.9-.2,1.8-1,2.2l-3,1.1s0,0-.1,0c-.8.2-1.8-.2-2-1.1ZM-187.5,193.1c0,0,.1-.2.2-.2l3.5-1.2s0,0,.1,0,.1,0,.2,0c0,0,.2.1.2.2l.3.7h-.2c0,0-4,1.5-4,1.5l-.3-.7c0,0,0-.2,0-.3Z"/>
  </g>
  <g id="TCGvbv">
    <image id="TCGvbv1" data-name="TCGvbv" width="512" height="512" transform="translate(14.1 194.8) scale(0)" xlink:href="Promotions-1.png"/>
  </g>
  <g id="ef76IK">
    <image id="ef76IK1" data-name="ef76IK" width="512" height="512" transform="translate(82.9 269.6) scale(.2)" xlink:href="Promotions-2.png"/>
  </g>
  <rect class="st25" x="87.6" y="197.7" width="27.1" height="27.1"/>
  <rect class="st23" x="104.2" y="221.2" width="9.2" height="2.3"/>
  <rect class="st23" x="104.2" y="217.5" width="9.2" height="2.3"/>
  <g>
    <polyline class="st3" points="87.9 197.9 114.7 197.9 114.7 224.7 108.3 224.7"/>
    <polyline class="st3" points="96.9 224.7 87.8 224.7 87.8 216.2"/>
    <polygon class="st14" points="104.8 204.6 101.7 203.1 98.6 204.6 98.6 197.9 104.8 197.9 104.8 204.6"/>
    <polyline class="st5" points="85 194.9 97.6 207.9 88.7 217.1 85 213.7"/>
    <path class="st3" d="M96.2,209.3l1,1c.3.3.6.5.9.6s1.2.3,2.3.5,2.2.5,3,1.2c2.1,1.8,3.9,4.3,4.8,5.5s.1.5,0,.7h0c-.8.8-2.1.8-2.9,0l-1.6-1.5"/>
    <path class="st3" d="M89.8,216l1.2,1.2c.2.2.3.5.3.8,0,.5.2,1.5,1.1,2.5s5.2,5,6.9,6.6,1.1.4,1.5,0h0c.4-.4.5-1.1,0-1.5l-1.3-1.4"/>
    <path class="st3" d="M102.5,223.4l2.3,2.4c.5.5.5,1.3,0,1.8h0c-.5.4-1.2.4-1.7,0l-2.9-2.7"/>
    <path class="st3" d="M105.1,222.6l2.2,2.1c.5.5.5,1.4,0,1.9h0c-.5.4-1.2.4-1.7,0l-1-1"/>
    <path class="st3" d="M103.6,217.4l5.3,5.2c.5.5.5,1.4,0,1.8h0c-.5.5-1.3.5-1.8,0l-2.2-2.1"/>
    <circle class="st21" cx="114.9" cy="203.9" r="7.8"/>
    <path class="st14" d="M113.5,207.4c-.3,0-.5-.1-.7-.3l-2.2-2.2c-.4-.4-.4-1.1,0-1.5s1.1-.4,1.5,0l1.5,1.5,4.5-4.1c.4-.4,1.1-.4,1.5,0,.4.4.4,1.1,0,1.5l-5.3,4.8c-.2.2-.4.3-.7.3Z"/>
  </g>
  <g>
    <path class="st0" d="M-3.1,278.6c.3.3.8.3,1.1,0,.2-.2.3-.4.3-.6,0-.2,0-.4-.2-.6l-.9-.9h-2.5c.9.8,1.7,1.6,2.2,2.1Z"/>
    <path class="st0" d="M.6,279c.4.4,1,.4,1.3,0,.2-.2.3-.4.3-.7,0-.3,0-.5-.3-.7l-1.1-1.2h-3l2.7,2.6Z"/>
    <path class="st0" d="M4.4,276.5H1.6l.6.6s0,0,.1,0l1,1c.4.4.9.4,1.3,0,.2-.2.3-.5.3-.8s-.1-.6-.3-.8h-.1Z"/>
    <path class="st25" d="M-5.9,261.1l.8.8c.2.2.5.4.8.5.4.1,1.2.3,2.2.5,1.3.2,2.3.5,3.2,1.3,1.9,1.7,3.6,3.8,4.5,5.1h5.3v2.3H3.9l1.4,1.4h5.6v2.3h-4s0,0,0,0c0,.4-.2.7-.4.9h5.3v-12.5c-4.3-.2-7.6-3.7-7.6-8.1s.9-4.3,2.4-5.8H2.2v6.4l-3.1-1.4-3.1,1.4v-6.4h-10.1l9.3,9.6c0,0,0,.3,0,.3l-1.2,1.2Z"/>
    <path class="st25" d="M-14.5,276.2H-6.3c-1.6-1.6-3.4-3.2-4-3.9-1-1-1.2-2.1-1.2-2.6,0-.2,0-.4-.2-.6l-1-1-.9.9c0,0-.1,0-.2,0s-.1,0-.2,0l-.5-.5v7.7Z"/>
    <path class="st23" d="M10.9,272.9h-5.6l1.3,1.2c.3.3.4.7.4,1.1h4v-2.3Z"/>
    <path class="st23" d="M10.9,269.2h-5.3c.1.2.3.4.4.5.2.3.2.8-.1,1.1-.5.4-1.1.7-1.7.7s-.3,0-.4,0h.1c0,.1,7,.1,7,.1v-2.3Z"/>
    <path class="st25" d="M19.9,255.6c0-4.2-3.4-7.6-7.6-7.6s-7.6,3.4-7.6,7.6,3.4,7.6,7.6,7.6,7.6-3.4,7.6-7.6ZM11.6,258.9c-.2.2-.4.3-.7.3s-.5-.1-.7-.3l-2.2-2.2c-.4-.4-.4-1.1,0-1.5.4-.4,1.1-.4,1.5,0l1.5,1.5,4.5-4.1c.4-.4,1.1-.4,1.5,0,.4.4.4,1.1,0,1.5l-5.3,4.8Z"/>
    <path class="st14" d="M20.4,255.6c0-4.5-3.6-8.1-8.1-8.1s-3.7.7-5.1,1.8H-14.6l-2.8-2.9c0,0-.3-.1-.4,0s-.1.3,0,.4l2.8,2.9h0c0,0,0,0,0,0l9.6,9.9-1.2,1.2s0,0,0,0,0,0,0,0l-7.3,7.6-1.1-1-2.4-2.2c-.1,0-.3,0-.4,0,0,.1,0,.3,0,.4l2.7,2.5v8.6H-5.8c.9.9,1.8,1.7,2.3,2.2.3.2.6.4.9.4s.7-.1.9-.4c.3-.2.4-.6.4-.9l1.4,1.4c.3.3.7.4,1,.4s.7-.1,1-.4c.3-.3.5-.7.5-1.1,0,0,0,0,0,0h0c.3.4.7.5,1,.5s.7-.1,1-.4c.3-.3.5-.7.5-1.1,0-.2,0-.4-.1-.6,0,0,0,0,.1,0,.1,0,.2,0,.3,0,0,0,0,0,0,0h6.7v-13c4.4,0,8-3.6,8-8.1ZM12.3,263.2c-4.2,0-7.6-3.4-7.6-7.6s3.4-7.6,7.6-7.6,7.6,3.4,7.6,7.6-3.4,7.6-7.6,7.6ZM-4.7,259.5l-9.3-9.6H-4v6.4l3.1-1.4,3.1,1.4v-6.4h4.4c-1.5,1.5-2.4,3.5-2.4,5.8,0,4.3,3.4,7.8,7.6,8.1v12.5h-5.3c.2-.3.4-.6.4-.9,0,0,0,0,0,0,0-.4-.1-.8-.4-1.1l-1.3-1.2-1.4-1.4h-.1c.1,0,.3,0,.4,0,.6,0,1.2-.2,1.7-.7.3-.3.3-.7.1-1.1,0-.1-.2-.3-.4-.5-.9-1.2-2.6-3.4-4.5-5.1-.9-.8-1.9-1.1-3.2-1.3-1.1-.2-1.8-.4-2.2-.5-.3,0-.6-.3-.8-.5l-.8-.8,1.2-1.2c0,0,0-.3,0-.3ZM-13.8,269.1c0,0,.1,0,.2,0l.9-.9,1,1c.1.2.2.4.2.6,0,.5.2,1.6,1.2,2.6.7.7,2.4,2.3,4,3.9h-8.2v-7.7l.5.5s.1,0,.2,0ZM4.5,278.1c-.4.4-1,.3-1.3,0l-1-1s0,0-.1,0l-.6-.6-1.5-1.5c0,0-.3-.1-.4,0,0,0-.1.3,0,.4l1.1,1.2,1.1,1.2c.2.2.3.5.3.7,0,.3-.1.5-.3.7-.4.3-1,.3-1.3,0l-2.7-2.6h-.2c0-.1-.6-.8-.6-.8,0,0-.3-.1-.4,0,0,0-.1.3,0,.4l.4.4.9.9c.2.2.2.4.2.6,0,.2,0,.4-.3.6-.3.3-.8.3-1.1,0-.6-.5-1.4-1.3-2.2-2.1-1.8-1.7-3.9-3.8-4.7-4.5-.9-.9-1-1.8-1-2.3,0-.4-.1-.7-.4-.9l-1-1.1,6.1-6.3.8.8c.3.3.7.5,1.1.6.4.1,1.2.3,2.3.5,1.2.2,2.1.5,2.9,1.2,1.7,1.5,3.3,3.4,4.2,4.7.2.3.4.6.6.8,0,.1,0,.3,0,.4-.7.7-1.9.7-2.6,0l-1.2-1.1-.4-.4h0s0,0,0,0h0s0,0,0,0c0,0,0,0,0,0,0,0,0,0,0,0,0,0,0,0,0,0s0,0,0,0c0,0,0,0,0,0,0,0,0,0,0,0,0,0,0,0,0,0,0,0,0,0,0,0,0,0,0,0,0,0l.8.8,1.5,1.5,1.4,1.4,1.6,1.6c.2.2.3.5.3.7,0,0,0,0,0,0,0,.3-.1.5-.3.7-.4.4-1.1.4-1.5,0l-.8-.8h0s-1.1-1-1.1-1c0,0,0,0,0,0l-.3-.3c-.1,0-.3,0-.4,0,0,.1,0,.3,0,.4l1,1,.5.5.8.8h.1c.2.3.3.6.3.9s-.1.6-.3.8Z"/>
    <path class="st14" d="M16.9,254.1c.4-.4.5-1,0-1.5-.4-.4-1-.5-1.5,0l-4.5,4.1-1.5-1.5c-.4-.4-1.1-.4-1.5,0-.4.4-.4,1.1,0,1.5l2.2,2.2c.2.2.5.3.7.3s.5,0,.7-.3l5.3-4.8Z"/>
  </g>
</svg>