<?xml version="1.0" encoding="UTF-8"?>
<svg id="Capa_1" xmlns="http://www.w3.org/2000/svg" version="1.1" viewBox="0 0 24 24">
  <!-- Generator: Adobe Illustrator 29.6.1, SVG Export Plug-In . SVG Version: 2.1.1 Build 9)  -->
  <defs>
    <style>
      .st0 {
        fill: #111;
        fill-rule: evenodd;
      }
    </style>
  </defs>
  <path class="st0" d="M20.5,6.1c-.2-.3-.5-.5-.8-.6-.3-.1-.6-.2-1-.2H6.3v-.3c0-.5-.4-1-.8-1.4-.4-.4-1-.6-1.5-.6h-.2c-.2,0-.4,0-.5.2-.1.1-.2.3-.2.5s0,.4.2.5c.1.1.3.2.5.2h.2c.2,0,.4,0,.5.2.1.1.2.3.3.5l1.1,8.5c.1.9.6,1.7,1.3,2.4.7.6,1.6.9,2.6.9h8c.2,0,.4,0,.5-.2.1-.1.2-.3.2-.5s0-.4-.2-.5c-.1-.1-.3-.2-.5-.2h-8c-.5,0-.9-.1-1.3-.4-.4-.3-.7-.6-.8-1.1h9.2c.9,0,1.8-.3,2.5-.9.7-.6,1.2-1.3,1.3-2.2l.6-3c0-.3,0-.7,0-1,0-.3-.2-.6-.5-.9ZM19.5,7.7l-.6,3c0,.5-.4,1-.8,1.3-.4.3-.9.5-1.5.5H7.2l-.7-5.7h12.2c.1,0,.2,0,.3,0,.1,0,.2.1.3.2,0,0,.1.2.2.3,0,.1,0,.2,0,.3ZM8.5,21c.8,0,1.5-.7,1.5-1.5s-.7-1.5-1.5-1.5-1.5.7-1.5,1.5.7,1.5,1.5,1.5ZM18,19.5c0,.8-.7,1.5-1.5,1.5s-1.5-.7-1.5-1.5.7-1.5,1.5-1.5,1.5.7,1.5,1.5Z"/>
</svg>