<svg width="29" height="28" viewBox="0 0 29 28" fill="none" xmlns="http://www.w3.org/2000/svg">
<path d="M11.8583 4.89172H7.03327C6.26467 4.89172 5.6416 5.51479 5.6416 6.28339V11.1084C5.6416 11.877 6.26467 12.5001 7.03327 12.5001H11.8583C12.6269 12.5001 13.2499 11.877 13.2499 11.1084V6.28339C13.2499 5.51479 12.6269 4.89172 11.8583 4.89172Z" stroke="#3D3D3D" stroke-width="1.3" stroke-linecap="round" stroke-linejoin="round"/>
<path d="M22.4667 4.89172H17.6417C16.8731 4.89172 16.25 5.51479 16.25 6.28339V11.1084C16.25 11.877 16.8731 12.5001 17.6417 12.5001H22.4667C23.2353 12.5001 23.8583 11.877 23.8583 11.1084V6.28339C23.8583 5.51479 23.2353 4.89172 22.4667 4.89172Z" stroke="#3D3D3D" stroke-width="1.3" stroke-linejoin="round"/>
<path d="M11.8583 15.5H7.03327C6.26467 15.5 5.6416 16.1231 5.6416 16.8917V21.7167C5.6416 22.4853 6.26467 23.1083 7.03327 23.1083H11.8583C12.6269 23.1083 13.2499 22.4853 13.2499 21.7167V16.8917C13.2499 16.1231 12.6269 15.5 11.8583 15.5Z" stroke="#3D3D3D" stroke-width="1.3" stroke-linejoin="round"/>
<path d="M22.4667 15.5H17.6417C16.8731 15.5 16.25 16.1231 16.25 16.8917V21.7167C16.25 22.4853 16.8731 23.1083 17.6417 23.1083H22.4667C23.2353 23.1083 23.8583 22.4853 23.8583 21.7167V16.8917C23.8583 16.1231 23.2353 15.5 22.4667 15.5Z" stroke="#3D3D3D" stroke-width="1.3" stroke-linejoin="round"/>
</svg>
