<?xml version="1.0" encoding="UTF-8"?>
<svg id="Capa_1" xmlns="http://www.w3.org/2000/svg" version="1.1" viewBox="0 0 48 48">
  <!-- Generator: Adobe Illustrator 29.3.1, SVG Export Plug-In . SVG Version: 2.1.0 Build 151)  -->
  <defs>
    <style>
      .st0 {
        fill: #3d3d3d;
      }
    </style>
  </defs>
  <path class="st0" d="M41.1,10.1H6.9c-.8,0-1.5-.7-1.5-1.5s.7-1.5,1.5-1.5h34.2c.8,0,1.5.7,1.5,1.5s-.7,1.5-1.5,1.5Z"/>
  <path class="st0" d="M13.7,10.1c-.6,0-1.2-.4-1.4-.9-.3-.8,0-1.6.8-2,1-.4,1.7-1.6,2.4-2.9,1-1.8,2.3-4,5-4h6.8c2.7,0,4,2.2,5,4,.7,1.3,1.4,2.5,2.4,2.9.8.3,1.1,1.2.8,2-.3.8-1.2,1.1-2,.8-2-.8-3-2.6-3.9-4.2-1-1.7-1.5-2.5-2.4-2.5h-6.8c-.9,0-1.4.8-2.4,2.5-.9,1.6-1.9,3.4-3.9,4.2-.2,0-.4.1-.6.1Z"/>
  <path class="st0" d="M29.9,47.7h-11.9c-4.1,0-7.6-3.3-7.8-7.4l-1.4-24.8c0-.8.6-1.5,1.4-1.6.8,0,1.5.6,1.6,1.4l1.4,24.8c.2,2.6,2.3,4.6,4.8,4.6h11.9c2.6,0,4.7-2,4.8-4.5l1.4-24.8c0-.8.7-1.5,1.6-1.4.8,0,1.5.8,1.4,1.6l-1.4,24.8c-.1,4.1-3.5,7.4-7.8,7.4Z"/>
  <path class="st0" d="M20.6,37.5c-.8,0-1.5-.7-1.5-1.5v-17.1c0-.8.7-1.5,1.5-1.5s1.5.7,1.5,1.5v17.1c0,.8-.7,1.5-1.5,1.5Z"/>
  <path class="st0" d="M27.4,37.5c-.8,0-1.5-.7-1.5-1.5v-17.1c0-.8.7-1.5,1.5-1.5s1.5.7,1.5,1.5v17.1c0,.8-.7,1.5-1.5,1.5Z"/>
</svg>