<svg width="24" height="24" viewBox="0 0 24 24" fill="none" xmlns="http://www.w3.org/2000/svg">
<path d="M16.1176 3V4.6M12 3V4.6M7.88235 3V4.6M19 9.4C19 6.76 19 5.44 18.1559 4.62C17.3118 3.8 15.9529 3.8 13.2353 3.8H10.7647C8.04706 3.8 6.68824 3.8 5.84412 4.62C5 5.44 5 6.76 5 9.4V13.4C5 16.04 5 17.36 5.84412 18.18C6.68824 19 8.04706 19 10.7647 19H12M8.70588 13.4H11.1765M8.70588 9.4H15.2941" stroke="#3D3D3D" stroke-width="1.3" stroke-linecap="round" stroke-linejoin="round"/>
<path fill-rule="evenodd" clip-rule="evenodd" d="M17 19C17.5253 19 18.0454 18.8965 18.5307 18.6955C19.016 18.4945 19.457 18.1999 19.8284 17.8284C20.1999 17.457 20.4945 17.016 20.6955 16.5307C20.8965 16.0454 21 15.5253 21 15C21 14.4747 20.8965 13.9546 20.6955 13.4693C20.4945 12.984 20.1999 12.543 19.8284 12.1716C19.457 11.8001 19.016 11.5055 18.5307 11.3045C18.0454 11.1035 17.5253 11 17 11C15.9391 11 14.9217 11.4214 14.1716 12.1716C13.4214 12.9217 13 13.9391 13 15C13 16.0609 13.4214 17.0783 14.1716 17.8284C14.9217 18.5786 15.9391 19 17 19ZM17 12.4596C17.0964 12.4596 17.1889 12.4979 17.2571 12.5661C17.3253 12.6343 17.3636 12.7268 17.3636 12.8233V14.6364H19.1767C19.2732 14.6364 19.3657 14.6747 19.4339 14.7429C19.5021 14.8111 19.5404 14.9036 19.5404 15C19.5404 15.0964 19.5021 15.1889 19.4339 15.2571C19.3657 15.3253 19.2732 15.3636 19.1767 15.3636H17.3636V17.1767C17.3636 17.2732 17.3253 17.3657 17.2571 17.4339C17.1889 17.5021 17.0964 17.5404 17 17.5404C16.9036 17.5404 16.8111 17.5021 16.7429 17.4339C16.6747 17.3657 16.6364 17.2732 16.6364 17.1767V15.3636H14.8233C14.7268 15.3636 14.6343 15.3253 14.5661 15.2571C14.4979 15.1889 14.4596 15.0964 14.4596 15C14.4596 14.9036 14.4979 14.8111 14.5661 14.7429C14.6343 14.6747 14.7268 14.6364 14.8233 14.6364H16.6364V12.8233C16.6364 12.7268 16.6747 12.6343 16.7429 12.5661C16.8111 12.4979 16.9036 12.4596 17 12.4596Z" fill="#3D3D3D"/>
</svg>
