<?xml version="1.0" encoding="UTF-8"?>
<svg id="Capa_1" data-name="Capa 1" xmlns="http://www.w3.org/2000/svg" viewBox="0 0 48 48">
  <path d="M39.68,6.75h-.29c-.75-2.23-2.86-3.85-5.34-3.85H8.98c-3.11,0-5.64,2.53-5.64,5.64v25.07c0,2.48,1.61,4.59,3.85,5.34v.29c0,3.03,2.47,5.5,5.5,5.5h23c5.24,0,9.5-4.26,9.5-9.5V12.25c0-3.03-2.47-5.5-5.5-5.5ZM6.34,33.62V8.55c0-1.46,1.19-2.64,2.64-2.64h25.07c1.46,0,2.64,1.19,2.64,2.64v25.07c0,1.46-1.19,2.64-2.64,2.64H8.98c-1.46,0-2.64-1.19-2.64-2.64ZM42.18,35.25c0,3.58-2.92,6.5-6.5,6.5H12.68c-1.38,0-2.49-1.12-2.5-2.49h23.87c3.11,0,5.64-2.53,5.64-5.64V9.75c1.37,0,2.49,1.12,2.49,2.5v23Z"/>
</svg>