<?xml version="1.0" encoding="UTF-8"?>
<svg id="Capa_1" xmlns="http://www.w3.org/2000/svg" version="1.1" viewBox="0 0 48 48">
  <!-- Generator: Adobe Illustrator 29.3.1, SVG Export Plug-In . SVG Version: 2.1.0 Build 151)  -->
  <path d="M36.7,18.3h-7.1c-.6,0-1.1.5-1.1,1.1s.5,1.1,1.1,1.1h7.1c1.3,0,2.4,1,2.4,2.2v17.9c0,1.2-1.1,2.2-2.4,2.2H11.7c-1.3,0-2.4-1-2.4-2.2v-17.9c0-1.2,1.1-2.2,2.4-2.2h5.4c.6,0,1.1-.5,1.1-1.1s-.5-1.1-1.1-1.1h-5.4c-2.6,0-4.7,2-4.7,4.4v17.9c0,2.4,2.1,4.4,4.7,4.4h24.9c2.6,0,4.7-2,4.7-4.4v-17.9c0-2.4-2.1-4.4-4.7-4.4Z"/>
  <path d="M18.2,12.7l4.9-5.4v22c0,.6.5,1.1,1.1,1.1s1.1-.5,1.1-1.1V7.2l4.9,5.4c.2.2.5.4.8.4s.5,0,.7-.3c.5-.4.5-1.1,0-1.6l-6.9-7.6s0,0,0,0c-.2-.2-.5-.4-.8-.4s-.6.1-.8.4c0,0,0,0,0,0l-6.9,7.6c-.4.5-.4,1.2,0,1.6.5.4,1.2.4,1.6,0Z"/>
</svg>