<?xml version="1.0" encoding="UTF-8"?>
<svg id="Capa_1" data-name="Capa 1" xmlns="http://www.w3.org/2000/svg" viewBox="0 0 48 48">
  <path d="M3.18,21.95l19.97,13.54c.25.17.55.26.84.26s.59-.09.84-.26l19.97-13.54c.4-.27.65-.72.66-1.21,0-.49-.22-.95-.61-1.24L24.89,4.68c-.53-.39-1.26-.39-1.79,0L3.13,19.51c-.39.29-.62.75-.61,1.24.01.49.26.94.66,1.21ZM23.99,7.76l17.38,12.9-17.38,11.78L6.62,20.66,23.99,7.76Z"/>
  <path d="M45.49,27.4c-.46-.69-1.4-.86-2.08-.4l-19.42,13.17L4.58,27c-.68-.46-1.62-.29-2.08.4-.46.69-.29,1.62.4,2.08l20.26,13.74c.25.17.55.26.84.26s.59-.09.84-.26l20.26-13.74c.69-.46.86-1.4.4-2.08Z"/>
</svg>