<?xml version="1.0" encoding="UTF-8"?>
<svg id="Capa_1" xmlns="http://www.w3.org/2000/svg" xmlns:xlink="http://www.w3.org/1999/xlink" version="1.1" viewBox="0 0 48 48">
  <!-- Generator: Adobe Illustrator 29.4.0, SVG Export Plug-In . SVG Version: 2.1.0 Build 152)  -->
  <defs>
    <style>
      .st0 {
        mask: url(#mask);
      }

      .st1 {
        fill: #3d3d3d;
      }

      .st2 {
        fill: #fff;
      }
    </style>
    <mask id="mask" x=".2" y=".1" width="47.6" height="47.8" maskUnits="userSpaceOnUse">
      <g id="mask0_6640_9937">
        <path class="st2" d="M.2.2h47.6v47.6H.2V.2Z"/>
      </g>
    </mask>
  </defs>
  <g class="st0">
    <path class="st1" d="M28.5.5l-1.4-.2c-4.3-.6-8.7,0-12.6,1.8-4,1.8-7.3,4.6-9.7,8.3C2.2,13.8.7,17.9.3,22.2c-.3,4.3.6,8.6,2.6,12.4.2.4.3.8.4,1.2,0,.4,0,.9-.1,1.3-1,3.5-2,7.1-3,10.8l1.3-.4c3.4-.9,6.8-1.8,10.1-2.6.7-.1,1.5,0,2.1.2,3,1.5,6.4,2.3,9.7,2.4,3.4,0,6.7-.5,9.8-1.8,3.1-1.3,5.9-3.3,8.2-5.7s4-5.4,5.1-8.6c1.1-3.2,1.4-6.6,1.1-10-.4-3.4-1.4-6.6-3.1-9.5-1.7-2.9-4-5.4-6.8-7.4-2.8-1.9-5.9-3.3-9.2-3.9ZM34.8,33.4c-.9.8-2,1.4-3.2,1.6-1.2.2-2.4.2-3.6-.2-5.2-1.5-9.8-4.8-12.9-9.3-1.2-1.6-2.1-3.4-2.8-5.2-.4-1.1-.4-2.2-.2-3.3.2-1.1.8-2.1,1.6-3,.4-.5.9-.8,1.5-1,.6-.2,1.2-.2,1.8,0,.5.1.9.9,1.3,1.4.4,1,.8,2,1.3,3,.4.5.5,1.1.4,1.7,0,.6-.4,1.2-.9,1.5-1.1,1-1,1.8-.2,3,1.8,2.6,4.2,4.6,7.1,5.8.8.4,1.4.4,1.9-.4.2-.3.5-.6.8-.9,1.5-1.8,1-1.8,3.3-.8.7.3,1.4.7,2.1,1.1.7.4,1.7.8,1.9,1.4.1.7.1,1.3-.1,2-.2.6-.6,1.2-1.1,1.6Z"/>
  </g>
</svg>