<?xml version="1.0" encoding="UTF-8"?>
<svg id="Capa_1" xmlns="http://www.w3.org/2000/svg" xmlns:xlink="http://www.w3.org/1999/xlink" version="1.1" viewBox="0 0 48 48">
  <!-- Generator: Adobe Illustrator 29.4.0, SVG Export Plug-In . SVG Version: 2.1.0 Build 152)  -->
  <defs>
    <style>
      .st0 {
        fill: none;
      }

      .st1 {
        fill: #3d3d3d;
      }

      .st2 {
        clip-path: url(#clippath);
      }
    </style>
    <clipPath id="clippath">
      <rect class="st0" x=".3" y=".3" width="47.4" height="47.4"/>
    </clipPath>
  </defs>
  <g class="st2">
    <path class="st1" d="M41.6,16.5c-.3.2-5,2.9-5,9s6,9.5,6.2,9.6c0,.2-1,3.4-3.2,6.7-2,2.9-4,5.8-7.2,5.8s-3.9-1.9-7.6-1.9-4.8,1.9-7.6,1.9-4.9-2.7-7.2-6c-2.7-3.9-4.8-9.9-4.8-15.7,0-9.2,5.8-14.1,11.6-14.1s5.6,2.1,7.5,2.1,4.7-2.2,8.1-2.2,6,.1,9.1,4.7ZM30.8,7.9c1.4-1.7,2.4-4.2,2.4-6.6s0-.7,0-1c-2.3,0-5.1,1.6-6.8,3.6-1.3,1.5-2.5,4-2.5,6.4s0,.7,0,.9c.1,0,.4,0,.6,0,2.1,0,4.7-1.4,6.2-3.4Z"/>
  </g>
</svg>