<svg width="24" height="24" viewBox="0 0 24 24" fill="none" xmlns="http://www.w3.org/2000/svg">
<path d="M19.5 6H6L7 13.5H17.5L19.5 12L20.5 7L19.5 6Z" fill="#E1A141"/>
<path fill-rule="evenodd" clip-rule="evenodd" d="M20.4633 6.00411C20.247 5.75538 19.9762 5.55533 19.6702 5.41818C19.3642 5.28103 19.0304 5.21013 18.6926 5.21053H6.26153L6.22924 4.95189C6.16316 4.41431 5.89354 3.91864 5.47152 3.55888C5.04949 3.19911 4.50439 3.00025 3.93956 3H3.76887C3.56495 3 3.36939 3.07763 3.2252 3.21582C3.08101 3.354 3 3.54142 3 3.73684C3 3.93226 3.08101 4.11968 3.2252 4.25787C3.36939 4.39605 3.56495 4.47368 3.76887 4.47368H3.93956C4.12788 4.47371 4.30964 4.53997 4.45037 4.6599C4.5911 4.77982 4.68101 4.94508 4.70304 5.12432L5.761 13.7454C5.87084 14.6419 6.32033 15.4687 7.02418 16.0686C7.72802 16.6686 8.63722 17 9.5792 17H17.6085C17.8124 17 18.008 16.9224 18.1521 16.7842C18.2963 16.646 18.3773 16.4586 18.3773 16.2632C18.3773 16.0677 18.2963 15.8803 18.1521 15.7421C18.008 15.6039 17.8124 15.5263 17.6085 15.5263H9.5792C9.10331 15.525 8.63949 15.3827 8.25131 15.1189C7.86314 14.8551 7.56962 14.4826 7.41099 14.0526H16.5759C17.4772 14.0527 18.3499 13.7492 19.0415 13.1953C19.7331 12.6413 20.1996 11.8721 20.3595 11.022L20.963 7.81379C21.0233 7.49548 21.0097 7.16837 20.9234 6.85563C20.837 6.54289 20.6799 6.25218 20.4633 6.00411ZM19.4538 7.55221L18.8494 10.7604C18.7534 11.2711 18.473 11.733 18.0574 12.0655C17.6417 12.398 17.1173 12.5797 16.5759 12.5789H7.16649L6.44299 6.68421H18.6926C18.8055 6.68356 18.9172 6.70677 19.0198 6.75219C19.1223 6.7976 19.2131 6.86411 19.2858 6.94697C19.3584 7.02984 19.4112 7.12703 19.4402 7.23164C19.4692 7.33624 19.4739 7.4457 19.4538 7.55221ZM8.5 21C9.32843 21 10 20.3284 10 19.5C10 18.6716 9.32843 18 8.5 18C7.67157 18 7 18.6716 7 19.5C7 20.3284 7.67157 21 8.5 21ZM18 19.5C18 20.3284 17.3284 21 16.5 21C15.6716 21 15 20.3284 15 19.5C15 18.6716 15.6716 18 16.5 18C17.3284 18 18 18.6716 18 19.5Z" fill="#E1A141"/>
</svg>
