<svg width="18" height="18" viewBox="0 0 18 18" fill="none" xmlns="http://www.w3.org/2000/svg">
<path d="M16.035 2.08608C15.6066 1.6828 15.0581 1.4579 14.3093 1.33382V1.77587C14.3093 2.09771 14.041 2.35751 13.7087 2.35751C13.3764 2.35751 13.1081 2.09771 13.1081 1.77587V1.21749C12.3674 1.17871 11.4825 1.17871 10.4134 1.17871H9.6046V1.77587C9.6046 2.09771 9.33634 2.35751 9.004 2.35751C8.67167 2.35751 8.4034 2.09771 8.4034 1.77587V1.17871H7.59059C6.52152 1.17871 5.64064 1.17871 4.8999 1.21749V1.77587C4.8999 2.09771 4.63163 2.35751 4.2993 2.35751C3.96697 2.35751 3.6987 2.09771 3.6987 1.77587V1.33382C2.94995 1.4579 2.3974 1.6828 1.96897 2.08608C1 2.99345 1 4.45144 1 7.37518V11.8034C1 14.7233 1 16.1852 1.96496 17.0925C2.92993 17.9999 4.48348 17.9999 7.58659 17.9999H10.4094C10.5816 17.9999 10.7498 17.9999 10.9099 17.9999C13.6847 17.9999 15.1221 17.9495 16.031 17.0925C16.996 16.1852 16.996 14.7233 16.996 11.8034V7.37518C16.996 4.45532 16.996 2.99345 16.031 2.08608H16.035ZM12.7638 14.1766H5.23624C4.9039 14.1766 4.63564 13.9168 4.63564 13.5949C4.63564 13.2731 4.9039 13.0133 5.23624 13.0133H12.7638C13.0961 13.0133 13.3644 13.2731 13.3644 13.5949C13.3644 13.9168 13.0961 14.1766 12.7638 14.1766ZM4.63564 9.58931C4.63564 9.26747 4.9039 9.00766 5.23624 9.00766H10.2773C10.6096 9.00766 10.8779 9.26747 10.8779 9.58931C10.8779 9.91115 10.6096 10.171 10.2773 10.171H5.23624C4.9039 10.171 4.63564 9.91115 4.63564 9.58931ZM12.7638 6.16535H5.23624C4.9039 6.16535 4.63564 5.90555 4.63564 5.58371C4.63564 5.26186 4.9039 5.00206 5.23624 5.00206H12.7638C13.0961 5.00206 13.3644 5.26186 13.3644 5.58371C13.3644 5.90555 13.0961 6.16535 12.7638 6.16535Z" fill="#E1A141"/>
<path d="M14.3057 0.581646C14.3057 0.259802 14.0374 0 13.7051 0C13.3728 0 13.1045 0.259802 13.1045 0.581646V1.2137C13.5529 1.23697 13.9533 1.27187 14.3057 1.33003V0.577768V0.581646Z" fill="#E1A141"/>
<path d="M9.60062 0.581646C9.60062 0.259802 9.33235 0 9.00001 0C8.66768 0 8.39941 0.259802 8.39941 0.581646V1.1788H9.60062V0.581646Z" fill="#E1A141"/>
<path d="M4.89554 0.581646C4.89554 0.259802 4.62727 0 4.29494 0C3.9626 0 3.69434 0.259802 3.69434 0.581646V1.33391C4.04669 1.27574 4.44709 1.24084 4.89554 1.21758V0.585523V0.581646Z" fill="#E1A141"/>
<path d="M5.23634 10.1711H10.2774C10.6097 10.1711 10.878 9.9113 10.878 9.58946C10.878 9.26761 10.6097 9.00781 10.2774 9.00781H5.23634C4.90401 9.00781 4.63574 9.26761 4.63574 9.58946C4.63574 9.9113 4.90401 10.1711 5.23634 10.1711Z" fill="white"/>
<path d="M12.7639 5.0022H5.23634C4.90401 5.0022 4.63574 5.262 4.63574 5.58384C4.63574 5.90569 4.90401 6.16549 5.23634 6.16549H12.7639C13.0962 6.16549 13.3645 5.90569 13.3645 5.58384C13.3645 5.262 13.0962 5.0022 12.7639 5.0022Z" fill="white"/>
<path d="M12.7639 13.0134H5.23634C4.90401 13.0134 4.63574 13.2732 4.63574 13.5951C4.63574 13.9169 4.90401 14.1767 5.23634 14.1767H12.7639C13.0962 14.1767 13.3645 13.9169 13.3645 13.5951C13.3645 13.2732 13.0962 13.0134 12.7639 13.0134Z" fill="white"/>
</svg>
