<svg width="14" height="16" viewBox="0 0 14 16" fill="none" xmlns="http://www.w3.org/2000/svg">
<g clip-path="url(#clip0_8509_19563)">
<path d="M13.1557 2.00157C12.7633 1.62987 12.2553 1.43209 11.5546 1.32638V1.98111C11.5546 2.2164 11.3584 2.40736 11.1166 2.40736C10.8749 2.40736 10.6787 2.2164 10.6787 1.98111V1.24112C10.013 1.20361 9.21422 1.20361 8.23323 1.20361H7.43443V1.98111C7.43443 2.2164 7.23824 2.40736 6.9965 2.40736C6.75476 2.40736 6.55856 2.2164 6.55856 1.98111V1.20361H5.75976C4.78228 1.20361 3.97998 1.20361 3.31431 1.24112V1.98111C3.31431 2.2164 3.11812 2.40736 2.87638 2.40736C2.63463 2.40736 2.43844 2.2164 2.43844 1.98111V1.32638C1.73774 1.43209 1.22973 1.62987 0.837337 2.00157C0 2.79952 0 4.08511 0 6.6563V10.5506C0 13.1184 0 14.404 0.844344 15.2019C1.68869 15.9999 3.04805 15.9999 5.76326 15.9999H8.23323C8.38388 15.9999 8.53103 15.9999 8.67117 15.9999C11.0991 15.9999 12.3569 15.9555 13.1522 15.2019C13.9965 14.404 13.9965 13.1184 13.9965 10.5506V6.6563C13.9965 4.08852 13.9965 2.80293 13.1522 2.00498L13.1557 2.00157ZM10.2933 12.5489H3.70671C3.46497 12.5489 3.26877 12.3579 3.26877 12.1226C3.26877 11.8873 3.46497 11.6964 3.70671 11.6964H10.2933C10.535 11.6964 10.7312 11.8873 10.7312 12.1226C10.7312 12.3579 10.535 12.5489 10.2933 12.5489ZM3.26877 8.60003C3.26877 8.36474 3.46497 8.17378 3.70671 8.17378H8.11762C8.35936 8.17378 8.55556 8.36474 8.55556 8.60003C8.55556 8.83533 8.35936 9.02629 8.11762 9.02629H3.70671C3.46497 9.02629 3.26877 8.83533 3.26877 8.60003ZM10.2933 5.5037H3.70671C3.46497 5.5037 3.26877 5.31274 3.26877 5.07744C3.26877 4.84215 3.46497 4.65118 3.70671 4.65118H10.2933C10.535 4.65118 10.7312 4.84215 10.7312 5.07744C10.7312 5.31274 10.535 5.5037 10.2933 5.5037Z" fill="#3D3D3D"/>
<path d="M11.5546 0.426257C11.5546 0.190963 11.3584 0 11.1166 0C10.8749 0 10.6787 0.190963 10.6787 0.426257V1.24126C11.001 1.25831 11.2918 1.28559 11.5546 1.32651V0.426257Z" fill="#3D3D3D"/>
<path d="M7.43838 0.426257C7.43838 0.190963 7.24218 0 7.00044 0C6.7587 0 6.5625 0.190963 6.5625 0.426257V1.20375H7.43838V0.426257Z" fill="#3D3D3D"/>
<path d="M3.32119 0.426257C3.32119 0.190963 3.12499 0 2.88325 0C2.64151 0 2.44531 0.190963 2.44531 0.426257V1.32651C2.70808 1.28559 2.99887 1.25831 3.32119 1.24126V0.426257Z" fill="#3D3D3D"/>
</g>
<defs>
<clipPath id="clip0_8509_19563">
<rect width="14" height="16" fill="white"/>
</clipPath>
</defs>
</svg>
