<svg width="18" height="18" viewBox="0 0 18 18" fill="none" xmlns="http://www.w3.org/2000/svg">
<path d="M5.58947 3.5619C5.56281 4.36984 5.6047 5.18555 5.59709 5.99349C5.72657 6.58391 6.47685 6.57614 6.62157 6.00126C6.64823 5.18944 6.59491 4.37373 6.62157 3.5619C8.2059 3.55802 9.79404 3.55802 11.3784 3.5619C11.4088 4.37373 11.3555 5.18944 11.3784 6.00126C11.5231 6.58003 12.2696 6.5878 12.4029 5.99349C12.399 5.18555 12.4371 4.36984 12.4105 3.5619C13.892 3.56967 15.0421 3.20066 15.2364 5.08844C15.5677 8.33186 15.6553 11.6102 15.9981 14.8537C16.0476 16.5006 14.9926 17.7824 13.3893 17.9961L4.7059 18.0038C3.03778 17.8368 1.94855 16.5278 2.00187 14.8226C2.34464 11.5908 2.42462 8.32409 2.75976 5.09233C2.954 3.20066 4.10416 3.57355 5.58566 3.56578L5.58947 3.5619ZM6.66727 10.3867C6.4578 10.6003 6.49589 10.9033 6.65585 11.1286C6.8158 11.3539 7.7146 12.2589 7.9355 12.4259C8.24398 12.659 8.47249 12.5736 8.7429 12.3405C9.62647 11.583 10.4148 10.5265 11.2946 9.74187C11.7592 9.27575 11.2679 8.53385 10.6852 8.87567L8.2935 11.2878C7.90884 10.9965 7.22331 9.82345 6.66727 10.3867Z" fill="#E1A141"/>
<path d="M9.34492 0.011653C11.173 0.182564 12.3536 1.76737 12.4146 3.55805C12.0718 3.55805 11.7252 3.55805 11.3786 3.55805C11.2568 0.240829 6.74372 0.240829 6.62185 3.55805C6.27908 3.55805 5.93251 3.55805 5.58594 3.55805C5.65068 1.76737 6.8275 0.186448 8.65558 0.011653C8.83839 -0.00388433 9.16211 -0.00388433 9.34492 0.011653Z" fill="#E1A141"/>
</svg>
